<?xml version="1.0" encoding="utf-8"?>
<!-- Generator: Adobe Illustrator 19.1.0, SVG Export Plug-In . SVG Version: 6.00 Build 0)  -->
<svg version="1.1" id="Layer_1" xmlns="http://www.w3.org/2000/svg" xmlns:xlink="http://www.w3.org/1999/xlink" x="0px" y="0px"
	 viewBox="0 0 206.4 35.8" style="enable-background:new 0 0 206.4 35.8;" xml:space="preserve">
<g>
	<path d="M20.9,28l-1.3-3.8H9.1L7.8,28H0L10,1.4h8.6l10,26.5H20.9z M14.3,8.2l-3.4,10h6.7L14.3,8.2z"/>
	<path d="M28.3,32.9l2.7-4.3c1.5,1.6,3.6,2.2,5.9,2.2c2,0,4.9-0.9,4.9-4.5v-1.5c-1.6,1.9-3.5,2.8-5.7,2.8c-4.7,0-8.4-3.2-8.4-9.7
		c0-6.3,3.6-9.7,8.4-9.7c2.1,0,4.1,0.8,5.7,2.7V8.8h6.1v17.5c0,7.8-6.2,9.5-11,9.5C33.5,35.8,30.8,34.9,28.3,32.9z M41.7,20.5v-5.1
		c-0.8-1-2.4-1.7-3.7-1.7c-2.4,0-4.2,1.5-4.2,4.3c0,2.8,1.8,4.3,4.2,4.3C39.3,22.2,41,21.6,41.7,20.5z"/>
	<path d="M49.5,18.3c0-5.6,4.2-10.1,10.2-10.1c5.7,0,9.8,4.2,9.8,10.7v1.4H55.8c0.4,1.7,2,3.1,4.8,3.1c1.4,0,3.6-0.6,4.7-1.6l2.7,4
		c-1.9,1.7-5.1,2.5-8,2.5C54,28.5,49.5,24.6,49.5,18.3z M62.4,5.8l-2.7-3.2L57,5.8h-3.7L57,0.1h5.4L66,5.8H62.4z M59.7,13.2
		c-2.7,0-3.7,1.6-3.9,3h7.9C63.5,14.8,62.5,13.2,59.7,13.2z"/>
	<path d="M83.9,28V16.9c0-2.3-1.2-3.2-3.1-3.2c-1.8,0-3,1-3.7,1.9V28h-6.1V8.8H77v2.3c1.2-1.4,3.4-2.8,6.7-2.8
		c4.3,0,6.3,2.5,6.3,6.1V28H83.9z"/>
	<path d="M91.7,18.3c0-6,4.5-10.1,10.5-10.1c4.2,0,6.7,1.8,7.9,3.5l-4,3.7c-0.8-1.1-2-1.8-3.6-1.8c-2.5,0-4.5,1.8-4.5,4.7
		s1.9,4.7,4.5,4.7c1.6,0,2.9-0.8,3.6-1.9l4,3.7c-1.2,1.7-3.7,3.5-7.9,3.5C96.2,28.5,91.7,24.4,91.7,18.3z"/>
	<path d="M110.8,3.5c0-2,1.6-3.5,3.5-3.5c1.9,0,3.5,1.6,3.5,3.5c0,1.9-1.6,3.5-3.5,3.5C112.3,7,110.8,5.5,110.8,3.5z M111.2,28V8.8
		h6.1V28H111.2z"/>
	<path d="M131.6,28v-1.9c-1.2,1.4-3.5,2.4-6,2.4c-2.9,0-6.6-2-6.6-6.3c0-4.7,3.7-6.2,6.6-6.2c2.5,0,4.8,0.8,6,2.3v-1.9
		c0-1.7-1.4-2.8-3.9-2.8c-1.9,0-3.8,0.8-5.4,2.1l-2.3-4.3c2.5-2.1,5.8-3,8.7-3c4.6,0,9,1.7,9,7.7v12H131.6z M131.6,23v-1.7
		c-0.6-0.9-2.1-1.4-3.4-1.4c-1.6,0-3.1,0.7-3.1,2.2c0,1.5,1.5,2.2,3.1,2.2C129.5,24.4,130.9,24,131.6,23z"/>
	<path d="M147.4,24.2l3.6-5.3c1.9,1.9,4.9,3.5,8.5,3.5c2.3,0,3.7-0.8,3.7-2.1c0-3.5-15-0.6-15-10.8C148.3,5,152,1,158.8,1
		c4.3,0,8,1.3,10.8,3.7l-3.7,5.1c-2.2-1.9-5.1-2.8-7.8-2.8c-2,0-2.9,0.7-2.9,1.8c0,3.3,15,0.8,15,10.7c0,5.3-3.9,8.9-11.1,8.9
		C153.8,28.5,150.1,26.7,147.4,24.2z"/>
	<path d="M171.5,30c0.4,0.2,1,0.4,1.5,0.4c1.4,0,2.3-0.3,2.6-1.1l0.4-1l-7.7-19.5h6.4l4.4,12.2l4.3-12.2h6.5l-8.7,22
		c-1.6,4.1-4.4,5-8.1,5.1c-0.6,0-2-0.1-2.6-0.3L171.5,30z"/>
	<path d="M188.6,25.5l2.5-4.4c1.4,1.3,4.5,2.6,6.8,2.6c1.8,0,2.6-0.5,2.6-1.4c0-2.4-11.2,0.1-11.2-7.7c0-3.4,2.9-6.3,8.2-6.3
		c3.3,0,6,1,8,2.5l-2.3,4.3c-1.2-1.1-3.3-2.1-5.7-2.1c-1.4,0-2.4,0.6-2.4,1.3c0,2.1,11.1-0.1,11.1,7.8c0,3.7-3.2,6.3-8.7,6.3
		C194.2,28.5,190.7,27.3,188.6,25.5z"/>
</g>
</svg>
