<?xml version="1.0" encoding="utf-8"?>
<!-- Generator: Adobe Illustrator 19.1.0, SVG Export Plug-In . SVG Version: 6.00 Build 0)  -->
<svg version="1.1" id="Layer_1" xmlns="http://www.w3.org/2000/svg" xmlns:xlink="http://www.w3.org/1999/xlink" x="0px" y="0px"
	 viewBox="0 0 80 80" style="enable-background:new 0 0 80 80;" xml:space="preserve">
<style type="text/css">
	.st0{fill:#2ECCA7;}
</style>
<g>
	<path class="st0" d="M59.2,69.6H16.4c-1.2,0-2.2,1-2.2,2.2s1,2.2,2.2,2.2h42.8c1.2,0,2.2-1,2.2-2.2S60.4,69.6,59.2,69.6z"/>
	<path class="st0" d="M72.4,30.3c-0.4-0.4-1-0.6-1.6-0.6H16.4c-1.2,0-2.2,1-2.2,2.2v12.1c0,12.1,10.6,21.9,23.6,21.9
		c11.6,0,21.4-7.8,23.3-18.4c9.4-1.1,11.9-10.6,12-15.6C73,31.3,72.8,30.7,72.4,30.3z M68.4,34c-0.5,3-2,7.8-7,8.9V34H68.4z M57,34
		v9.9c0,9.7-8.6,17.5-19.2,17.5s-19.2-7.9-19.2-17.5V34H57z"/>
	<path class="st0" d="M28.9,18.6c0,0.6-0.1,0.8-0.5,1.3c-0.5,0.7-1.3,1.9-1.3,3.8c0,1.2,1,2.2,2.2,2.2s2.2-1,2.2-2.2
		c0-0.6,0.1-0.8,0.5-1.3c0.5-0.7,1.3-1.9,1.3-3.9c0-2-0.8-3.1-1.3-3.9c-0.4-0.5-0.5-0.7-0.5-1.3c0-0.6,0.1-0.8,0.5-1.3
		c0.5-0.7,1.3-1.9,1.3-3.9c0-1.2-1-2.2-2.2-2.2s-2.2,1-2.2,2.2c0,0.6-0.1,0.8-0.5,1.3c-0.5,0.7-1.3,1.9-1.3,3.9c0,2,0.8,3.1,1.3,3.9
		C28.8,17.8,28.9,18,28.9,18.6z"/>
	<path class="st0" d="M36.5,18.6c0,0.6-0.1,0.8-0.5,1.3c-0.5,0.7-1.3,1.9-1.3,3.8c0,1.2,1,2.2,2.2,2.2s2.2-1,2.2-2.2
		c0-0.6,0.1-0.8,0.5-1.3c0.5-0.7,1.3-1.9,1.3-3.9c0-2-0.8-3.1-1.3-3.9c-0.4-0.5-0.5-0.7-0.5-1.3c0-0.6,0.1-0.8,0.5-1.3
		c0.5-0.7,1.3-1.9,1.3-3.9c0-1.2-1-2.2-2.2-2.2s-2.2,1-2.2,2.2c0,0.6-0.1,0.8-0.5,1.3c-0.5,0.7-1.3,1.9-1.3,3.9c0,2,0.8,3.1,1.3,3.9
		C36.4,17.8,36.5,18,36.5,18.6z"/>
	<path class="st0" d="M44.1,18.6c0,0.6-0.1,0.8-0.5,1.3c-0.5,0.7-1.3,1.9-1.3,3.8c0,1.2,1,2.2,2.2,2.2s2.2-1,2.2-2.2
		c0-0.6,0.1-0.8,0.5-1.3c0.5-0.7,1.3-1.9,1.3-3.9c0-2-0.8-3.1-1.3-3.9c-0.4-0.5-0.5-0.7-0.5-1.3c0-0.6,0.1-0.8,0.5-1.3
		c0.5-0.7,1.3-1.9,1.3-3.9c0-1.2-1-2.2-2.2-2.2s-2.2,1-2.2,2.2c0,0.6-0.1,0.8-0.5,1.3c-0.5,0.7-1.3,1.9-1.3,3.9c0,2,0.8,3.1,1.3,3.9
		C43.9,17.8,44.1,18,44.1,18.6z"/>
</g>
</svg>
