<?xml version="1.0" encoding="utf-8"?>
<!-- Generator: Adobe Illustrator 19.1.0, SVG Export Plug-In . SVG Version: 6.00 Build 0)  -->
<svg version="1.1" id="Layer_1" xmlns="http://www.w3.org/2000/svg" xmlns:xlink="http://www.w3.org/1999/xlink" x="0px" y="0px"
	 viewBox="0 0 80 80" style="enable-background:new 0 0 80 80;" xml:space="preserve">
<style type="text/css">
	.st0{fill:#2ECCA7;}
</style>
<g>
	<path class="st0" d="M50.4,72.2l-0.1-0.3H13c1.5-7.8,7.5-14.2,15.7-17c0.6,4.4,4.5,7.8,9.1,7.8c4.5,0,8.3-3.3,8.9-7.7
		c0.9,0.3,1.8,0.6,2.7,1l0.7,0.3v-3.5l-0.3-0.1c-1-0.4-2-0.8-3-1.1v-4.3c3.7-2.6,6.1-6.9,6.5-11.9c2.5-0.6,4.3-2.9,4.3-5.5
		c0-2.6-1.7-4.8-4.2-5.5v-1.3c1.3-0.1,2.5-0.7,3.1-1.6c0.7-1,1-2.4,1-4.5V6.5c0-0.9-0.7-1.6-1.6-1.6H34.7c-2.5,0-4.3,0.5-5.7,1.7
		c-1.2,1-2,2.6-2.3,4.8h-4.2c-1.5,0-2.5,0.8-3.2,1.4c-0.7,0.7-1.4,1.7-1.4,3.2l0,8.8c0,0.7,0.6,1.3,1.3,1.5c-0.8,1-1.3,2.3-1.3,3.6
		c0,2.6,1.9,4.9,4.4,5.5c0.4,4.9,2.6,9.2,6.3,11.9c0,0.1,0,0.2,0,0.3v4.1C17.9,54.9,10.4,63.4,9.4,73.3c-0.1,0.4,0.1,0.9,0.4,1.2
		c0.3,0.3,0.7,0.5,1.2,0.5c0,0,0,0,0,0h39.8c0.8,0,1.6-0.7,1.6-1.6V73h-0.5C51.3,73,50.7,72.7,50.4,72.2z M22.1,28.1v3.6
		c-0.5-0.3-1-0.9-1-1.8C21.1,29,21.6,28.5,22.1,28.1z M43.7,49.1v4.6c0,3.4-2.6,6-5.9,6c-3.4,0-6.1-2.7-6.1-6V49
		c1.9,0.8,4,1.2,6.1,1.2C39.9,50.2,41.9,49.8,43.7,49.1z M54,19.7c-0.2,0.2-0.3,0.4-1,0.3l-26,0c-0.1,0-0.1,0-0.2,0l-0.3,0l-0.1,0.1
		l-0.1,0l-0.1,0.1c-0.1,0-0.2,0.1-0.3,0.2l-2.7,2.8H21V16c0-0.1,0.2-0.6,0.5-0.9c0.4-0.4,0.8-0.5,0.9-0.5H28c0.9,0,1.6-0.7,1.6-1.6
		c0-2.5,0.7-3.4,1.4-3.9c0.8-0.6,2.1-1,3.7-1h19.8v9C54.5,18.6,54.2,19.4,54,19.7z M44.4,33.4c-1.1,0-2-0.9-2-1.9c0-1.1,0.9-2,2-2
		c1,0,1.9,0.9,1.9,2C46.2,32.5,45.4,33.4,44.4,33.4z M31.4,29.4c1,0,1.9,0.9,1.9,2c0,1.1-0.8,1.9-1.9,1.9c-1.1,0-2-0.9-2-1.9
		C29.4,30.3,30.3,29.4,31.4,29.4z M44.4,26.5c-1.6,0-3.1,0.8-4.1,2.2h-5c-0.9-1.4-2.4-2.2-3.9-2.2c-1.6,0-3.1,0.8-4.1,2.2h-2v-3.2
		l2.2-2.3h22.7v5.5h-2C47.4,27.3,45.9,26.5,44.4,26.5z M25.3,31.9h1.2c0.2,2.4,2.4,4.4,4.9,4.4c2.5,0,4.5-1.9,4.7-4.4h3.4
		c0.2,2.4,2.4,4.4,4.9,4.4c2.5,0,4.5-1.9,4.7-4.4h1.2v2.3C50.2,41.8,45.2,47,37.8,47c-7.5,0-12.5-5.3-12.5-13.1V31.9z M54.5,30
		c0,0.8-0.4,1.3-0.9,1.7v-3.5C54.1,28.7,54.5,29.3,54.5,30z"/>
	<path class="st0" d="M69.1,50.4h-1c0,0,0,0-0.1,0c-0.3-0.2-0.6-0.5-0.6-1.6c0-0.7,0.3-1,0.7-1.5l0.3-0.3c0.2-0.2,0.5-0.4,0.6-1
		c0.1-0.5-0.2-1.2-0.6-1.6C68.2,44.1,68,44,67.8,44c-0.3-0.1-0.6-0.1-0.9-0.1H55.1c-2.4,0-4.4,1.8-4.7,4.2c-0.1,0.2-0.1,0.4-0.1,0.6
		v22.6c0,0.9,0.7,1.6,1.6,1.6h17.2c0.9,0,1.6-0.7,1.6-1.6V51.9C70.6,51.1,69.9,50.4,69.1,50.4z M53.4,48.6c0.1-0.9,0.8-1.6,1.7-1.6
		h9.7c-0.3,0.4-0.5,0.9-0.5,1.7c0,0.6,0.1,1.2,0.3,1.7h-9.4c-0.9,0-1.7-0.7-1.7-1.6C53.4,48.7,53.4,48.6,53.4,48.6z M53.4,53.2
		c0.5,0.2,1.1,0.3,1.7,0.3h12.4v16.2H53.4V53.2z"/>
</g>
</svg>
