<?xml version="1.0" encoding="utf-8"?>
<!-- Generator: Adobe Illustrator 19.1.0, SVG Export Plug-In . SVG Version: 6.00 Build 0)  -->
<svg version="1.1" id="Layer_1" xmlns="http://www.w3.org/2000/svg" xmlns:xlink="http://www.w3.org/1999/xlink" x="0px" y="0px"
	 viewBox="0 0 80 80" style="enable-background:new 0 0 80 80;" xml:space="preserve">
<style type="text/css">
	.st0{fill:#2ECCA7;}
</style>
<g type="MSPage">
	<path type="MSShapeGroup" class="st0" d="M68.6,68.8H56.9v-9.2h11.7V68.8z M41.7,59.6h11.7v9.2H41.7V59.6z M26.5,59.6h11.7
		v9.2H26.5V59.6z M11.4,59.6H23v9.2H11.4V59.6z M11.4,16.1h6.9c0.8,2.9,3.4,5,6.5,5s5.7-2.2,6.5-5h17.4c0.8,2.9,3.4,5,6.5,5
		c3.1,0,5.7-2.2,6.5-5h7v13.1H11.4V16.1z M21.6,14.4c0-0.7,0.3-1.3,0.7-1.8c0.6-0.8,1.5-1.4,2.5-1.4c1.1,0,2,0.6,2.5,1.4
		c0.4,0.5,0.7,1.1,0.7,1.8c0,0.6-0.2,1.2-0.6,1.7c-0.6,0.9-1.5,1.5-2.6,1.5c-1.1,0-2.1-0.6-2.6-1.5C21.8,15.6,21.6,15.1,21.6,14.4
		L21.6,14.4z M51.9,14.4c0-0.7,0.3-1.3,0.7-1.8c0.6-0.8,1.5-1.4,2.5-1.4s2,0.6,2.5,1.4c0.4,0.5,0.7,1.1,0.7,1.8
		c0,0.6-0.2,1.2-0.6,1.7c-0.6,0.9-1.5,1.5-2.6,1.5c-1.1,0-2.1-0.6-2.6-1.5C52.2,15.6,51.9,15.1,51.9,14.4L51.9,14.4z M56.9,46.2
		h11.7V56H56.9V46.2z M41.7,46.2h11.7V56H41.7V46.2z M26.5,46.2h11.7V56H26.5V46.2z M11.4,46.2H23V56H11.4V46.2z M23,42.6H11.4v-9.9
		H23V42.6z M38.2,42.6H26.5v-9.9h11.7V42.6z M53.4,42.6H41.7v-9.9h11.7V42.6z M68.6,42.6H56.9v-9.9h11.7V42.6z M68.6,12.6h-7.1
		c-0.8-2.8-3.4-4.9-6.4-4.9c-3.1,0-5.6,2.1-6.4,4.9H31.2c-0.8-2.8-3.4-4.9-6.4-4.9c-3.1,0-5.6,2.1-6.4,4.9h-7c-2,0-3.5,1.6-3.5,3.5
		v52.7c0,2,1.6,3.5,3.5,3.5h57.3c2,0,3.5-1.6,3.5-3.5V16.1C72.2,14.2,70.6,12.6,68.6,12.6L68.6,12.6z"/>
</g>
</svg>
