<?xml version="1.0" encoding="utf-8"?>
<!-- Generator: Adobe Illustrator 19.1.0, SVG Export Plug-In . SVG Version: 6.00 Build 0)  -->
<svg version="1.1" id="Layer_1" xmlns="http://www.w3.org/2000/svg" xmlns:xlink="http://www.w3.org/1999/xlink" x="0px" y="0px"
	 viewBox="0 0 603.1 288" style="enable-background:new 0 0 603.1 288;" xml:space="preserve">
<style type="text/css">
	.st0{display:none;}
	.st1{display:inline;}
	.st2{fill:#414042;}
	.st3{display:inline;fill:#414042;}
	.st4{fill:#E6E7E8;}
	.st5{fill:#BCBEC0;}
	.st6{fill:#FFFFFF;}
	.st7{fill:#F1F2F2;}
	.st8{fill:#00B38C;}
	.st9{fill:#2ECCA7;}
	.st10{font-family:'Exo-Regular';}
	.st11{font-size:18.3198px;}
	.st12{font-size:13.9317px;}
	.st13{fill:#A7A9AC;}
	.st14{fill:#58595B;}
	.st15{font-size:21.5439px;}
	.st16{font-size:15.8938px;}
</style>
<g class="st0">
	<g class="st1">
		<path class="st2" d="M382.8,260.2H187c-3.4,0-6.2-0.4-6.2-1c0-0.5,2.7-1,6.2-1h195.8c3.4,0,6.1,0.4,6.1,1
			C389,259.8,386.2,260.2,382.8,260.2z"/>
	</g>
	<g class="st1">
		<path class="st2" d="M530.8,150.3h-19.9c-0.4,0-0.6-0.4-0.6-1c0-0.5,0.3-1,0.6-1h19.9c0.3,0,0.6,0.4,0.6,1
			C531.4,149.8,531.1,150.3,530.8,150.3z"/>
	</g>
	<g class="st1">
		<path class="st2" d="M500.8,172.1h-27.7c-0.5,0-0.9-0.4-0.9-1c0-0.5,0.4-1,0.9-1h27.7c0.5,0,0.9,0.4,0.9,1
			C501.6,171.6,501.3,172.1,500.8,172.1z"/>
	</g>
	<g class="st1">
		<path class="st2" d="M548,143.3h-35.9c-0.6,0-1.1-0.4-1.1-1c0-0.5,0.5-1,1.1-1H548c0.6,0,1.1,0.4,1.1,1
			C549.1,142.9,548.6,143.3,548,143.3z"/>
	</g>
	<g class="st1">
		<path class="st2" d="M503.2,188.6l-4.3-4.3l4.3-4.3l4.3,4.3L503.2,188.6z M501.8,184.3l1.4,1.4l1.4-1.4l-1.4-1.4L501.8,184.3z"/>
	</g>
	<g class="st1">
		<path class="st2" d="M42.5,128.4l-4.3-4.3l4.3-4.3l4.3,4.3L42.5,128.4z M41.1,124.1l1.4,1.4l1.4-1.4l-1.4-1.4L41.1,124.1z"/>
	</g>
	<g class="st1">
		<path class="st2" d="M302.4,61.8l-2.4-2.4l2.4-2.4l2.4,2.4L302.4,61.8z M301.6,59.4l0.8,0.8l0.8-0.8l-0.8-0.8L301.6,59.4z"/>
	</g>
	<g class="st1">
		<path class="st2" d="M193,46.1l-2.4-2.4l2.4-2.4l2.4,2.4L193,46.1z M192.2,43.7l0.8,0.8l0.8-0.8l-0.8-0.8L192.2,43.7z"/>
	</g>
	<g class="st1">
		<path class="st2" d="M454.2,255.5l-2.4-2.4l2.4-2.4l2.4,2.4L454.2,255.5z M453.5,253.1l0.8,0.8l0.8-0.8l-0.8-0.8L453.5,253.1z"/>
	</g>
	<path class="st3" d="M247.4,28.7c-0.1,0-0.1-0.1-0.1-0.2c0-0.1,0-0.2,0-0.2c0.1-0.1,0.2-0.1,0.3-0.1c0.1,0,0.1,0,0.2,0l1.9,1.2
		c0.1,0,0.1,0.1,0.1,0.2c0,0.1,0,0.2,0,0.2c-0.1,0.1-0.2,0.1-0.3,0.1c-0.1,0-0.1,0-0.2,0L247.4,28.7z M249.7,32.4c0-0.1,0-0.2,0-0.2
		c-0.1-0.1-0.2-0.2-0.3-0.2c-0.1,0-0.1,0-0.2,0l-1.9,1.1c-0.1,0-0.1,0.1-0.2,0.2c0,0.1,0,0.2,0,0.2c0.1,0.1,0.2,0.2,0.3,0.2
		c0.1,0,0.1,0,0.2,0l1.9-1.1C249.6,32.6,249.6,32.5,249.7,32.4z M253.9,29.8c0.1,0.1,0.2,0.2,0.3,0.2c0.1,0,0.1,0,0.2,0l1.9-1.1
		c0.1,0,0.1-0.1,0.1-0.2c0-0.1,0-0.2,0-0.2c-0.1-0.1-0.2-0.2-0.3-0.2c-0.1,0-0.1,0-0.2,0l-1.9,1.1C253.9,29.4,253.8,29.6,253.9,29.8
		z M250.4,33.1c-0.1,0-0.2,0.1-0.3,0.2l-1.1,1.9c-0.1,0.2,0,0.3,0.1,0.4c0.1,0,0.1,0,0.2,0c0.1,0,0.2-0.1,0.3-0.2l1.1-1.9
		c0.1-0.1,0-0.3-0.1-0.4C250.5,33.1,250.4,33.1,250.4,33.1z M253.1,28.9c0.1,0,0.2-0.1,0.3-0.2l1.1-1.9c0-0.1,0.1-0.2,0-0.2
		c0-0.1-0.1-0.1-0.1-0.2c-0.1,0-0.1,0-0.2,0c-0.1,0-0.2,0.1-0.3,0.2l-1.1,1.9c0,0.1-0.1,0.2,0,0.2c0,0.1,0.1,0.2,0.1,0.2
		C253,28.9,253.1,28.9,253.1,28.9z M249.3,31.1c0-0.1,0-0.2-0.1-0.2c-0.1-0.1-0.1-0.1-0.2-0.1l-2.2,0c-0.3,0-0.3,0.1-0.3,0.2
		c0,0.1,0,0.2,0.3,0.3l2.2,0.1C249.2,31.4,249.3,31.3,249.3,31.1z M254.3,32.1c0,0-0.1,0-0.2,0c-0.1,0-0.2,0.1-0.3,0.2
		c0,0.1-0.1,0.2,0,0.2c0,0.1,0.1,0.2,0.1,0.2l1.9,1.1c0,0,0.1,0,0.2,0c0.1,0,0.2-0.1,0.3-0.2c0-0.1,0.1-0.2,0-0.2
		c0-0.1-0.1-0.2-0.1-0.2L254.3,32.1z M249.7,26.5c-0.1-0.1-0.2-0.2-0.3-0.2c-0.1,0-0.1,0-0.1,0c-0.1,0-0.1,0.1-0.2,0.2
		c0,0.1,0,0.2,0,0.2l1,1.9c0.1,0.1,0.2,0.2,0.3,0.2c0.1,0,0.1,0,0.1,0c0.1,0,0.1-0.1,0.2-0.2c0-0.1,0-0.2,0-0.2L249.7,26.5z
		 M256.7,30.8l-2.2,0c-0.2,0-0.3,0.1-0.3,0.3c0,0.1,0,0.1,0.1,0.2c0.1,0.1,0.1,0.1,0.2,0.1l2.2,0.1c0.2,0,0.3-0.1,0.3-0.3
		C257.1,30.9,256.9,30.8,256.7,30.8z M253.4,33.3c-0.1-0.1-0.2-0.2-0.3-0.2c-0.1,0-0.1,0-0.2,0c-0.2,0.1-0.2,0.3-0.1,0.4l1.1,1.9
		c0.1,0.1,0.2,0.2,0.3,0.2c0.1,0,0.1,0,0.2,0c0.2-0.1,0.2-0.3,0.1-0.4L253.4,33.3z M251.7,25.7c-0.2,0-0.3,0.1-0.3,0.3v2.2
		c0,0.2,0.1,0.3,0.3,0.3c0.2,0,0.3-0.1,0.3-0.3v-2.2C252.1,25.9,251.9,25.7,251.7,25.7z M251.7,33.5c-0.2,0-0.3,0.2-0.3,0.3l0,2.2
		c0,0.1,0,0.2,0.1,0.2c0.1,0.1,0.1,0.1,0.2,0.1h0c0.2,0,0.3-0.1,0.3-0.3l0-2.2C252.1,33.6,251.9,33.5,251.7,33.5z"/>
	<g class="st1">
		<path class="st2" d="M82.2,91c-2,0-3.6-1.6-3.6-3.6c0-2,1.6-3.6,3.6-3.6c2,0,3.6,1.6,3.6,3.6C85.8,89.4,84.2,91,82.2,91z
			 M82.2,85.3c-1.2,0-2.2,1-2.2,2.2c0,1.2,1,2.2,2.2,2.2c1.2,0,2.2-1,2.2-2.2C84.4,86.3,83.4,85.3,82.2,85.3z"/>
	</g>
	<g class="st1">
		<path class="st2" d="M38.9,93.2c-1.2,0-2.2-1-2.2-2.2c0-1.2,1-2.2,2.2-2.2c1.2,0,2.2,1,2.2,2.2C41.1,92.2,40.2,93.2,38.9,93.2z
			 M38.9,89.7c-0.7,0-1.3,0.6-1.3,1.3c0,0.7,0.6,1.3,1.3,1.3c0.7,0,1.3-0.6,1.3-1.3C40.3,90.3,39.7,89.7,38.9,89.7z"/>
	</g>
	<g class="st1">
		<path class="st2" d="M318.9,49.2c-1.5,0-2.7-1.2-2.7-2.7c0-1.5,1.2-2.7,2.7-2.7c1.5,0,2.7,1.2,2.7,2.7
			C321.6,48,320.4,49.2,318.9,49.2z M318.9,44.8c-0.9,0-1.7,0.7-1.7,1.7c0,0.9,0.7,1.7,1.7,1.7c0.9,0,1.7-0.7,1.7-1.7
			C320.6,45.5,319.8,44.8,318.9,44.8z"/>
	</g>
	<g class="st1">
		<path class="st2" d="M76.4,119.6H79v-2.7h1.9v2.7h2.6v1.7h-2.6v2.7H79v-2.7h-2.6V119.6z"/>
	</g>
	<g class="st1">
		<path class="st2" d="M287,33.7h2.6V31h1.9v2.7h2.6v1.7h-2.6v2.7h-1.9v-2.7H287V33.7z"/>
	</g>
	<g class="st1">
		<path class="st2" d="M561.5,101.2h2.6v-2.7h1.9v2.7h2.6v1.7h-2.6v2.7h-1.9V103h-2.6V101.2z"/>
	</g>
	<g class="st1">
		<path class="st2" d="M521.3,216.6h2.6v-2.7h1.9v2.7h2.6v1.7h-2.6v2.7h-1.9v-2.7h-2.6V216.6z"/>
	</g>
	<g class="st1">
		<path class="st2" d="M545.9,221.2h2.4v-2.5h1.7v2.5h2.4v1.6H550v2.5h-1.7v-2.5h-2.4V221.2z"/>
	</g>
	<g class="st1">
		<rect x="34.8" y="137.7" class="st2" width="1.9" height="1.9"/>
		<rect x="38.9" y="137.7" class="st2" width="1.9" height="1.9"/>
		<rect x="43" y="137.7" class="st2" width="1.9" height="1.9"/>
		<rect x="47.2" y="137.7" class="st2" width="1.9" height="1.9"/>
		<rect x="51.3" y="137.7" class="st2" width="1.9" height="1.9"/>
		<rect x="55.4" y="137.7" class="st2" width="1.9" height="1.9"/>
		<rect x="59.5" y="137.7" class="st2" width="1.9" height="1.9"/>
		<rect x="63.6" y="137.7" class="st2" width="1.9" height="1.9"/>
		<rect x="67.7" y="137.7" class="st2" width="1.9" height="1.9"/>
		<rect x="71.8" y="137.7" class="st2" width="1.9" height="1.9"/>
	</g>
	<g class="st1">
		<path class="st4" d="M232.3,240.4c0,0,1.3-2,2.9-4.4c1.6-2.4,2.9-7,2.9-10.2v-19.3h52.4v19.3c0,3.2,1.3,7.8,2.9,10.2l2.9,4.4
			H232.3z"/>
		<rect x="238.1" y="206.4" class="st5" width="52.4" height="14.6"/>
		<g>
			<path class="st2" d="M298.4,241.5h-68.2l1.2-1.8c0,0,1.3-2,2.9-4.4c1.5-2.3,2.7-6.7,2.7-9.6v-20.4h54.7v20.4c0,3,1.2,7.4,2.7,9.6
				L298.4,241.5z M234.4,239.2h59.7l-1.7-2.7c-1.7-2.6-3.1-7.4-3.1-10.9v-18.1h-50.1v18.1c0,3.4-1.4,8.2-3.1,10.9
				C235.5,237.5,234.9,238.5,234.4,239.2z"/>
		</g>
		<path class="st6" d="M367,211.9H161c-3.2,0-5.8-2.6-5.8-5.8V94.1c0-3.2,2.6-5.8,5.8-5.8h206c3.2,0,5.8,2.6,5.8,5.8v111.9
			C372.8,209.3,370.2,211.9,367,211.9z"/>
		<g>
			<path class="st2" d="M367,213H161c-3.8,0-6.9-3.1-6.9-6.9V94.1c0-3.8,3.1-6.9,6.9-6.9h206c3.8,0,6.9,3.1,6.9,6.9v111.9
				C374,209.9,370.9,213,367,213z M161,89.5c-2.6,0-4.6,2.1-4.6,4.6v111.9c0,2.6,2.1,4.6,4.6,4.6h206c2.6,0,4.6-2.1,4.6-4.6V94.1
				c0-2.6-2.1-4.6-4.6-4.6H161z"/>
		</g>
		<rect x="166.8" y="99.9" class="st7" width="194.4" height="88.5"/>
		<g>
			<path class="st2" d="M362.4,189.6H165.7V98.8h196.7V189.6z M168,187.3h192.1v-86.3H168V187.3z"/>
		</g>
		<rect x="221.4" y="104.1" class="st6" width="24.1" height="24.1"/>
		<rect x="248.7" y="104.1" class="st8" width="103.1" height="24.1"/>
		<rect x="221.4" y="130.9" class="st8" width="24.1" height="24.1"/>
		<rect x="248.7" y="130.9" class="st4" width="48.9" height="24.1"/>
		<rect x="302.6" y="130.9" class="st8" width="48.9" height="24.1"/>
		<rect x="221.4" y="157.6" class="st6" width="24.1" height="24.1"/>
		<circle class="st2" cx="194.4" cy="122.6" r="9.3"/>
		<g>
			<path class="st2" d="M204.2,140.1h-19.6c-0.6,0-1.1-0.5-1.1-1.1s0.5-1.1,1.1-1.1h19.6c0.6,0,1.1,0.5,1.1,1.1
				S204.8,140.1,204.2,140.1z"/>
		</g>
		<g>
			<path class="st2" d="M189.5,149.6h-13.2c-0.6,0-1.1-0.5-1.1-1.1c0-0.6,0.5-1.1,1.1-1.1h13.2c0.6,0,1.1,0.5,1.1,1.1
				C190.7,149.1,190.2,149.6,189.5,149.6z"/>
		</g>
		<g>
			<path class="st2" d="M210.4,149.6h-16.3c-0.6,0-1.1-0.5-1.1-1.1c0-0.6,0.5-1.1,1.1-1.1h16.3c0.6,0,1.1,0.5,1.1,1.1
				C211.6,149.1,211.1,149.6,210.4,149.6z"/>
		</g>
		<g>
			<path class="st2" d="M204.2,155.4h-27.8c-0.6,0-1.1-0.5-1.1-1.1c0-0.6,0.5-1.1,1.1-1.1h27.8c0.6,0,1.1,0.5,1.1,1.1
				C205.3,154.9,204.8,155.4,204.2,155.4z"/>
		</g>
		<g>
			<path class="st2" d="M210.4,161.2h-34c-0.6,0-1.1-0.5-1.1-1.1c0-0.6,0.5-1.1,1.1-1.1h34c0.6,0,1.1,0.5,1.1,1.1
				C211.6,160.7,211.1,161.2,210.4,161.2z"/>
		</g>
		<g>
			<path class="st2" d="M192.7,167h-16.3c-0.6,0-1.1-0.5-1.1-1.1s0.5-1.1,1.1-1.1h16.3c0.6,0,1.1,0.5,1.1,1.1S193.3,167,192.7,167z"
				/>
		</g>
	</g>
	<g class="st1">
		<path class="st6" d="M553.8,192h-33.9c-0.6,0-1-0.4-1-1v-33.9c0-0.6,0.4-1,1-1h33.9c0.6,0,1,0.5,1,1V191
			C554.8,191.6,554.4,192,553.8,192z"/>
		<path class="st9" d="M518.9,160.9v-3.9c0-0.6,0.4-1,1-1h33.9c0.6,0,1,0.5,1,1v3.9C554.8,161.5,518.9,161.5,518.9,160.9z"/>
		<g>
			<path class="st2" d="M553.8,193.2h-33.9c-1.2,0-2.1-1-2.1-2.1v-33.9c0-1.2,1-2.1,2.1-2.1h33.9c1.2,0,2.1,1,2.1,2.1V191
				C556,192.2,555,193.2,553.8,193.2z M520,190.9h33.7v-33.7H520V190.9z"/>
		</g>
		<g>
			<path class="st2" d="M554.8,162.5h-36c-0.6,0-1.1-0.5-1.1-1.1s0.5-1.1,1.1-1.1h36c0.6,0,1.1,0.5,1.1,1.1S555.5,162.5,554.8,162.5
				z"/>
		</g>
		<circle class="st2" cx="522.7" cy="158.6" r="0.6"/>
		<circle class="st2" cx="525.3" cy="158.6" r="0.6"/>
		<circle class="st2" cx="527.9" cy="158.6" r="0.6"/>
		<g>
			<path class="st2" d="M523.3,187.5c-0.2,0-0.5-0.1-0.7-0.2c-0.5-0.4-0.6-1.1-0.2-1.6l9-12.3c0.4-0.5,1.1-0.6,1.6-0.2
				c0.5,0.4,0.6,1.1,0.2,1.6l-9,12.3C524,187.4,523.6,187.5,523.3,187.5z"/>
		</g>
		<circle class="st2" cx="523.6" cy="186.1" r="2.1"/>
		<circle class="st2" cx="532.2" cy="173.2" r="2.1"/>
		<circle class="st2" cx="550.3" cy="168.2" r="2.1"/>
		<g>
			<path class="st2" d="M541.5,183.9c-0.3,0-0.6-0.1-0.8-0.3l-10.1-9.5c-0.5-0.4-0.5-1.2,0-1.6c0.4-0.5,1.2-0.5,1.6,0l10.1,9.5
				c0.5,0.4,0.5,1.2,0,1.6C542.1,183.8,541.8,183.9,541.5,183.9z"/>
		</g>
		<circle class="st2" cx="540.7" cy="182.8" r="2.1"/>
		<g>
			<path class="st2" d="M540.7,183.1c-0.2,0-0.5-0.1-0.7-0.2c-0.5-0.4-0.6-1.1-0.3-1.6l9.7-13.8c0.4-0.5,1.1-0.6,1.6-0.3
				c0.5,0.4,0.6,1.1,0.3,1.6l-9.7,13.8C541.4,183,541,183.1,540.7,183.1z"/>
		</g>
	</g>
	<text transform="matrix(1 0 0 1 71.1446 240.3532)" class="st3 st10 st11">SQL</text>
</g>
<g class="st0">
	<g class="st1">
		<path class="st2" d="M370.4,64.2h-30c-0.5,0-0.9-0.4-0.9-1c0-0.5,0.4-1,0.9-1h30c0.5,0,0.9,0.4,0.9,1
			C371.3,63.7,370.9,64.2,370.4,64.2z"/>
	</g>
	<g class="st1">
		<path class="st2" d="M97.1,100.9H69.4c-0.5,0-0.9-0.4-0.9-1c0-0.5,0.4-1,0.9-1h27.7c0.5,0,0.9,0.4,0.9,1
			C97.9,100.5,97.5,100.9,97.1,100.9z"/>
	</g>
	<g class="st1">
		<path class="st2" d="M542.8,133.6l-4.3-4.3l4.3-4.3l4.3,4.3L542.8,133.6z M541.5,129.3l1.4,1.4l1.4-1.4l-1.4-1.4L541.5,129.3z"/>
	</g>
	<path class="st3" d="M381.4,66.8c-0.1-0.1-0.2-0.2-0.3-0.4c0-0.2,0-0.3,0.1-0.5c0.1-0.2,0.3-0.3,0.5-0.3c0.1,0,0.2,0,0.3,0.1
		l3.7,2.3c0.1,0.1,0.2,0.2,0.3,0.4c0,0.2,0,0.3-0.1,0.5c-0.1,0.2-0.3,0.3-0.5,0.3c-0.1,0-0.2,0-0.3-0.1L381.4,66.8z M385.9,74.2
		c0-0.2,0-0.3-0.1-0.5c-0.1-0.2-0.3-0.3-0.6-0.3c-0.1,0-0.2,0-0.3,0.1l-3.8,2.1c-0.1,0.1-0.3,0.2-0.3,0.4c0,0.2,0,0.3,0,0.5
		c0.1,0.2,0.3,0.3,0.6,0.3c0.1,0,0.2,0,0.3-0.1l3.8-2.1C385.8,74.5,385.9,74.4,385.9,74.2z M394.4,68.9c0.1,0.2,0.3,0.3,0.5,0.3
		c0.1,0,0.2,0,0.3-0.1L399,67c0.1-0.1,0.3-0.2,0.3-0.4c0-0.2,0-0.3-0.1-0.5c-0.1-0.2-0.3-0.3-0.5-0.3c-0.1,0-0.2,0-0.3,0.1l-3.8,2.2
		C394.3,68.2,394.2,68.6,394.4,68.9z M387.3,75.5c-0.2,0-0.4,0.1-0.5,0.3l-2.3,3.7c-0.2,0.3-0.1,0.7,0.2,0.9
		c0.1,0.1,0.2,0.1,0.3,0.1c0.2,0,0.4-0.1,0.5-0.3l2.3-3.7c0.2-0.3,0.1-0.7-0.2-0.9C387.6,75.5,387.4,75.5,387.3,75.5z M392.9,67.2
		c0.2,0,0.4-0.1,0.5-0.3l2.2-3.8c0.1-0.1,0.1-0.3,0.1-0.5c0-0.2-0.2-0.3-0.3-0.4c-0.1-0.1-0.2-0.1-0.3-0.1c-0.2,0-0.4,0.1-0.5,0.3
		l-2.2,3.8c-0.1,0.1-0.1,0.3-0.1,0.5c0,0.2,0.1,0.3,0.3,0.4C392.7,67.2,392.8,67.2,392.9,67.2z M385.3,71.5c0-0.2-0.1-0.3-0.2-0.5
		c-0.1-0.1-0.3-0.2-0.5-0.2l-4.4,0.1c-0.5,0-0.6,0.3-0.6,0.5c0,0.2,0.1,0.5,0.6,0.5l4.4,0.3C385,72.2,385.3,71.9,385.3,71.5z
		 M395.2,73.6c-0.1-0.1-0.2-0.1-0.3-0.1c-0.2,0-0.4,0.1-0.5,0.3c-0.1,0.1-0.1,0.3-0.1,0.5c0,0.2,0.1,0.3,0.3,0.4l3.8,2.2
		c0.1,0.1,0.2,0.1,0.3,0.1c0.2,0,0.4-0.1,0.5-0.3c0.1-0.1,0.1-0.3,0.1-0.5c0-0.2-0.1-0.3-0.3-0.4L395.2,73.6z M386,62.4
		c-0.1-0.2-0.3-0.3-0.6-0.3c-0.1,0-0.2,0-0.3,0.1c-0.1,0.1-0.3,0.2-0.3,0.4c-0.1,0.2,0,0.3,0,0.5l2.1,3.9c0.1,0.2,0.3,0.3,0.6,0.3
		c0.1,0,0.2,0,0.3-0.1c0.2-0.1,0.3-0.2,0.3-0.4c0-0.2,0-0.3,0-0.5L386,62.4z M400,70.9l-4.4,0.1c-0.4,0-0.6,0.2-0.6,0.6
		c0,0.2,0.1,0.3,0.2,0.4c0.1,0.1,0.3,0.2,0.5,0.2l4.4,0.1c0.3,0,0.6-0.3,0.6-0.6C400.7,71.2,400.4,70.9,400,70.9z M393.4,75.9
		c-0.1-0.2-0.3-0.3-0.6-0.3c-0.1,0-0.2,0-0.3,0.1c-0.3,0.2-0.4,0.6-0.2,0.9l2.1,3.8c0.1,0.2,0.3,0.3,0.6,0.3c0.1,0,0.2,0,0.3-0.1
		c0.3-0.2,0.4-0.6,0.2-0.9L393.4,75.9z M390.1,60.9c-0.3,0-0.6,0.3-0.6,0.6v4.4c0,0.3,0.3,0.6,0.6,0.6c0.4,0,0.6-0.3,0.6-0.6v-4.4
		C390.7,61.2,390.4,60.9,390.1,60.9z M390.1,76.2c-0.4,0-0.6,0.3-0.6,0.6l-0.1,4.4c0,0.2,0.1,0.3,0.2,0.4c0.1,0.1,0.3,0.2,0.5,0.2h0
		c0.4,0,0.6-0.3,0.6-0.6l0.1-4.4C390.7,76.5,390.4,76.2,390.1,76.2z"/>
	<g class="st1">
		<path class="st2" d="M421,254.5c-1.2,0-2.2-1-2.2-2.2c0-1.2,1-2.2,2.2-2.2c1.2,0,2.2,1,2.2,2.2C423.2,253.6,422.2,254.5,421,254.5
			z M421,251c-0.7,0-1.3,0.6-1.3,1.3c0,0.7,0.6,1.3,1.3,1.3c0.7,0,1.3-0.6,1.3-1.3C422.3,251.6,421.7,251,421,251z"/>
	</g>
	<g class="st1">
		<path class="st2" d="M397.2,259.4h2.6v-2.7h1.9v2.7h2.6v1.7h-2.6v2.7h-1.9v-2.7h-2.6V259.4z"/>
	</g>
	<g class="st1">
		<path class="st2" d="M487.4,70.5h2.4v-2.5h1.7v2.5h2.4v1.6h-2.4v2.5h-1.7v-2.5h-2.4V70.5z"/>
	</g>
	<g class="st1">
		<rect x="509" y="201.4" class="st2" width="1.9" height="1.9"/>
		<rect x="513.1" y="201.4" class="st2" width="1.9" height="1.9"/>
		<rect x="517.2" y="201.4" class="st2" width="1.9" height="1.9"/>
		<rect x="521.3" y="201.4" class="st2" width="1.9" height="1.9"/>
		<rect x="525.5" y="201.4" class="st2" width="1.9" height="1.9"/>
		<rect x="529.6" y="201.4" class="st2" width="1.9" height="1.9"/>
		<rect x="533.7" y="201.4" class="st2" width="1.9" height="1.9"/>
		<rect x="537.8" y="201.4" class="st2" width="1.9" height="1.9"/>
		<rect x="541.9" y="201.4" class="st2" width="1.9" height="1.9"/>
		<rect x="546" y="201.4" class="st2" width="1.9" height="1.9"/>
	</g>
	<g class="st1">
		<path class="st8" d="M513.8,125.3c0-9.5-7.7-17.2-17.2-17.2c-9.5,0-17.2,7.7-17.2,17.2c0,7.2,4.4,13.3,10.6,15.9v6h13.3v-6
			C509.4,138.6,513.8,132.4,513.8,125.3z"/>
		<g>
			<path class="st2" d="M504.3,148.3h-15.6v-6.4c-6.5-3-10.6-9.5-10.6-16.7c0-10.1,8.3-18.4,18.4-18.4c10.1,0,18.4,8.2,18.4,18.4
				c0,7.2-4.1,13.6-10.6,16.7V148.3z M491,146h11v-5.6l0.7-0.3c6-2.5,9.9-8.3,9.9-14.9c0-8.9-7.2-16.1-16.1-16.1
				c-8.9,0-16.1,7.2-16.1,16.1c0,6.5,3.9,12.3,9.9,14.9l0.7,0.3V146z"/>
		</g>
		<path class="st6" d="M507.8,123.7l-2,0c-0.2-1-0.6-2-1.2-2.9l1.4-1.4c0.5-0.5,0.5-1.3,0-1.8l-1.1-1.1c-0.5-0.5-1.3-0.5-1.8,0
			l-1.4,1.4c-0.9-0.6-1.9-1-2.9-1.2v-2c0-0.7-0.6-1.3-1.3-1.3H496c-0.7,0-1.3,0.6-1.3,1.3v2c-1,0.2-2,0.6-2.9,1.2l-1.4-1.4
			c-0.5-0.5-1.3-0.5-1.8,0l-1.1,1.1c-0.5,0.5-0.5,1.3,0,1.8l1.4,1.4c-0.6,0.9-1,1.8-1.2,2.9l-2,0c-0.7,0-1.3,0.6-1.3,1.3l0,1.5
			c0,0.7,0.6,1.3,1.3,1.3l2,0c0.2,1,0.6,2,1.2,2.9l-1.4,1.4c-0.5,0.5-0.5,1.3,0,1.8l1.1,1.1c0.5,0.5,1.3,0.5,1.8,0l1.4-1.4
			c0.9,0.6,1.8,1,2.9,1.2l0,2c0,0.7,0.6,1.3,1.3,1.3l1.5,0c0.7,0,1.3-0.6,1.3-1.3l0-2c1-0.2,2-0.6,2.9-1.2l1.4,1.4
			c0.5,0.5,1.3,0.5,1.8,0l1.1-1.1c0.5-0.5,0.5-1.3,0-1.8l-1.4-1.4c0.6-0.9,1-1.8,1.2-2.9l2,0c0.7,0,1.3-0.6,1.3-1.3V125
			C509.1,124.3,508.5,123.7,507.8,123.7z M496.7,129.9c-2.3,0-4.1-1.8-4.1-4.1c0-2.3,1.8-4.1,4.1-4.1c2.3,0,4.1,1.8,4.1,4.1
			C500.9,128,499,129.9,496.7,129.9z"/>
		<g>
			<path class="st2" d="M497.4,139.2l-1.5,0c-1.3,0-2.4-1.1-2.4-2.4l0-1.1c-0.5-0.2-1.1-0.4-1.6-0.7l-0.8,0.8
				c-0.9,0.9-2.5,0.9-3.5,0l-1.1-1.1c-0.5-0.5-0.7-1.1-0.7-1.7c0-0.7,0.3-1.3,0.7-1.7l0.8-0.8c-0.3-0.5-0.5-1-0.6-1.6l-1.1,0
				c-1.3,0-2.4-1.1-2.4-2.5l0-1.5c0-1.3,1.1-2.4,2.4-2.4l1.1,0c0.2-0.5,0.4-1.1,0.7-1.6l-0.8-0.8c-0.9-1-0.9-2.5,0-3.5l1.1-1.1
				c0.9-0.9,2.5-0.9,3.5,0l0.8,0.8c0.5-0.2,1-0.5,1.5-0.6v-1.1c0-1.4,1.1-2.4,2.4-2.4h1.5c1.3,0,2.4,1.1,2.4,2.4v1.1
				c0.5,0.2,1.1,0.4,1.6,0.6l0.8-0.8c0.9-0.9,2.5-0.9,3.5,0l1.1,1.1c0.5,0.5,0.7,1.1,0.7,1.7c0,0.7-0.3,1.3-0.7,1.7L506,121
				c0.3,0.5,0.5,1,0.6,1.6l1.1,0c1.3,0,2.4,1.1,2.4,2.4v1.5c0,1.3-1.1,2.4-2.4,2.4l-1.1,0c-0.2,0.5-0.4,1.1-0.7,1.6l0.8,0.8
				c0.5,0.5,0.7,1.1,0.7,1.7c0,0.7-0.3,1.3-0.7,1.7l-1.1,1.1c-0.9,0.9-2.5,0.9-3.5,0l-0.8-0.8c-0.5,0.3-1,0.5-1.6,0.6l0,1.1
				C499.9,138.1,498.8,139.2,497.4,139.2z M491.6,132.1l0.8,0.5c0.8,0.5,1.6,0.9,2.5,1.1l0.9,0.2l0,2.9c0,0.1,0.1,0.2,0.2,0.2l1.5,0
				c0.1,0,0.2-0.1,0.2-0.1l0-2.9l0.9-0.2c0.9-0.2,1.8-0.6,2.5-1l0.8-0.5l2.1,2.1l1,0.8l-0.8-0.8l1.1-1.1l0,0v-0.2l-2.1-2.1l0.5-0.8
				c0.5-0.8,0.9-1.6,1.1-2.5l0.2-0.9l2.9,0c0.1,0,0.2-0.1,0.2-0.2V125c0-0.1-0.1-0.2-0.1-0.2l-2.9,0l-0.2-0.9
				c-0.2-0.9-0.6-1.8-1.1-2.5l-0.5-0.8l2.1-2.1l0,0l0-0.2l-1.1-1.1l-1-0.8l0.8,0.8l-2.1,2.1l-0.8-0.5c-0.8-0.5-1.6-0.8-2.5-1.1
				l-0.9-0.2v-2.9c0-0.1-0.1-0.2-0.2-0.2H496c-0.1,0-0.2,0.1-0.2,0.2v2.9l-0.9,0.2c-0.9,0.2-1.7,0.5-2.5,1l-0.8,0.5l-2.1-2.1l0,0
				l-0.2,0l-1.1,1.1c-0.1,0.1-0.1,0.2,0,0.2l2.1,2.1l-0.5,0.8c-0.5,0.8-0.9,1.6-1.1,2.5l-0.2,0.9l-2.9,0l0,0c-0.1,0-0.2,0.1-0.2,0.2
				l0,1.5c0,0.1,0.1,0.1,0.2,0.1l2.9,0l0.2,0.9c0.2,0.9,0.5,1.7,1,2.5l0.5,0.8l-2.1,2.1l-0.8,1l0.8-0.8l1.1,1.1l0.2,0L491.6,132.1z
				 M496.7,131c-2.9,0-5.3-2.4-5.3-5.3c0-2.9,2.4-5.3,5.3-5.3c2.9,0,5.3,2.4,5.3,5.3C502,128.6,499.6,131,496.7,131z M496.7,122.8
				c-1.6,0-3,1.3-3,3c0,1.6,1.3,3,3,3c1.6,0,3-1.3,3-3C499.7,124.1,498.4,122.8,496.7,122.8z"/>
		</g>
		<rect x="489.9" y="143.9" class="st7" width="13.2" height="10.7"/>
		<g>
			<path class="st2" d="M504.3,155.8h-15.6v-13.1h15.6V155.8z M491,153.6h11V145h-11V153.6z"/>
		</g>
		<g>
			<path class="st2" d="M500.3,148.8h-7.5c-0.6,0-1.1-0.5-1.1-1.1c0-0.6,0.5-1.1,1.1-1.1h7.5c0.6,0,1.1,0.5,1.1,1.1
				C501.4,148.3,500.9,148.8,500.3,148.8z"/>
		</g>
		<g>
			<path class="st2" d="M500.3,152.1h-7.5c-0.6,0-1.1-0.5-1.1-1.1c0-0.6,0.5-1.1,1.1-1.1h7.5c0.6,0,1.1,0.5,1.1,1.1
				C501.4,151.6,500.9,152.1,500.3,152.1z"/>
		</g>
		<g>
			<path class="st2" d="M500.3,157.3h-7.5c-0.6,0-1.1-0.5-1.1-1.1s0.5-1.1,1.1-1.1h7.5c0.6,0,1.1,0.5,1.1,1.1
				S500.9,157.3,500.3,157.3z"/>
		</g>
	</g>
	<g class="st1">
		<g>
			<path class="st5" d="M458.5,225.8c0,4,0,7.3,0,7.3H268.6c0,0,0-3.3,0-7.3v-86.6c0-4,3.1-7.3,6.9-7.3h176.1c3.8,0,6.9,3.3,6.9,7.3
				V225.8z"/>
			<g>
				<path class="st2" d="M459.7,234.3H267.5v-95c0-4.7,3.6-8.5,8-8.5h176.1c4.4,0,8,3.8,8,8.5V234.3z M269.8,232h187.6v-92.7
					c0-3.4-2.6-6.2-5.7-6.2H275.5c-3.2,0-5.7,2.8-5.7,6.2V232z"/>
			</g>
			<rect x="277" y="139" class="st6" width="173.2" height="87.1"/>
			<g>
				<path class="st2" d="M451.3,227.2H275.8v-89.4h175.5V227.2z M278.1,224.9H449v-84.8H278.1V224.9z"/>
			</g>
			<path class="st6" d="M466.6,234.2c0-0.6-0.5-1.2-1.2-1.2H261.7c-0.6,0-1.2,0.5-1.2,1.2l0.1,2.6h205.9L466.6,234.2z"/>
			<path class="st4" d="M260.6,236.8l2,2.6c0.6,0.7,1.1,1.2,2.1,1.2h198.1c0.6,0,1.2-0.4,1.8-1.2l2-2.6H260.6z"/>
			<g>
				<path class="st2" d="M462.8,241.7H264.7c-1.6,0-2.3-0.9-2.9-1.6l-2.3-3l-0.1-3c0-1.3,1-2.3,2.3-2.3h203.7c1.3,0,2.3,1,2.3,2.3
					l-0.1,3l-2.2,2.9C464.9,240.9,464.1,241.7,462.8,241.7z M261.8,236.4l1.8,2.3c0.5,0.6,0.7,0.7,1.2,0.7h198.1
					c0.1,0,0.3,0,0.8-0.7l1.8-2.3l0.1-2.2l-203.7,0L261.8,236.4z"/>
			</g>
			<path class="st2" d="M337.1,233.8v1.3c0,0.4,0.6,0.7,1.3,0.7h50.5c0.7,0,1.3-0.3,1.3-0.7v-1.3H337.1z"/>
			<circle class="st2" cx="363.6" cy="135.2" r="1.7"/>
		</g>
		<rect x="284.4" y="143.7" class="st2" width="2" height="2"/>
		<rect x="284.4" y="148.5" class="st2" width="2" height="2"/>
		<rect x="284.4" y="153.3" class="st2" width="2" height="2"/>
		<rect x="284.4" y="158.1" class="st2" width="2" height="2"/>
		<rect x="284.4" y="162.8" class="st2" width="2" height="2"/>
		<rect x="284.4" y="162.8" class="st2" width="2" height="2"/>
		<rect x="284.4" y="167.6" class="st2" width="2" height="2"/>
		<rect x="284.4" y="172.4" class="st2" width="2" height="2"/>
		<rect x="284.4" y="177.2" class="st2" width="2" height="2"/>
		<rect x="284.4" y="182" class="st2" width="2" height="2"/>
		<rect x="284.4" y="186.8" class="st2" width="2" height="2"/>
		<rect x="284.4" y="191.6" class="st2" width="2" height="2"/>
		<rect x="284.4" y="196.3" class="st2" width="2" height="2"/>
		<rect x="284.4" y="201.1" class="st2" width="2" height="2"/>
		<rect x="284.4" y="205.9" class="st2" width="2" height="2"/>
		<rect x="284.4" y="210.7" class="st2" width="2" height="2"/>
		<rect x="284.4" y="215.5" class="st2" width="2" height="2"/>
		<rect x="284.4" y="220.3" class="st2" width="2" height="2"/>
		<g>
			<g>
				<rect x="295.8" y="148.4" class="st2" width="16.1" height="2.3"/>
			</g>
			<g>
				<rect x="314.9" y="148.4" class="st2" width="16.1" height="2.3"/>
			</g>
			<g>
				<rect x="302.5" y="153.1" class="st9" width="16.1" height="2.3"/>
			</g>
			<g>
				<rect x="300" y="158.9" class="st2" width="32.1" height="2.3"/>
			</g>
			<g>
				<rect x="334.1" y="158.9" class="st9" width="13.4" height="2.3"/>
			</g>
			<g>
				<rect x="350.2" y="158.9" class="st2" width="35.8" height="2.3"/>
			</g>
			<g>
				<rect x="388.3" y="158.9" class="st2" width="14" height="2.3"/>
			</g>
			<g>
				<rect x="303.9" y="169.5" class="st9" width="22" height="2.3"/>
			</g>
			<g>
				<rect x="295.8" y="196.2" class="st2" width="22" height="2.3"/>
			</g>
			<g>
				<rect x="306.8" y="202" class="st9" width="25.3" height="2.3"/>
			</g>
			<g>
				<rect x="303.4" y="208" class="st2" width="13.2" height="2.3"/>
			</g>
			<g>
				<rect x="318.9" y="208" class="st2" width="48.5" height="2.3"/>
			</g>
			<g>
				<rect x="299.6" y="214.3" class="st2" width="36.6" height="2.3"/>
			</g>
			<g>
				<rect x="339.6" y="214.3" class="st9" width="22.2" height="2.3"/>
			</g>
			<g>
				<rect x="365.1" y="214.3" class="st2" width="8" height="2.3"/>
			</g>
			<g>
				<rect x="376.2" y="214.3" class="st2" width="22.5" height="2.3"/>
			</g>
			<g>
				<rect x="335.2" y="202" class="st2" width="13.6" height="2.3"/>
			</g>
			<g>
				<rect x="319.3" y="196.2" class="st2" width="6.1" height="2.3"/>
			</g>
			<g>
				<rect x="311.9" y="174.5" class="st2" width="22" height="2.3"/>
			</g>
			<g>
				<rect x="336.2" y="174.5" class="st2" width="6.8" height="2.3"/>
			</g>
			<g>
				<rect x="345.4" y="174.5" class="st9" width="20" height="2.3"/>
			</g>
			<g>
				<rect x="308.1" y="180.6" class="st2" width="31.6" height="2.3"/>
			</g>
			<g>
				<rect x="305.2" y="185.6" class="st2" width="22.8" height="2.3"/>
			</g>
			<g>
				<rect x="331" y="185.6" class="st9" width="23.1" height="2.3"/>
			</g>
			<g>
				<rect x="356.9" y="185.6" class="st2" width="8.2" height="2.3"/>
			</g>
			<g>
				<rect x="368.1" y="185.6" class="st2" width="36.8" height="2.3"/>
			</g>
			<g>
				<rect x="321" y="153.1" class="st2" width="5.5" height="2.3"/>
			</g>
			<g>
				<rect x="328" y="153.1" class="st2" width="29.2" height="2.3"/>
			</g>
		</g>
	</g>
	<g class="st1">
		<g>
			
				<rect x="113.2" y="111.6" transform="matrix(0.7072 -0.7071 0.7071 0.7072 -58.1189 120.7369)" class="st9" width="7" height="37.9"/>
			<g>
				<path class="st2" d="M127.6,147c-0.7,0-1.3-0.3-1.8-0.7l-24.9-24.9c-0.5-0.5-0.7-1.1-0.7-1.8c0-0.7,0.3-1.3,0.7-1.8l3.1-3.1
					c0.9-0.9,2.6-0.9,3.5,0l24.9,24.9c1,1,1,2.5,0,3.5l-3.1,3.1C128.9,146.8,128.3,147,127.6,147z M105.9,116.4h-0.3l-3.1,3.1
					c-0.1,0.1-0.1,0.2,0,0.3l24.9,24.9c0.1,0.1,0.2,0.1,0.3,0l3.1-3.1c0.1-0.1,0.1-0.2,0-0.3L105.9,116.4z"/>
			</g>
			<g>
				<path class="st2" d="M104.2,124.1c-0.3,0-0.6-0.1-0.8-0.3c-0.4-0.4-0.4-1.2,0-1.6l2.5-2.5c0.4-0.4,1.2-0.4,1.6,0
					c0.4,0.4,0.4,1.2,0,1.6l-2.5,2.5C104.8,124,104.5,124.1,104.2,124.1z"/>
			</g>
			<g>
				<path class="st2" d="M107.6,127.5c-0.3,0-0.6-0.1-0.8-0.3c-0.4-0.4-0.4-1.2,0-1.6l2.5-2.5c0.4-0.4,1.2-0.4,1.6,0
					c0.4,0.4,0.4,1.2,0,1.6l-2.5,2.5C108.1,127.4,107.9,127.5,107.6,127.5z"/>
			</g>
			<g>
				<path class="st2" d="M110.9,130.9c-0.3,0-0.6-0.1-0.8-0.3c-0.4-0.4-0.4-1.2,0-1.6l2.5-2.5c0.4-0.4,1.2-0.4,1.6,0
					c0.4,0.4,0.4,1.2,0,1.6l-2.5,2.5C111.5,130.8,111.2,130.9,110.9,130.9z"/>
			</g>
			<g>
				<path class="st2" d="M114.3,134.3c-0.3,0-0.6-0.1-0.8-0.3c-0.4-0.4-0.4-1.2,0-1.6l2.5-2.5c0.4-0.4,1.2-0.4,1.6,0
					c0.4,0.4,0.4,1.2,0,1.6l-2.5,2.5C114.9,134.2,114.6,134.3,114.3,134.3z"/>
			</g>
			<g>
				<path class="st2" d="M117.7,137.7c-0.3,0-0.6-0.1-0.8-0.3c-0.4-0.4-0.4-1.2,0-1.6l2.5-2.5c0.4-0.4,1.2-0.4,1.6,0
					c0.4,0.4,0.4,1.2,0,1.6l-2.5,2.5C118.3,137.6,118,137.7,117.7,137.7z"/>
			</g>
			<g>
				<path class="st2" d="M121.1,141.1c-0.3,0-0.6-0.1-0.8-0.3c-0.4-0.4-0.4-1.2,0-1.6l2.5-2.5c0.4-0.4,1.2-0.4,1.6,0
					c0.4,0.4,0.4,1.2,0,1.6l-2.5,2.5C121.7,140.9,121.4,141.1,121.1,141.1z"/>
			</g>
			<g>
				<path class="st2" d="M124.5,144.4c-0.3,0-0.6-0.1-0.8-0.3c-0.4-0.4-0.4-1.2,0-1.6l2.5-2.5c0.4-0.4,1.2-0.4,1.6,0
					c0.4,0.4,0.4,1.2,0,1.6l-2.5,2.5C125.1,144.3,124.8,144.4,124.5,144.4z"/>
			</g>
		</g>
		<g>
			
				<rect x="117.2" y="113.3" transform="matrix(0.7073 0.7069 -0.7069 0.7073 126.1978 -46.2667)" class="st7" width="3.5" height="31.9"/>
			<g>
				<path class="st2" d="M108.9,143.4l-4.1-4.1l24.2-24.2l4.1,4.1L108.9,143.4z M108.1,139.3l0.8,0.8l20.9-20.9l-0.8-0.8
					L108.1,139.3z"/>
			</g>
			<g>
				<path class="st2" d="M104.3,145.4c-0.6,0-0.9-0.3-1.1-0.4c-0.2-0.2-0.7-0.9-0.2-2.1l1.4-3c0.3-0.6,0.9-0.8,1.5-0.6
					c0.6,0.3,0.8,0.9,0.6,1.5l-0.8,1.7l1.7-0.8c0.6-0.3,1.3,0,1.5,0.6c0.3,0.6,0,1.3-0.6,1.5l-3,1.4
					C105,145.4,104.6,145.4,104.3,145.4z"/>
			</g>
		</g>
		<g>
			<path class="st2" d="M116.7,157.8l-0.3,0l0-2.3l0.2,0c1.4,0,2.8-0.1,4.1-0.3l0.4,2.3C119.7,157.6,118.2,157.8,116.7,157.8z
				 M111.7,157.3c-1.6-0.3-3.1-0.7-4.6-1.3l0.8-2.1c1.4,0.5,2.8,0.9,4.2,1.2L111.7,157.3z M125.8,156.2l-0.8-2.2
				c1.4-0.5,2.7-1.1,4-1.8l1.1,2C128.8,155,127.3,155.7,125.8,156.2z M102.8,153.9c-1.4-0.8-2.7-1.8-3.9-2.8l1.5-1.7
				c1.1,1,2.3,1.8,3.5,2.6L102.8,153.9z M134.1,151.5l-1.5-1.8c1.1-0.9,2.2-2,3.1-3.1l1.7,1.5C136.5,149.3,135.3,150.5,134.1,151.5z
				 M95.6,147.7c-1-1.2-1.9-2.6-2.7-3.9l2-1.1c0.7,1.3,1.5,2.5,2.5,3.6L95.6,147.7z M140.2,144.2l-2-1.2c0.7-1.3,1.4-2.6,1.9-4
				l2.2,0.8C141.7,141.4,141,142.8,140.2,144.2z M91,139.4c-0.5-1.5-0.9-3.1-1.2-4.6l2.3-0.4c0.2,1.4,0.6,2.9,1.1,4.2L91,139.4z
				 M143.5,135.3l-2.3-0.4c0.3-1.4,0.4-2.9,0.4-4.4h2.3C143.9,132.1,143.8,133.7,143.5,135.3z M91.8,130.1l-2.3,0
				c0-1.6,0.2-3.2,0.5-4.7l2.2,0.4C91.9,127.2,91.8,128.6,91.8,130.1z M141.4,127c-0.2-1.4-0.5-2.9-1-4.3l2.2-0.7
				c0.5,1.5,0.9,3.1,1.1,4.7L141.4,127z M93.4,121.5l-2.1-0.8c0.6-1.5,1.3-2.9,2.1-4.3l2,1.2C94.6,118.9,94,120.2,93.4,121.5z
				 M138.7,118.8c-0.7-1.3-1.5-2.5-2.4-3.7l1.8-1.4c1,1.3,1.9,2.6,2.6,4L138.7,118.8z M97.9,114.1l-1.7-1.5c1-1.2,2.2-2.3,3.4-3.3
				l1.4,1.8C100,112,98.9,113,97.9,114.1z M133.3,111.9c-1.1-1-2.3-1.9-3.5-2.6l1.2-1.9c1.3,0.8,2.6,1.8,3.8,2.9L133.3,111.9z
				 M104.7,108.6l-1.1-2c1.4-0.8,2.9-1.4,4.4-1.9l0.7,2.2C107.4,107.4,106,107.9,104.7,108.6z M125.9,107.3c-1.4-0.5-2.8-1-4.2-1.2
				l0.5-2.2c1.6,0.3,3.1,0.8,4.6,1.4L125.9,107.3z M113,105.9l-0.3-2.3c1.6-0.2,3.2-0.3,4.8-0.3l-0.1,2.3
				C115.9,105.6,114.4,105.7,113,105.9z"/>
		</g>
	</g>
	<text transform="matrix(1 0 0 1 89.4732 78.073)" class="st3 st10 st12">HTML</text>
</g>
<g>
	<g>
		<path class="st2" d="M216,70.4h-30c-0.5,0-0.9-0.4-0.9-1c0-0.5,0.4-1,0.9-1h30c0.5,0,0.9,0.4,0.9,1
			C216.9,69.9,216.5,70.4,216,70.4z"/>
	</g>
	<g>
		<path class="st2" d="M214.8,76.9h-67.9c-1.2,0-2.1-0.4-2.1-1c0-0.5,1-1,2.1-1h67.9c1.2,0,2.1,0.4,2.1,1
			C216.9,76.4,216,76.9,214.8,76.9z"/>
	</g>
	<g>
		<path class="st2" d="M188.6,252.1h-86.2c-1.5,0-2.7-0.4-2.7-1c0-0.5,1.2-1,2.7-1h86.2c1.5,0,2.7,0.4,2.7,1
			C191.3,251.7,190.1,252.1,188.6,252.1z"/>
	</g>
	<g>
		<circle class="st2" cx="61.2" cy="199.9" r="2.3"/>
		<circle class="st2" cx="49.1" cy="196.6" r="2.3"/>
		<circle class="st2" cx="40.2" cy="187.7" r="2.3"/>
		<circle class="st2" cx="36.9" cy="175.6" r="2.3"/>
		<circle class="st2" cx="40.2" cy="163.4" r="2.3"/>
		<circle class="st2" cx="49.1" cy="154.5" r="2.3"/>
		<circle class="st2" cx="61.3" cy="151.3" r="2.3"/>
		<circle class="st2" cx="73.4" cy="154.6" r="2.3"/>
		<circle class="st2" cx="82.3" cy="163.6" r="2.3"/>
		<circle class="st2" cx="85.5" cy="175.7" r="2.3"/>
		<circle class="st2" cx="82.2" cy="187.9" r="2.3"/>
		<circle class="st2" cx="73.3" cy="196.7" r="2.3"/>
		<path class="st9" d="M60.9,163.2c-6.9,0-12.4,5.6-12.4,12.4S54,188,60.9,188c6.9,0,12.4-5.6,12.4-12.4S67.7,163.2,60.9,163.2z
			 M60.9,183.8c-4.5,0-8.2-3.7-8.2-8.2c0-4.5,3.7-8.2,8.2-8.2c4.5,0,8.2,3.7,8.2,8.2C69.1,180.1,65.4,183.8,60.9,183.8z"/>
		<g>
			<path class="st2" d="M61.2,192.3c-9.2,0-16.7-7.5-16.7-16.7s7.5-16.7,16.7-16.7S78,166.4,78,175.6S70.5,192.3,61.2,192.3z
				 M61.2,161.2c-8,0-14.4,6.5-14.4,14.4c0,8,6.5,14.4,14.4,14.4s14.4-6.5,14.4-14.4C75.7,167.7,69.2,161.2,61.2,161.2z"/>
		</g>
		<g>
			<path class="st2" d="M66.6,191.4c-0.2,0-0.4-0.1-0.6-0.2c-0.5-0.3-0.7-1-0.4-1.6c2.4-3.8,3.7-8.8,3.7-14.1
				c0-5.2-1.3-10.2-3.6-13.9c-0.3-0.5-0.2-1.2,0.4-1.6c0.5-0.3,1.2-0.2,1.6,0.4c2.6,4.1,4,9.5,4,15.2c0,5.7-1.4,11.1-4,15.3
				C67.4,191.2,67,191.4,66.6,191.4z"/>
		</g>
		<g>
			<path class="st2" d="M56.2,191.4c-0.4,0-0.8-0.2-1-0.5c-2.6-4.2-4-9.6-4-15.3c0-5.6,1.4-11,4-15.2c0.3-0.5,1-0.7,1.6-0.4
				c0.5,0.3,0.7,1,0.4,1.6c-2.3,3.8-3.6,8.7-3.6,13.9c0,5.3,1.3,10.2,3.7,14.1c0.3,0.5,0.2,1.2-0.4,1.6
				C56.6,191.3,56.4,191.4,56.2,191.4z"/>
		</g>
		<g>
			<path class="st2" d="M61.2,192.3c-0.6,0-1.1-0.5-1.1-1.1V160c0-0.6,0.5-1.1,1.1-1.1c0.6,0,1.1,0.5,1.1,1.1v31.2
				C62.4,191.8,61.9,192.3,61.2,192.3z"/>
		</g>
		<g>
			<path class="st2" d="M76.8,176.8H45.6c-0.6,0-1.1-0.5-1.1-1.1c0-0.6,0.5-1.1,1.1-1.1h31.2c0.6,0,1.1,0.5,1.1,1.1
				C78,176.2,77.4,176.8,76.8,176.8z"/>
		</g>
		<g>
			<path class="st2" d="M75,169.4H48c-0.6,0-1.1-0.5-1.1-1.1c0-0.6,0.5-1.1,1.1-1.1H75c0.6,0,1.1,0.5,1.1,1.1
				C76.1,168.8,75.6,169.4,75,169.4z"/>
		</g>
		<g>
			<path class="st2" d="M74.7,184.2H47.5c-0.6,0-1.1-0.5-1.1-1.1c0-0.6,0.5-1.1,1.1-1.1h27.2c0.6,0,1.1,0.5,1.1,1.1
				C75.8,183.7,75.3,184.2,74.7,184.2z"/>
		</g>
	</g>
	<g>
		<path class="st5" d="M451.6,238.2c0,2-1.6,3.6-3.6,3.6h-33.2c-2,0-3.6-1.6-3.6-3.6v-61.1c0-2,1.6-3.6,3.6-3.6H448
			c2,0,3.6,1.6,3.6,3.6V238.2z"/>
		<g>
			<path class="st2" d="M448,242.9h-33.2c-2.6,0-4.7-2.1-4.7-4.7v-61.1c0-2.6,2.1-4.7,4.7-4.7H448c2.6,0,4.7,2.1,4.7,4.7v61.1
				C452.7,240.8,450.6,242.9,448,242.9z M414.8,174.7c-1.3,0-2.4,1.1-2.4,2.4v61.1c0,1.3,1.1,2.4,2.4,2.4H448c1.3,0,2.4-1.1,2.4-2.4
				v-61.1c0-1.3-1.1-2.4-2.4-2.4H414.8z"/>
		</g>
		<rect x="416.8" y="181.4" class="st6" width="29.2" height="51.9"/>
		<g>
			<rect x="425.4" y="176.4" class="st2" width="12.1" height="2.3"/>
		</g>
		<g>
			<path class="st2" d="M447.2,234.4h-31.5v-54.2h31.5V234.4z M417.9,232.1h26.9v-49.6h-26.9V232.1z"/>
		</g>
	</g>
	<g>
		<rect x="449.7" y="75.9" class="st13" width="8" height="8"/>
		<rect x="433.2" y="78.5" class="st2" width="8" height="8"/>
		<rect x="416.7" y="75.9" class="st13" width="8" height="8"/>
		<rect x="447" y="94.1" class="st14" width="8" height="8"/>
		<rect x="433.2" y="94.1" class="st2" width="8" height="8"/>
		<rect x="418.5" y="94.1" class="st2" width="8" height="8"/>
		<rect x="450.6" y="112.4" class="st13" width="8" height="8"/>
		<rect x="433.2" y="109.7" class="st2" width="8" height="8"/>
		<rect x="419.4" y="109.7" class="st2" width="8" height="8"/>
		<g>
			<rect x="387.9" y="89.6" class="st8" width="42" height="34.3"/>
			<g>
				<path class="st2" d="M430.9,125.1h-44V88.5h44V125.1z M389.2,122.8h39.4v-32h-39.4V122.8z"/>
			</g>
			<path class="st6" d="M397.8,105.7v1.4c0,0.6,0.5,1.2,1.2,1.2l1.8,0c0.2,0.9,0.6,1.8,1.1,2.6l-1.3,1.3c-0.5,0.5-0.5,1.2,0,1.7l1,1
				c0.5,0.5,1.2,0.5,1.7,0l1.3-1.3c0.8,0.5,1.7,0.9,2.6,1.1l0,1.8c0,0.6,0.5,1.2,1.2,1.2l1.4,0c0.6,0,1.2-0.5,1.2-1.2l0-1.8
				c0.9-0.2,1.8-0.6,2.6-1.1l1.3,1.3c0.5,0.5,1.2,0.5,1.7,0l0.9-1c0.5-0.5,0.5-1.2,0-1.7l-1.3-1.3c0.5-0.8,0.9-1.7,1.1-2.6l1.8,0
				c0.6,0,1.2-0.5,1.2-1.2l0-1.3c0-0.7-0.5-1.2-1.2-1.2l-1.8,0c-0.2-0.9-0.6-1.8-1.1-2.6l1.3-1.3c0.5-0.5,0.4-1.2,0-1.7l-1-0.9
				c-0.5-0.5-1.2-0.5-1.7,0l-1.3,1.3c-0.8-0.5-1.6-0.9-2.6-1.1v-1.8c0-0.6-0.5-1.2-1.2-1.2h-1.3c-0.6,0-1.2,0.5-1.2,1.2v1.8
				c-0.9,0.2-1.8,0.6-2.6,1.1l-1.3-1.3c-0.5-0.5-1.2-0.4-1.6,0l-1,0.9c-0.5,0.5-0.5,1.2,0,1.7l1.3,1.3c-0.5,0.8-0.9,1.7-1.1,2.6
				l-1.8,0C398.3,104.6,397.8,105.1,397.8,105.7z M405.2,106.4c0-2,1.7-3.7,3.7-3.7c2.1,0,3.7,1.7,3.7,3.7c0,2-1.7,3.7-3.7,3.7
				C406.9,110.1,405.2,108.4,405.2,106.4z"/>
		</g>
	</g>
	<g>
		<path class="st2" d="M517.1,242.9h-1.8v-2.3h1.8V242.9z M512.3,242.9h-3.1v-2.3h3.1V242.9z M506.1,242.9h-3.1v-2.3h3.1V242.9z
			 M500,242.9H497v-2.3h3.1V242.9z M493.9,242.9h-3.1v-2.3h3.1V242.9z M487.8,242.9h-3.1v-2.3h3.1V242.9z M481.7,242.9h-3.1v-2.3
			h3.1V242.9z M475.6,242.9h-3.1v-2.3h3.1V242.9z M469.5,242.9h-3.1v-2.3h3.1V242.9z M463.4,242.9h-3.1v-2.3h3.1V242.9z
			 M457.3,242.9h-3.1v-2.3h3.1V242.9z"/>
	</g>
</g>
<g class="st0">
	<g class="st1">
		<path class="st2" d="M359.9,71.4h-49.4c-0.9,0-1.6-0.4-1.6-1c0-0.5,0.7-1,1.6-1h49.4c0.9,0,1.5,0.4,1.5,1
			C361.5,70.9,360.8,71.4,359.9,71.4z"/>
	</g>
	<g class="st1">
		<path class="st2" d="M562.3,253.1h-86.2c-1.5,0-2.7-0.4-2.7-1c0-0.5,1.2-1,2.7-1h86.2c1.5,0,2.7,0.4,2.7,1
			C565,252.6,563.8,253.1,562.3,253.1z"/>
	</g>
	<g class="st1">
		<path class="st2" d="M86.1,213.7H59.4c-0.5,0-0.8-0.4-0.8-1c0-0.5,0.4-1,0.8-1h26.7c0.5,0,0.8,0.4,0.8,1
			C87,213.3,86.6,213.7,86.1,213.7z"/>
	</g>
	<g class="st1">
		<path class="st2" d="M87.1,110.7H59.4c-0.5,0-0.9-0.4-0.9-1c0-0.5,0.4-1,0.9-1h27.7c0.5,0,0.9,0.4,0.9,1
			C88,110.2,87.6,110.7,87.1,110.7z"/>
	</g>
	<g class="st1">
		<path class="st2" d="M131.1,91.7l-4.3-4.3l4.3-4.3l4.3,4.3L131.1,91.7z M129.7,87.4l1.4,1.4l1.4-1.4l-1.4-1.4L129.7,87.4z"/>
	</g>
	<g class="st1">
		<path class="st2" d="M215.9,53.3c-1.2,0-2.2-1-2.2-2.2c0-1.2,1-2.2,2.2-2.2c1.2,0,2.2,1,2.2,2.2C218.1,52.3,217.1,53.3,215.9,53.3
			z M215.9,49.7c-0.7,0-1.3,0.6-1.3,1.3c0,0.7,0.6,1.3,1.3,1.3c0.7,0,1.3-0.6,1.3-1.3C217.2,50.3,216.6,49.7,215.9,49.7z"/>
	</g>
	<g class="st1">
		<path class="st2" d="M205.3,252.3c-1.2,0-2.2-1-2.2-2.2c0-1.2,1-2.2,2.2-2.2c1.2,0,2.2,1,2.2,2.2
			C207.5,251.4,206.5,252.3,205.3,252.3z M205.3,248.8c-0.7,0-1.3,0.6-1.3,1.3c0,0.7,0.6,1.3,1.3,1.3c0.7,0,1.3-0.6,1.3-1.3
			C206.7,249.4,206.1,248.8,205.3,248.8z"/>
	</g>
	<text transform="matrix(1 0 0 1 472.2462 227.2185)" class="st3 st10 st15">CSS</text>
	<g class="st1">
		<path class="st8" d="M436.9,195.6c1.8,0,3.3,1.5,3.3,3.3v9.2c0,1.8-1.5,3.3-3.3,3.3h-2.3l-2.2,3.7c-0.8,1.4-2.2,1.4-3.2,0.1
			l-2.6-3.8h-38.1c-1.8,0-3.3-1.5-3.3-3.3v-9.2c0-1.8,1.5-3.3,3.3-3.3H436.9z"/>
		<g>
			<path class="st2" d="M430.8,217.3c-1,0-1.9-0.5-2.5-1.5l-2.2-3.3h-37.5c-2.4,0-4.4-2-4.4-4.4v-9.2c0-2.4,2-4.4,4.4-4.4h48.4
				c2.4,0,4.4,2,4.4,4.4v9.2c0,2.4-2,4.4-4.4,4.4h-1.7l-1.9,3.1C432.7,216.8,431.8,217.3,430.8,217.3z M388.5,196.8
				c-1.2,0-2.1,1-2.1,2.1v9.2c0,1.2,1,2.2,2.1,2.2h38.7l2.9,4.3c0.4,0.6,0.8,0.6,1.2,0l2.6-4.2h2.9c1.2,0,2.1-1,2.1-2.2v-9.2
				c0-1.2-1-2.1-2.1-2.1H388.5z"/>
		</g>
		<path class="st2" d="M420.2,202.8c0,0.8,0.7,1.5,1.5,1.5c0.8,0,1.5-0.7,1.5-1.5c0-0.8-0.7-1.5-1.5-1.5
			C420.9,201.3,420.2,201.9,420.2,202.8z"/>
		<path class="st2" d="M412.1,202.8c0,0.8,0.7,1.5,1.5,1.5c0.8,0,1.5-0.7,1.5-1.5c0-0.8-0.7-1.5-1.5-1.5
			C412.8,201.3,412.1,201.9,412.1,202.8z"/>
		<path class="st2" d="M404,202.8c0,0.8,0.7,1.5,1.5,1.5c0.8,0,1.5-0.7,1.5-1.5c0-0.8-0.7-1.5-1.5-1.5
			C404.7,201.3,404,201.9,404,202.8z"/>
	</g>
</g>
<g class="st0">
	<g class="st1">
		<path class="st2" d="M547.3,103.1h-35.9c-0.6,0-1.1-0.4-1.1-1c0-0.5,0.5-1,1.1-1h35.9c0.6,0,1.1,0.4,1.1,1
			C548.4,102.7,547.9,103.1,547.3,103.1z"/>
	</g>
	<g class="st1">
		<path class="st2" d="M52.3,225.7l-4.3-4.3l4.3-4.3l4.3,4.3L52.3,225.7z M51,221.4l1.4,1.4l1.4-1.4l-1.4-1.4L51,221.4z"/>
	</g>
	<g class="st1">
		<path class="st2" d="M513.8,91c-2,0-3.6-1.6-3.6-3.6c0-2,1.6-3.6,3.6-3.6c2,0,3.6,1.6,3.6,3.6C517.3,89.4,515.7,91,513.8,91z
			 M513.8,85.3c-1.2,0-2.2,1-2.2,2.2c0,1.2,1,2.2,2.2,2.2c1.2,0,2.2-1,2.2-2.2C515.9,86.3,515,85.3,513.8,85.3z"/>
	</g>
	<g class="st1">
		<path class="st2" d="M103.3,184.2c-2,0-3.6-1.6-3.6-3.6c0-2,1.6-3.6,3.6-3.6c2,0,3.6,1.6,3.6,3.6
			C106.9,182.6,105.3,184.2,103.3,184.2z M103.3,178.5c-1.2,0-2.2,1-2.2,2.2c0,1.2,1,2.2,2.2,2.2c1.2,0,2.2-1,2.2-2.2
			C105.4,179.5,104.5,178.5,103.3,178.5z"/>
	</g>
	<g class="st1">
		<path class="st2" d="M468.7,97.2h2.6v-2.7h1.9v2.7h2.6V99h-2.6v2.7h-1.9V99h-2.6V97.2z"/>
	</g>
	<g class="st1">
		<path class="st6" d="M283,61.5c0.1-0.4,0.1-0.8,0.1-1.2c0-5.1-4.1-9.2-9.2-9.2c-1.4,0-2.8,0.3-4,0.9c-2.5-3.3-6.5-5.5-11-5.5
			c-7.6,0-13.8,6.2-13.8,13.8h-4.8c-5.5,0-9.9,4.4-9.9,9.9c0,5.5,4.4,9.9,9.9,9.9h37.8c5.5,0,9.9-4.4,9.9-9.9
			C288.2,66.3,286.1,63.1,283,61.5z"/>
		<path class="st4" d="M230.6,70.1c0,5.5,4.4,9.9,9.9,9.9h37.8c5.5,0,9.9-4.4,9.9-9.9c0-0.2,0-0.3,0-0.5h-57.5
			C230.7,69.8,230.6,69.9,230.6,70.1z"/>
		<g>
			<path class="st2" d="M278.3,81.1h-37.8c-6.1,0-11-4.9-11-11c0-6.1,4.9-11,11-11h3.7c0.6-7.7,7-13.8,14.9-13.8
				c4.4,0,8.5,1.9,11.3,5.2c1.2-0.5,2.4-0.7,3.6-0.7c5.7,0,10.4,4.7,10.4,10.4c0,0.2,0,0.4,0,0.6c3.2,2,5.1,5.5,5.1,9.2
				C289.4,76.2,284.4,81.1,278.3,81.1z M240.5,61.3c-4.8,0-8.7,3.9-8.7,8.7c0,4.8,3.9,8.7,8.7,8.7h37.8c4.8,0,8.7-3.9,8.7-8.7
				c0-3.2-1.8-6.1-4.6-7.6l-0.7-0.4l0.1-1c0-0.3,0.1-0.6,0.1-0.9c0-4.5-3.6-8.1-8.1-8.1c-1.2,0-2.3,0.3-3.5,0.8l-0.8,0.4l-0.6-0.7
				c-2.4-3.2-6.1-5-10-5c-7,0-12.6,5.7-12.6,12.6v1.1H240.5z"/>
		</g>
		<g>
			<path class="st2" d="M265.5,62.7c-0.5,0-0.9-0.3-1.1-0.8c-0.7-2.3-0.5-4.8,0.6-7c1.1-2.2,3-3.8,5.4-4.5c0.6-0.2,1.2,0.1,1.4,0.7
				c0.2,0.6-0.1,1.2-0.7,1.4c-1.7,0.5-3.2,1.7-4,3.4c-0.8,1.6-1,3.5-0.5,5.2c0.2,0.6-0.1,1.2-0.7,1.4
				C265.8,62.7,265.7,62.7,265.5,62.7z"/>
		</g>
		<g>
			<g>
				<path class="st2" d="M258.1,80.6c-0.6,0-1.1-0.5-1.1-1.1V61.3c0-0.6,0.5-1.1,1.1-1.1c0.6,0,1.1,0.5,1.1,1.1v18.1
					C259.3,80,258.8,80.6,258.1,80.6z"/>
			</g>
			<g>
				<path class="st2" d="M264.5,67.6c-0.3,0-0.6-0.1-0.8-0.3l-5.7-5.7l-5.4,5.4c-0.4,0.4-1.2,0.4-1.6,0c-0.4-0.4-0.4-1.2,0-1.6l7-7
					l7.4,7.4c0.4,0.4,0.4,1.2,0,1.6C265.1,67.4,264.8,67.6,264.5,67.6z"/>
			</g>
		</g>
	</g>
	<g class="st1">
		<path class="st6" d="M220.3,165c2.5,0,4.5,2,4.5,4.5v68.3c0,2.5-2,4.5-4.5,4.5H128c-2.5,0-4.5-2-4.5-4.5v-68.3
			c0-2.5,2-4.5,4.5-4.5H220.3z"/>
		<rect x="133.9" y="173.3" class="st8" width="80.6" height="60.6"/>
		<g>
			<path class="st2" d="M220.3,243.4H128c-3.1,0-5.6-2.5-5.6-5.6v-68.3c0-3.1,2.5-5.6,5.6-5.6h92.3c3.1,0,5.6,2.5,5.6,5.6v68.3
				C225.9,240.9,223.4,243.4,220.3,243.4z M128,166.1c-1.8,0-3.3,1.5-3.3,3.3v68.3c0,1.8,1.5,3.3,3.3,3.3h92.3
				c1.8,0,3.3-1.5,3.3-3.3v-68.3c0-1.8-1.5-3.3-3.3-3.3H128z"/>
		</g>
		<g>
			<path class="st2" d="M215.6,235.1h-82.9v-62.9h82.9V235.1z M135,232.8h78.3v-58.3H135V232.8z"/>
		</g>
		<g>
			<rect x="218.2" y="195.8" class="st2" width="2.3" height="15.6"/>
		</g>
		<g>
			<rect x="147.1" y="189.7" class="st2" width="56.1" height="2.3"/>
		</g>
		<g>
			<rect x="147.1" y="202.5" class="st2" width="56.1" height="2.3"/>
		</g>
		<g>
			<rect x="147.1" y="215.2" class="st2" width="56.1" height="2.3"/>
		</g>
	</g>
	<text transform="matrix(1 0 0 1 417.9332 68.0871)" class="st3 st10 st16">PHP</text>
</g>
</svg>
