<?xml version="1.0" encoding="utf-8"?>
<!-- Generator: Adobe Illustrator 19.1.0, SVG Export Plug-In . SVG Version: 6.00 Build 0)  -->
<svg version="1.1" id="Layer_1" xmlns="http://www.w3.org/2000/svg" xmlns:xlink="http://www.w3.org/1999/xlink" x="0px" y="0px"
	 viewBox="0 0 182.5 72.7" style="enable-background:new 0 0 182.5 72.7;" xml:space="preserve">
<style type="text/css">
	.st0{fill:#243842;}
	.st1{fill:#00B48D;}
	.st2{fill:#FFFFFF;}
</style>
<g>
	<path class="st0" d="M101.1,0v44.7h-3.5v-2.3c-3,1.9-6.1,2.9-9.3,2.9c-1.4,0-2.7-0.2-3.7-0.5c-1-0.3-2.1-1-3.2-2.1
		c-2.2-2.1-3.3-6.2-3.3-12.4s0.9-10.5,2.8-13.2c1.9-2.7,5-4,9.4-4c1.7,0,4.1,0.3,7.3,0.8V0H101.1z M86.2,41.5
		c0.7,0.3,1.6,0.4,2.8,0.4c1.1,0,2.5-0.2,3.9-0.7c1.5-0.5,2.7-0.9,3.5-1.3l1.2-0.7V17.1c-3.1-0.5-5.5-0.7-7.2-0.7
		c-3.3,0-5.5,1.1-6.8,3.2c-1.3,2.1-1.9,5.5-1.9,10c0,5.3,0.8,8.7,2.3,10.3C84.7,40.7,85.5,41.3,86.2,41.5z"/>
	<path class="st0" d="M126,41.6l1.7-0.2l0.1,3c-4.4,0.6-8,0.9-11.1,0.9c-4.2,0-7.1-1.4-8.7-4c-1.7-2.6-2.5-6.6-2.5-12
		c0-10.8,4-16.2,11.9-16.2c3.8,0,6.7,1.2,8.6,3.5c1.9,2.3,2.8,6.1,2.8,11.2l-0.1,3h-19.7c0,3.8,0.6,6.6,1.8,8.5s3.3,2.8,6.3,2.8
		S123,41.9,126,41.6z M109.1,27.7h16.3c0-4.1-0.6-7-1.9-8.7c-1.3-1.7-3.3-2.6-6-2.6c-2.8,0-4.9,0.9-6.3,2.7
		C109.8,20.8,109.1,23.7,109.1,27.7z"/>
	<path class="st0" d="M129.9,13.7h3.8l7.2,27.7h2.3l7.5-27.7h3.6l-8.5,31h-7.6L129.9,13.7z"/>
</g>
<g>
	<polyline class="st0" points="182.5,22.6 161.2,10.9 161.2,20.9 182.5,32.6 	"/>
</g>
<g>
	<polyline class="st1" points="161.2,34.6 182.5,22.9 182.5,32.9 161.2,44.6 	"/>
</g>
<g>
	<polyline class="st0" points="49.2,22.6 70.5,10.9 70.5,20.9 49.2,32.6 	"/>
</g>
<g>
	<polyline class="st1" points="70.5,34.6 49.2,22.9 49.2,32.9 70.5,44.6 	"/>
</g>
<g>
	<path class="st0" d="M11.2,10.4c-5.3,0-8,2.2-8,6.5c0,2.6,0.6,4.3,1.8,5.2c1.2,0.9,3.6,1.7,7.1,2.4c3.5,0.7,6.1,1.8,7.6,3.1
		s2.3,3.5,2.3,6.6c0,4-0.9,6.8-2.8,8.6c-1.8,1.8-4.5,2.6-8.1,2.6c-2.6,0-5.6-0.2-9-0.7l-1.8-0.3l0.3-2.8c4.5,0.6,8.1,0.9,10.6,0.9
		c2.5,0,4.4-0.6,5.7-1.9c1.3-1.3,1.9-3.2,1.9-5.7c0-2.5-0.6-4.2-1.7-5.1s-3-1.6-5.5-2.1c-2.5-0.5-4.3-0.9-5.5-1.4
		c-1.2-0.4-2.2-1-3.3-1.8c-1-0.8-1.7-1.7-2.2-2.9C0.2,20.5,0,19,0,17.2c0-6.5,3.7-9.7,11-9.7c2.2,0,5,0.2,8.6,0.7l1.6,0.3l-0.2,2.8
		C16.3,10.7,13.1,10.4,11.2,10.4z"/>
	<path class="st0" d="M46.9,44.5c-3.4,0.7-6.3,1.1-8.8,1.1c-2.4,0-4.4-0.3-5.9-0.8c-1.5-0.5-2.7-1.3-3.6-2.3c-0.9-1-1.7-2.3-2.2-3.9
		c-1-2.9-1.5-6.9-1.5-11.9c0-8,1.2-13.3,3.6-15.9c2-2.2,4.9-3.2,9-3.2c2.8,0,5.9,0.4,9.4,1.1l-0.1,2.9c-3.5-0.7-6.2-1-8.3-1
		c-2.1,0-3.7,0.2-4.9,0.7c-1.1,0.5-2.1,1.1-2.8,1.9c-0.7,0.8-1.3,1.9-1.6,3.3c-0.7,2.4-1,5.4-1,9.1c0,3.6,0.1,6.3,0.3,8.1
		c0.2,1.8,0.7,3.4,1.3,4.9c0.7,1.5,1.6,2.5,2.9,3.1c1.3,0.6,3.1,1,5.4,1c2.3,0,5.1-0.3,8.6-1L46.9,44.5z"/>
</g>
<g>
	<rect x="124.9" y="52.1" class="st0" width="57.6" height="20.7"/>
</g>
<g>
	<path class="st2" d="M140.6,59.2c0,1.4-0.6,2.7-2.4,4.3l-3.8,3.3c0.7,0,1.3-0.1,1.9-0.1h4.8v1.6h-9v-1c0-0.3,0.1-0.5,0.2-0.7
		l4.1-3.6c1.8-1.5,2.6-2.7,2.5-3.7c-0.1-1-1.1-1.1-2.7-1.1c-1.3,0-2.2,0-4,0.2l-0.1-1.3c1.9-0.3,3-0.4,4.2-0.4
		C139,56.7,140.6,57.1,140.6,59.2z"/>
	<path class="st2" d="M154.2,62.6c0,4.2-1.2,5.9-4.7,5.9c-3.5,0-4.7-1.7-4.7-5.9s1.2-5.9,4.7-5.9C153,56.7,154.2,58.4,154.2,62.6z
		 M146.3,62.6c0,3.3,0.8,4.5,3.1,4.5c2.4,0,3.2-1.2,3.2-4.5s-0.8-4.5-3.2-4.5C147.1,58.1,146.3,59.3,146.3,62.6z"/>
	<path class="st2" d="M160.9,68.4v-8.9c0-0.3,0-0.7,0.1-1l-3.4,0.8l-0.2-1.2l3.6-1.2h1.6v11.4H160.9z"/>
	<path class="st2" d="M176.3,64.6c0,2.4-0.6,3.9-4.3,3.9c-3.9,0-4.6-1.3-4.6-5.7c0-5.3,1.7-6.1,5.3-6.1c0.5,0,1.6,0,2.7,0.2
		l-0.2,1.2c-0.9,0-1.4,0-2.6,0c-2.7,0-3.6,0.5-3.8,4c1-1,2-1.3,3.6-1.3C175.4,60.9,176.3,61.9,176.3,64.6z M174.7,64.6
		c0-1.7-0.6-2.4-2.7-2.4c-1.2,0-2,0.2-3.2,1.1c0,3,0.4,3.8,3.1,3.8C174.4,67.1,174.7,66.3,174.7,64.6z"/>
</g>
<g>
	<path class="st1" d="M17.4,57.9L17,61.2h-6.8c-2.7,0-3.3,0-3.3,0.5c0,0.4,0.6,0.5,2.3,0.8l4.5,0.9c3,0.7,4.4,1.8,4.4,4.4
		c0,3.7-2.4,4.7-8.1,4.7c-1.4,0-4.6-0.1-8.1-0.6l0.4-3.4h6.1c3.6,0,4.4,0,4.4-0.6c0-0.5-0.7-0.5-2.5-0.9l-4.4-0.9
		c-3.4-0.9-4.3-2.4-4.3-4.7c0-2.7,2-4.2,7.6-4.2C11.7,57.2,15.2,57.5,17.4,57.9z"/>
	<path class="st1" d="M36.3,72.2H32l-0.4-2.1c-2.4,1.7-4.7,2.5-7.3,2.5c-3.3,0-5-1.4-5-4.1v-11h5.5v9.1c0,0.8,0.5,1.1,1.9,1.1
		c1.2,0,2.4-0.1,4.1-0.6v-9.6h5.6V72.2z"/>
	<path class="st1" d="M65.8,61.3v10.9h-5.5v-9.1c0-0.8-0.4-1.1-1.8-1.1c-1,0-1.9,0.1-3.6,0.6v9.5h-5.3v-9.1c0-0.8-0.5-1.1-1.8-1.1
		c-1.1,0-1.9,0.1-3.6,0.6v9.5h-5.5V57.6H43l0.4,2.1c2.2-1.7,4.2-2.5,6.7-2.5c2.4,0,3.9,0.8,4.5,2.3c2.1-1.6,4-2.3,6.4-2.3
		C64.1,57.2,65.8,58.6,65.8,61.3z"/>
	<path class="st1" d="M95.1,61.3v10.9h-5.5v-9.1c0-0.8-0.4-1.1-1.8-1.1c-1,0-1.9,0.1-3.6,0.6v9.5h-5.3v-9.1c0-0.8-0.5-1.1-1.8-1.1
		c-1.1,0-1.9,0.1-3.6,0.6v9.5h-5.5V57.6h4.4l0.4,2.1c2.2-1.7,4.2-2.5,6.7-2.5c2.4,0,3.9,0.8,4.5,2.3c2.1-1.6,4-2.3,6.4-2.3
		C93.4,57.2,95.1,58.6,95.1,61.3z"/>
	<path class="st1" d="M101.2,51c1.1,0,1.6,0.6,1.6,1.7v1.5c0,1.2-0.5,1.7-1.6,1.7h-2.4c-1.1,0-1.6-0.5-1.6-1.7v-1.5
		c0-1.1,0.5-1.7,1.6-1.7H101.2z M97.2,72.2V57.6h5.5v14.6H97.2z"/>
	<path class="st1" d="M112.2,67c0,0.8,0.5,1.1,1.9,1.1h2.2l0.6,3.7c-1.3,0.5-3.8,0.7-5.1,0.7c-3.2,0-5.1-1.5-5.1-4.1v-7.3h-3.1v-3.4
		l3.1-0.1v-3.9h5.5v3.9h4.8v3.5h-4.8V67z"/>
</g>
</svg>
