<?xml version="1.0" encoding="utf-8"?>
<!-- Generator: Adobe Illustrator 19.1.0, SVG Export Plug-In . SVG Version: 6.00 Build 0)  -->
<svg version="1.1" id="Layer_1" xmlns="http://www.w3.org/2000/svg" xmlns:xlink="http://www.w3.org/1999/xlink" x="0px" y="0px"
	 viewBox="0 0 503.3 114.8" style="enable-background:new 0 0 503.3 114.8;" xml:space="preserve">
<style type="text/css">
	.st0{fill-rule:evenodd;clip-rule:evenodd;}
</style>
<g>
	<path class="st0" d="M191,40.2V60c0,0.2,0,0.4,0.1,0.6c0.1,0.1,0.5,0.1,0.5,0.1h20.1c2.9,0,5.4-0.8,7.4-3.1c1.8-2,2.5-4.5,2.5-7.2
		c0-2.8-0.8-5.1-2.6-7.2c-2.1-2.3-4.7-3.1-7.7-3.1H191L191,40.2z M191,28.8h19c2.5,0,4.7-0.7,6.4-2.7c1.5-1.7,2.2-3.7,2.2-6
		s-0.6-4.3-2.2-6c-1.7-1.9-3.9-2.6-6.4-2.6h-18.3c-0.1,0-0.5,0-0.5,0.1c-0.1,0.2-0.1,0.5-0.1,0.7V28.8L191,28.8z M225.3,33.6
		c1.8,1.4,3.4,3,4.6,4.8c2.6,3.6,3.7,7.7,3.7,12c0,5.6-1.7,10.7-5.5,14.8c-4.3,4.8-10,6.9-16.3,6.9h-21.1c-3.5,0-6.6-1.2-8.9-3.8
		c-1.9-2.3-2.8-5-2.8-8V11.9c0-3,0.9-5.8,2.8-8.1c2.3-2.6,5.4-3.8,8.9-3.8h19.8c5.9,0,11,1.9,15,6.4c3.5,3.9,5.1,8.6,5.1,13.8
		c0,3.4-0.7,6.6-2.5,9.5C227.4,31.2,226.4,32.5,225.3,33.6L225.3,33.6z"/>
	<path class="st0" d="M127.7,29.2h29.1c1.6,0,3.1,0.5,4.3,1.5l0.1,0.1l0.1,0.1c1.1,1.1,1.7,2.5,1.7,4.1c0,1.5-0.6,2.9-1.7,4
		c-1.2,1.2-2.8,1.8-4.4,1.8h-29.1V60c0,0.2,0,0.4,0.1,0.6c0.1,0.1,0.5,0.1,0.5,0.1h32.7c1.6,0,3.1,0.5,4.3,1.5l0.1,0.1l0.1,0.1
		c1.1,1.1,1.7,2.5,1.7,4.1c0,1.5-0.6,2.9-1.7,4c-1.2,1.2-2.8,1.8-4.4,1.8h-33.7c-3.4,0-6.6-1.2-8.9-3.8c-1.9-2.3-2.8-5-2.8-8V11.9
		c0-3,0.9-5.8,2.8-8.1c2.3-2.6,5.4-3.8,8.9-3.8h32.6c1.6,0,3,0.5,4.2,1.5l0.1,0.1l0.1,0.1c1.1,1.1,1.7,2.5,1.7,4.1
		c0,1.5-0.6,2.9-1.7,4c-1.2,1.2-2.7,1.8-4.3,1.8h-31.6c-0.1,0-0.5,0-0.5,0.1c-0.1,0.2-0.1,0.5-0.1,0.7V29.2L127.7,29.2z"/>
	<path class="st0" d="M435.2,1.5c1.5,1.1,2.2,2.8,2.2,4.6v39.2c0,6.7-1.8,12.9-6.2,18c-5.1,6.1-12.1,8.5-19.8,8.5
		c-7.8,0-14.8-2.4-19.9-8.5c-4.4-5.1-6.2-11.3-6.2-18V6.4c0-1.8,0.6-3.4,1.9-4.6l0,0l0,0c1.2-1,2.7-1.6,4.3-1.6c1.4,0,2.8,0.5,4,1.3
		l0.1,0.1l0.1,0.1c1.4,1.2,2,2.9,2,4.8v38.9c0,3.7,0.8,7.2,3.2,10.1c2.7,3.3,6.4,4.4,10.5,4.4c4.1,0,7.8-1.1,10.4-4.4
		c2.4-2.9,3.2-6.4,3.2-10.1V5.9c0-1.7,0.7-3.3,2-4.5l0.2-0.2l0.2-0.1c1.1-0.7,2.5-1.1,3.8-1.1C432.7,0,434.1,0.5,435.2,1.5
		L435.2,1.5z"/>
	<path class="st0" d="M261.5,27.6h28.9V6.4c0-1.8,0.6-3.5,1.9-4.7l0,0l0,0c1.2-1,2.7-1.6,4.3-1.6c1.6,0,3,0.6,4.2,1.6
		c1.4,1.2,2,2.9,2,4.8v59c0,1.8-0.7,3.5-2.1,4.7c-1.2,1-2.6,1.6-4.1,1.6c-1.6,0-3.1-0.6-4.3-1.7l0,0l0,0c-1.2-1.2-1.8-2.9-1.8-4.6
		V39.6h-28.9v25.8c0,1.8-0.7,3.5-2.1,4.7c-1.2,1-2.6,1.6-4.1,1.6c-1.6,0-3.1-0.6-4.3-1.7l0,0l0,0c-1.2-1.2-1.8-2.9-1.8-4.6v-59
		c0-1.8,0.6-3.5,1.9-4.7l0,0l0,0c1.2-1,2.7-1.6,4.3-1.6c1.5,0,3,0.6,4.2,1.6c1.4,1.2,2,2.9,2,4.8V27.6L261.5,27.6z"/>
	<path class="st0" d="M333.1,50l-6.2,17.2c-0.6,1.5-1.6,2.9-3.1,3.7l-0.2,0.1l-0.2,0.1c-1.5,0.6-3.1,0.7-4.6,0.2
		c-1.6-0.5-2.8-1.6-3.5-3.2c-0.7-1.6-0.8-3.4-0.2-5l20.8-56.9c0.6-1.8,1.7-3.4,3.3-4.6c1.4-1,3.1-1.6,4.8-1.6c1.8,0,3.5,0.5,5,1.6
		c1.6,1.2,2.6,2.8,3.3,4.6L372.9,63c0.7,1.7,0.8,3.6,0,5.3c-0.8,1.5-2,2.6-3.6,3.2c-1.6,0.6-3.3,0.4-4.8-0.4
		c-1.5-0.8-2.6-2.1-3.2-3.7l-6.8-18.6L344,20.2L333.1,50L333.1,50L333.1,50z"/>
	<path class="st0" d="M53.6,0.1c0.7,0.1,1.4,0.2,2,0.5l0.2,0.1L56,0.8c1.5,0.8,2.5,2.2,3.1,3.7l6.2,17.2h0l10.9,29.8l10.4-28.5
		l6.8-18.6c0.6-1.6,1.7-2.9,3.2-3.7c1.5-0.8,3.2-1,4.8-0.4c1.6,0.5,2.8,1.7,3.6,3.2c0.8,1.7,0.8,3.5,0,5.2L84.5,65.4
		c-0.6,1.8-1.7,3.5-3.3,4.7c-1.5,1.1-3.2,1.6-5,1.6c-1.8,0-3.4-0.6-4.9-1.6c-1.5-1.2-2.6-2.8-3.2-4.6L52.8,23.6L37.5,65.4
		c-0.6,1.8-1.7,3.5-3.3,4.7c-1.5,1.1-3.2,1.6-5,1.6c-1.8,0-3.4-0.6-4.9-1.6c-1.5-1.2-2.6-2.8-3.2-4.6L0.4,8.6
		c-0.5-1.6-0.5-3.4,0.2-5c0.7-1.5,2-2.6,3.5-3.2C5.7-0.1,7.3,0,8.7,0.6l0.2,0.1l0.2,0.1c1.5,0.8,2.5,2.2,3.1,3.7l6.2,17.2h0
		l10.9,29.8l10.4-28.5l6.8-18.6c0.6-1.6,1.7-2.9,3.2-3.7C50.9,0.1,52.3-0.2,53.6,0.1L53.6,0.1z"/>
	<path class="st0" d="M478.7,28.6c-7.1-1.6-14.5-3-14.5-11.6c0-11.1,25.6-11.7,26.7,2.7c0.2,1.7,0.9,3.4,2.2,4.5
		c1.3,1.1,2.9,1.7,4.6,1.5c1.5-0.1,2.9-0.7,3.9-1.8c1.4-1.4,2-3.2,1.7-5.2c-2.5-29.2-51.6-28.9-51.6-1.3c0,14.9,11.4,19.6,23.6,22.5
		c7.1,1.6,14.5,3,14.5,11.6c0,11.1-25.6,11.7-26.7-2.7c-0.2-1.7-0.9-3.4-2.2-4.5c-1.3-1.1-2.9-1.7-4.6-1.5c-1.5,0.1-2.9,0.7-3.9,1.8
		c-1.4,1.4-2,3.2-1.7,5.2c2.5,29.2,51.6,28.9,51.6,1.3C502.3,36.2,491,31.5,478.7,28.6L478.7,28.6z"/>
	<path d="M66.6,99.5c0,0.9-0.1,1.7-0.4,2.4c-0.3,0.7-0.7,1.4-1.3,1.9c-0.6,0.5-1.3,1-2.1,1.3c-0.9,0.3-1.9,0.5-3,0.5h-1.6v5.4h-3.2
		V94.2h4.9c1.1,0,2.1,0.1,2.9,0.4c0.8,0.2,1.5,0.6,2.1,1c0.6,0.5,1,1,1.3,1.7C66.5,97.9,66.6,98.7,66.6,99.5L66.6,99.5z M63.3,99.8
		c0-0.4-0.1-0.8-0.2-1.2c-0.1-0.4-0.4-0.7-0.6-0.9c-0.3-0.3-0.7-0.5-1.1-0.6c-0.4-0.1-1-0.2-1.6-0.2h-1.7v6.2h1.8
		c0.5,0,1-0.1,1.5-0.2c0.4-0.2,0.8-0.4,1.1-0.6c0.3-0.3,0.5-0.6,0.7-1C63.2,100.7,63.3,100.2,63.3,99.8L63.3,99.8z M85.1,111
		l-2.4-5.4c-0.2-0.5-0.5-0.9-0.9-1.2c-0.4-0.3-0.9-0.4-1.4-0.4h-0.6v7h-3.2V94.2h4.9c0.9,0,1.8,0.1,2.5,0.2c0.8,0.2,1.4,0.4,1.9,0.8
		c0.5,0.4,0.9,0.9,1.2,1.4c0.3,0.6,0.4,1.3,0.4,2.2c0,0.6-0.1,1.2-0.3,1.6c-0.2,0.5-0.4,0.9-0.8,1.2c-0.3,0.3-0.7,0.6-1.2,0.8
		c-0.4,0.2-0.9,0.4-1.5,0.5c0.4,0.1,0.8,0.3,1.1,0.7c0.3,0.4,0.7,0.9,1,1.7l2.7,5.6H85.1L85.1,111z M84.4,99.1
		c0-0.8-0.3-1.4-0.8-1.8c-0.5-0.4-1.3-0.5-2.4-0.5h-1.4v4.8h1.3c0.5,0,0.9-0.1,1.3-0.2c0.4-0.1,0.7-0.3,1-0.5
		c0.3-0.2,0.5-0.5,0.7-0.8C84.3,99.9,84.4,99.5,84.4,99.1L84.4,99.1z M110.8,102.5c0,1.5-0.2,2.8-0.5,4c-0.4,1.1-0.8,2-1.5,2.7
		c-0.6,0.7-1.4,1.2-2.2,1.6c-0.8,0.3-1.7,0.5-2.7,0.5c-2.2,0-3.9-0.7-5-2.2c-1.1-1.5-1.7-3.6-1.7-6.4c0-1.5,0.2-2.8,0.5-3.9
		c0.4-1.1,0.8-2,1.5-2.7c0.6-0.7,1.4-1.2,2.2-1.6c0.8-0.3,1.7-0.5,2.7-0.5c2.2,0,3.9,0.7,5,2.2C110.3,97.6,110.8,99.7,110.8,102.5
		L110.8,102.5z M107.5,102.7c0-2-0.3-3.5-0.8-4.4c-0.5-1-1.4-1.5-2.6-1.5c-0.6,0-1.1,0.1-1.6,0.4c-0.4,0.3-0.8,0.6-1.1,1.1
		c-0.3,0.5-0.5,1.1-0.6,1.8c-0.1,0.7-0.2,1.5-0.2,2.5c0,2,0.3,3.5,0.8,4.5c0.5,1,1.4,1.5,2.6,1.5c0.6,0,1.1-0.1,1.6-0.4
		c0.4-0.3,0.8-0.6,1.1-1.1c0.3-0.5,0.5-1.1,0.6-1.8C107.4,104.4,107.5,103.6,107.5,102.7L107.5,102.7z M128,111h-4.2l-5.1-16.8h3.6
		l2.8,10.1l0.9,3.3l1-3.5l2.8-9.9h3.4L128,111L128,111z M142.8,111V94.2h10.1v2.7H146v4.2h6.6v2.6H146v4.7h6.9v2.7H142.8L142.8,111z
		 M176.1,102.4c0,1.3-0.2,2.5-0.5,3.5c-0.3,1.1-0.8,2-1.5,2.7c-0.7,0.8-1.6,1.3-2.6,1.7c-1.1,0.4-2.3,0.6-3.8,0.6h-4.3V94.2h5
		c1.3,0,2.4,0.2,3.4,0.5c1,0.3,1.8,0.8,2.4,1.5c0.6,0.7,1.1,1.5,1.4,2.5C175.9,99.7,176.1,101,176.1,102.4L176.1,102.4z
		 M172.7,102.6c0-0.9-0.1-1.7-0.2-2.4c-0.1-0.7-0.4-1.3-0.7-1.8c-0.3-0.5-0.8-0.9-1.4-1.1c-0.6-0.3-1.3-0.4-2.2-0.4h-1.6v11.5h1.4
		c1.6,0,2.7-0.5,3.5-1.4C172.3,106,172.7,104.6,172.7,102.6L172.7,102.6z M198.1,102.5c0,1.5-0.2,2.8-0.5,4c-0.4,1.1-0.8,2-1.5,2.7
		c-0.6,0.7-1.4,1.2-2.2,1.6c-0.8,0.3-1.7,0.5-2.7,0.5c-2.2,0-3.9-0.7-5-2.2c-1.1-1.5-1.7-3.6-1.7-6.4c0-1.5,0.2-2.8,0.5-3.9
		c0.4-1.1,0.8-2,1.5-2.7c0.6-0.7,1.4-1.2,2.2-1.6c0.8-0.3,1.7-0.5,2.7-0.5c2.2,0,3.9,0.7,5,2.2C197.5,97.6,198.1,99.7,198.1,102.5
		L198.1,102.5z M194.8,102.7c0-2-0.3-3.5-0.8-4.4c-0.5-1-1.4-1.5-2.6-1.5c-0.6,0-1.1,0.1-1.6,0.4c-0.4,0.3-0.8,0.6-1.1,1.1
		c-0.3,0.5-0.5,1.1-0.6,1.8c-0.1,0.7-0.2,1.5-0.2,2.5c0,2,0.3,3.5,0.8,4.5c0.5,1,1.4,1.5,2.6,1.5c0.6,0,1.1-0.1,1.6-0.4
		c0.4-0.3,0.8-0.6,1.1-1.1c0.3-0.5,0.5-1.1,0.6-1.8C194.7,104.4,194.8,103.6,194.8,102.7L194.8,102.7z M216,111l-2.4-5.4
		c-0.2-0.5-0.5-0.9-0.9-1.2c-0.4-0.3-0.9-0.4-1.4-0.4h-0.6v7h-3.2V94.2h4.9c0.9,0,1.8,0.1,2.5,0.2c0.8,0.2,1.4,0.4,1.9,0.8
		c0.5,0.4,0.9,0.9,1.2,1.4c0.3,0.6,0.4,1.3,0.4,2.2c0,0.6-0.1,1.2-0.3,1.6c-0.2,0.5-0.4,0.9-0.8,1.2c-0.3,0.3-0.7,0.6-1.2,0.8
		c-0.4,0.2-0.9,0.4-1.5,0.5c0.4,0.1,0.8,0.3,1.1,0.7c0.3,0.4,0.7,0.9,1,1.7l2.7,5.6H216L216,111z M215.3,99.1c0-0.8-0.3-1.4-0.8-1.8
		c-0.5-0.4-1.3-0.5-2.4-0.5h-1.4v4.8h1.3c0.5,0,0.9-0.1,1.3-0.2c0.4-0.1,0.7-0.3,1-0.5c0.3-0.2,0.5-0.5,0.7-0.8
		C215.2,99.9,215.3,99.5,215.3,99.1L215.3,99.1z M256,102.4c0,1.3-0.2,2.5-0.5,3.5c-0.3,1.1-0.8,2-1.5,2.7c-0.7,0.8-1.6,1.3-2.6,1.7
		c-1.1,0.4-2.3,0.6-3.8,0.6h-4.3V94.2h5c1.3,0,2.4,0.2,3.4,0.5c1,0.3,1.8,0.8,2.4,1.5c0.6,0.7,1.1,1.5,1.5,2.5
		C255.8,99.7,256,101,256,102.4L256,102.4z M252.6,102.6c0-0.9-0.1-1.7-0.2-2.4c-0.1-0.7-0.4-1.3-0.7-1.8c-0.3-0.5-0.8-0.9-1.4-1.1
		c-0.6-0.3-1.3-0.4-2.2-0.4h-1.6v11.5h1.4c1.6,0,2.7-0.5,3.5-1.4C252.2,106,252.6,104.6,252.6,102.6L252.6,102.6z M266.4,111V94.2
		h10.1v2.7h-6.9v4.2h6.6v2.6h-6.6v4.7h6.9v2.7H266.4L266.4,111z M313.4,105.9c0,0.9-0.2,1.7-0.5,2.4c-0.3,0.7-0.8,1.2-1.4,1.7
		c-0.6,0.4-1.3,0.8-2.2,1c-0.8,0.2-1.8,0.3-2.8,0.3c-0.9,0-1.7,0-2.6-0.2c-0.8-0.1-1.6-0.3-2.4-0.5v-3.1c0.4,0.1,0.8,0.3,1.2,0.4
		c0.4,0.1,0.9,0.2,1.3,0.3c0.4,0.1,0.9,0.2,1.3,0.2c0.4,0.1,0.8,0.1,1.2,0.1c0.6,0,1.1-0.1,1.5-0.2c0.4-0.1,0.8-0.2,1-0.4
		c0.3-0.2,0.5-0.4,0.6-0.6c0.1-0.2,0.2-0.5,0.2-0.8c0-0.4-0.1-0.8-0.4-1c-0.2-0.3-0.5-0.5-0.9-0.7c-0.4-0.2-0.8-0.4-1.3-0.6
		c-0.5-0.2-1-0.4-1.5-0.6c-0.5-0.2-1-0.4-1.5-0.7c-0.5-0.2-0.9-0.6-1.3-0.9c-0.4-0.4-0.7-0.8-0.9-1.3c-0.2-0.5-0.4-1.1-0.4-1.8
		c0-0.7,0.1-1.3,0.4-1.9c0.2-0.6,0.6-1.1,1.1-1.5c0.5-0.4,1.2-0.8,2-1.1c0.8-0.3,1.8-0.4,2.9-0.4c0.3,0,0.7,0,1,0
		c0.4,0,0.7,0.1,1.1,0.1c0.4,0,0.7,0.1,1,0.2c0.3,0.1,0.6,0.1,0.9,0.2v2.9c-0.3-0.1-0.6-0.2-0.9-0.3c-0.3-0.1-0.7-0.2-1-0.2
		c-0.3-0.1-0.7-0.1-1-0.1c-0.4,0-0.7,0-1,0c-0.6,0-1,0-1.4,0.1c-0.4,0.1-0.7,0.2-0.9,0.4c-0.3,0.2-0.4,0.4-0.5,0.6
		c-0.1,0.2-0.2,0.5-0.2,0.8c0,0.4,0.1,0.7,0.4,0.9c0.2,0.3,0.6,0.5,0.9,0.7c0.4,0.2,0.8,0.4,1.3,0.6c0.5,0.2,1,0.4,1.5,0.6
		c0.5,0.2,1,0.4,1.5,0.7c0.5,0.3,0.9,0.6,1.3,0.9c0.4,0.4,0.7,0.8,0.9,1.3C313.3,104.6,313.4,105.2,313.4,105.9L313.4,105.9z
		 M336.1,102.5c0,1.5-0.2,2.8-0.5,4c-0.4,1.1-0.8,2-1.5,2.7c-0.6,0.7-1.3,1.2-2.2,1.6c-0.8,0.3-1.7,0.5-2.7,0.5
		c-2.2,0-3.9-0.7-5-2.2c-1.1-1.5-1.7-3.6-1.7-6.4c0-1.5,0.2-2.8,0.5-3.9c0.4-1.1,0.8-2,1.5-2.7c0.6-0.7,1.4-1.2,2.2-1.6
		c0.8-0.3,1.7-0.5,2.7-0.5c2.2,0,3.9,0.7,5,2.2C335.6,97.6,336.1,99.7,336.1,102.5L336.1,102.5z M332.8,102.7c0-2-0.3-3.5-0.8-4.4
		c-0.5-1-1.4-1.5-2.6-1.5c-0.6,0-1.1,0.1-1.6,0.4c-0.4,0.3-0.8,0.6-1.1,1.1c-0.3,0.5-0.5,1.1-0.6,1.8c-0.1,0.7-0.2,1.5-0.2,2.5
		c0,2,0.3,3.5,0.8,4.5c0.5,1,1.4,1.5,2.6,1.5c0.6,0,1.1-0.1,1.6-0.4c0.4-0.3,0.8-0.6,1.1-1.1c0.3-0.5,0.5-1.1,0.6-1.8
		C332.7,104.4,332.8,103.6,332.8,102.7L332.8,102.7z M346.5,111V94.2h3.2v14.1h7.1v2.7H346.5L346.5,111z M379.1,104.8
		c0,1.1-0.1,2-0.4,2.8c-0.3,0.8-0.7,1.5-1.2,2c-0.5,0.5-1.2,0.9-2,1.2c-0.8,0.3-1.6,0.4-2.6,0.4c-1.1,0-2-0.1-2.8-0.4
		c-0.8-0.3-1.4-0.7-1.9-1.2c-0.5-0.5-0.8-1.1-1-1.9c-0.2-0.7-0.3-1.6-0.3-2.5V94.2h3.2v11c0,0.6,0,1.1,0.1,1.5
		c0.1,0.4,0.3,0.8,0.5,1.1c0.2,0.3,0.6,0.5,0.9,0.7c0.4,0.2,0.8,0.2,1.4,0.2c0.5,0,1-0.1,1.3-0.2c0.4-0.1,0.7-0.3,0.9-0.6
		c0.2-0.3,0.4-0.7,0.5-1.1c0.1-0.5,0.2-1,0.2-1.7V94.2h3.2V104.8L379.1,104.8z M394,111c-0.5-0.1-1.1-0.3-1.8-0.6
		c-0.7-0.3-1.3-0.8-1.8-1.5c-0.5-0.7-1-1.5-1.3-2.5c-0.3-1-0.5-2.2-0.5-3.5c0-1.4,0.2-2.7,0.5-3.8c0.4-1.1,0.9-2,1.5-2.8
		c0.7-0.8,1.5-1.3,2.4-1.7c1-0.4,2-0.6,3.2-0.6c0.4,0,0.7,0,1.1,0c0.3,0,0.7,0,1,0.1c0.3,0,0.7,0.1,1,0.2c0.3,0.1,0.7,0.2,1,0.3v3.1
		c-0.7-0.3-1.4-0.6-2.1-0.7c-0.7-0.1-1.3-0.2-1.8-0.2c-0.8,0-1.5,0.1-2,0.4c-0.6,0.3-1,0.7-1.4,1.2c-0.4,0.5-0.6,1.1-0.8,1.9
		c-0.2,0.7-0.3,1.5-0.3,2.4c0,0.9,0.1,1.7,0.3,2.4c0.2,0.7,0.4,1.3,0.8,1.8c0.4,0.5,0.8,0.9,1.4,1.1c0.6,0.3,1.3,0.4,2,0.4
		c0.3,0,0.6,0,0.9-0.1c0.3-0.1,0.7-0.1,1-0.2c0.3-0.1,0.7-0.2,1-0.3c0.3-0.1,0.6-0.3,0.9-0.4v3c-0.7,0.3-1.4,0.5-2,0.6
		c-0.6,0.1-1.1,0.2-1.6,0.2l-1.3,3.6h-2.3L394,111L394,111z M423.4,102.5c0,1.5-0.2,2.8-0.5,4c-0.4,1.1-0.8,2-1.5,2.7
		c-0.6,0.7-1.4,1.2-2.2,1.6c-0.8,0.3-1.7,0.5-2.7,0.5c-2.2,0-3.9-0.7-5-2.2c-1.1-1.5-1.7-3.6-1.7-6.4c0-1.5,0.2-2.8,0.5-3.9
		c0.4-1.1,0.8-2,1.5-2.7c0.6-0.7,1.4-1.2,2.2-1.6c0.8-0.3,1.7-0.5,2.7-0.5c2.2,0,3.9,0.7,5,2.2C422.8,97.6,423.4,99.7,423.4,102.5
		L423.4,102.5z M420.1,102.7c0-2-0.3-3.5-0.8-4.4c-0.5-1-1.4-1.5-2.6-1.5c-0.6,0-1.1,0.1-1.6,0.4c-0.4,0.3-0.8,0.6-1.1,1.1
		c-0.3,0.5-0.5,1.1-0.6,1.8c-0.1,0.7-0.2,1.5-0.2,2.5c0,2,0.3,3.5,0.8,4.5c0.5,1,1.4,1.5,2.6,1.5c0.6,0,1.1-0.1,1.6-0.4
		c0.4-0.3,0.8-0.6,1.1-1.1c0.3-0.5,0.5-1.1,0.6-1.8C420,104.4,420.1,103.6,420.1,102.7L420.1,102.7z M421.5,90.7
		c-0.4,0.7-0.8,1.2-1.3,1.5c-0.5,0.3-1.1,0.5-1.8,0.5c-0.5,0-0.9-0.1-1.3-0.2c-0.3-0.1-0.7-0.3-0.9-0.5c-0.3-0.2-0.5-0.3-0.8-0.5
		c-0.2-0.1-0.5-0.2-0.8-0.2c-0.3,0-0.6,0.1-0.8,0.3c-0.2,0.2-0.5,0.5-0.7,0.9l-1.4-1.3c0.4-0.7,0.8-1.2,1.3-1.5
		c0.5-0.3,1.1-0.5,1.8-0.5c0.5,0,0.9,0.1,1.3,0.2c0.3,0.1,0.7,0.3,0.9,0.5c0.3,0.2,0.5,0.3,0.8,0.5c0.2,0.1,0.5,0.2,0.8,0.2
		c0.3,0,0.6-0.1,0.8-0.3c0.2-0.2,0.5-0.5,0.7-0.9L421.5,90.7L421.5,90.7z M433.6,111V94.2h10.1v2.7h-6.9v4.2h6.6v2.6h-6.6v4.7h6.9
		v2.7H433.6L433.6,111z M466.1,105.9c0,0.9-0.2,1.7-0.5,2.4c-0.3,0.7-0.8,1.2-1.4,1.7c-0.6,0.4-1.3,0.8-2.2,1
		c-0.8,0.2-1.8,0.3-2.8,0.3c-0.9,0-1.7,0-2.6-0.2c-0.8-0.1-1.6-0.3-2.4-0.5v-3.1c0.4,0.1,0.8,0.3,1.2,0.4c0.4,0.1,0.9,0.2,1.3,0.3
		c0.4,0.1,0.9,0.2,1.3,0.2c0.4,0.1,0.8,0.1,1.2,0.1c0.6,0,1.1-0.1,1.5-0.2c0.4-0.1,0.8-0.2,1-0.4c0.3-0.2,0.5-0.4,0.6-0.6
		c0.1-0.2,0.2-0.5,0.2-0.8c0-0.4-0.1-0.8-0.4-1c-0.2-0.3-0.5-0.5-0.9-0.7c-0.4-0.2-0.8-0.4-1.3-0.6c-0.5-0.2-1-0.4-1.5-0.6
		c-0.5-0.2-1-0.4-1.5-0.7c-0.5-0.2-0.9-0.6-1.3-0.9c-0.4-0.4-0.7-0.8-0.9-1.3c-0.2-0.5-0.4-1.1-0.4-1.8c0-0.7,0.1-1.3,0.4-1.9
		c0.2-0.6,0.6-1.1,1.1-1.5c0.5-0.4,1.2-0.8,2-1.1c0.8-0.3,1.8-0.4,2.9-0.4c0.3,0,0.7,0,1,0c0.4,0,0.7,0.1,1.1,0.1
		c0.4,0,0.7,0.1,1,0.2c0.3,0.1,0.6,0.1,0.9,0.2v2.9c-0.3-0.1-0.6-0.2-0.9-0.3c-0.3-0.1-0.7-0.2-1-0.2c-0.3-0.1-0.7-0.1-1-0.1
		c-0.4,0-0.7,0-1,0c-0.6,0-1,0-1.4,0.1c-0.4,0.1-0.7,0.2-0.9,0.4c-0.3,0.2-0.4,0.4-0.5,0.6c-0.1,0.2-0.2,0.5-0.2,0.8
		c0,0.4,0.1,0.7,0.4,0.9c0.2,0.3,0.5,0.5,0.9,0.7c0.4,0.2,0.8,0.4,1.3,0.6c0.5,0.2,1,0.4,1.5,0.6c0.5,0.2,1,0.4,1.5,0.7
		c0.5,0.3,0.9,0.6,1.3,0.9c0.4,0.4,0.7,0.8,0.9,1.3C466,104.6,466.1,105.2,466.1,105.9L466.1,105.9z"/>
</g>
</svg>
