<?xml version="1.0" encoding="utf-8"?>
<!-- Generator: Adobe Illustrator 19.1.0, SVG Export Plug-In . SVG Version: 6.00 Build 0)  -->
<svg version="1.1" id="Layer_1" xmlns="http://www.w3.org/2000/svg" xmlns:xlink="http://www.w3.org/1999/xlink" x="0px" y="0px"
	 viewBox="0 0 360.1 93.9" style="enable-background:new 0 0 360.1 93.9;" xml:space="preserve">
<style type="text/css">
	.st0{fill:#0E3540;}
	.st1{fill-rule:evenodd;clip-rule:evenodd;fill:#0E3540;}
</style>
<path class="st0" d="M-1.7,89.8l2-0.2l0,0.5c0,0.6,0.1,1.1,0.4,1.6c0.3,0.5,0.7,0.9,1.4,1.1c0.6,0.3,1.4,0.4,2.2,0.4
	c1.2,0,2.2-0.3,2.8-0.8c0.6-0.5,1-1.2,1-1.8c0-0.5-0.2-0.9-0.5-1.3c-0.4-0.4-1.3-0.9-2.9-1.6c-1.2-0.5-2-0.9-2.5-1.2
	c-0.7-0.5-1.2-0.9-1.5-1.5c-0.3-0.5-0.5-1.1-0.5-1.8c0-0.8,0.2-1.5,0.7-2.1C1.3,80.5,2,80,2.8,79.6c0.8-0.3,1.8-0.5,2.8-0.5
	c1.3,0,2.3,0.2,3.2,0.6c0.9,0.4,1.5,1,1.9,1.7c0.4,0.7,0.6,1.4,0.6,2c0,0.1,0,0.2,0,0.3l-2,0.2c0-0.4,0-0.8-0.1-1
	c-0.1-0.4-0.4-0.8-0.6-1.1c-0.3-0.3-0.7-0.5-1.2-0.7c-0.5-0.2-1.1-0.3-1.7-0.3c-1.1,0-2,0.3-2.6,0.8c-0.5,0.4-0.7,0.9-0.7,1.5
	c0,0.4,0.1,0.7,0.3,1c0.2,0.3,0.5,0.6,1.1,0.9c0.4,0.2,1.2,0.6,2.6,1.2c1.1,0.5,1.9,0.9,2.3,1.2c0.6,0.4,1,0.8,1.3,1.3
	c0.3,0.5,0.5,1.1,0.5,1.8c0,0.8-0.3,1.6-0.8,2.3c-0.5,0.7-1.2,1.2-2.1,1.6C6.4,94.8,5.4,95,4.3,95c-1.7,0-3.2-0.4-4.3-1.1
	C-1.1,93.1-1.7,91.8-1.7,89.8 M11.9,90.5c0-2.2,0.6-4,1.9-5.4c1.1-1.2,2.4-1.8,4.1-1.8c1.3,0,2.4,0.4,3.2,1.3c0.8,0.8,1.2,2,1.2,3.4
	c0,1.3-0.3,2.5-0.8,3.6c-0.5,1.1-1.3,1.9-2.2,2.5c-1,0.6-2,0.9-3,0.9c-0.9,0-1.7-0.2-2.4-0.6c-0.7-0.4-1.3-0.9-1.6-1.6
	C12.1,92.2,11.9,91.4,11.9,90.5 M13.8,90.3c0,1,0.3,1.8,0.8,2.4c0.5,0.5,1.1,0.8,1.9,0.8c0.4,0,0.8-0.1,1.2-0.2
	c0.4-0.2,0.8-0.4,1.1-0.7c0.3-0.3,0.6-0.7,0.9-1.1c0.2-0.4,0.4-0.9,0.6-1.4c0.2-0.7,0.3-1.4,0.3-2c0-1-0.3-1.8-0.8-2.3
	c-0.5-0.6-1.1-0.8-1.9-0.8c-0.6,0-1.1,0.1-1.6,0.4c-0.5,0.3-0.9,0.7-1.3,1.2c-0.4,0.5-0.7,1.2-0.9,1.9S13.8,89.8,13.8,90.3
	 M23.4,94.8l2-9.7h-1.7l0.3-1.5h1.7l0.3-1.6c0.2-0.8,0.3-1.4,0.5-1.7c0.2-0.4,0.5-0.6,0.9-0.9c0.4-0.2,0.9-0.3,1.6-0.3
	c0.5,0,1.2,0.1,2.1,0.3l-0.3,1.7c-0.6-0.2-1.2-0.3-1.6-0.3c-0.4,0-0.7,0.1-0.8,0.3c-0.2,0.2-0.4,0.6-0.5,1.3l-0.3,1.2h2.1l-0.3,1.5
	h-2.1l-2,9.7H23.4z M33.3,93.2L33,94.8c-0.5,0.1-0.9,0.2-1.3,0.2c-0.8,0-1.4-0.2-1.8-0.6c-0.3-0.3-0.5-0.7-0.5-1.1
	c0-0.2,0.1-0.8,0.3-1.7l1.4-6.5h-1.5l0.3-1.5h1.5l0.6-2.7l2.2-1.3l-0.9,4H35l-0.3,1.5h-1.9l-1.3,6.1c-0.2,0.8-0.2,1.2-0.2,1.4
	c0,0.2,0.1,0.4,0.2,0.5c0.1,0.1,0.3,0.2,0.6,0.2C32.6,93.3,32.9,93.3,33.3,93.2 M36.6,94.8l-1.2-11.1h1.8l0.5,5l0.2,2.8
	c0,0.2,0,0.6,0.1,1.3c0.2-0.7,0.4-1.3,0.5-1.6c0.1-0.4,0.4-0.9,0.7-1.6l2.6-5.8H44l0.4,5.6c0.1,0.8,0.1,2,0.1,3.4
	c0.4-0.9,0.9-2.2,1.7-3.9l2.4-5h1.9L45,94.8h-2l-0.4-6.5c0-0.4,0-1.2-0.1-2.4c-0.3,0.7-0.6,1.6-1,2.4l-2.9,6.5H36.6z M57.2,93.4
	c-0.7,0.6-1.3,1-1.9,1.2C54.7,94.9,54,95,53.3,95c-1,0-1.9-0.3-2.5-0.9c-0.6-0.6-0.9-1.4-0.9-2.3c0-0.6,0.1-1.2,0.4-1.6
	c0.3-0.5,0.7-0.9,1.1-1.2c0.5-0.3,1-0.5,1.7-0.6c0.4-0.1,1.2-0.2,2.4-0.2c1.2,0,2-0.2,2.6-0.4c0.1-0.5,0.2-0.9,0.2-1.3
	c0-0.4-0.2-0.8-0.5-1c-0.4-0.3-1.1-0.5-1.9-0.5c-0.8,0-1.4,0.2-2,0.5c-0.5,0.4-0.9,0.9-1.1,1.5L51,86.8c0.4-1.1,1-1.9,1.9-2.5
	c0.9-0.6,1.9-0.9,3.2-0.9c1.4,0,2.5,0.3,3.3,1c0.6,0.5,0.9,1.1,0.9,1.9c0,0.6-0.1,1.3-0.3,2.1l-0.6,2.8c-0.2,0.9-0.3,1.6-0.3,2.1
	c0,0.4,0.1,0.9,0.2,1.5h-1.9C57.3,94.4,57.2,93.9,57.2,93.4 M57.9,89.1c-0.3,0.1-0.6,0.2-0.9,0.2c-0.3,0.1-0.8,0.1-1.5,0.2
	c-1.1,0.1-1.9,0.2-2.3,0.4c-0.5,0.2-0.8,0.4-1,0.7c-0.2,0.3-0.3,0.7-0.3,1.1c0,0.5,0.2,1,0.6,1.3c0.4,0.3,0.9,0.5,1.6,0.5
	c0.6,0,1.2-0.2,1.8-0.5c0.6-0.3,1-0.8,1.4-1.4C57.4,91.1,57.7,90.2,57.9,89.1 M61.3,94.8l2.3-11.1h1.7l-0.5,2.3
	c0.6-0.9,1.1-1.5,1.7-1.9c0.5-0.4,1.1-0.6,1.7-0.6c0.4,0,0.8,0.1,1.4,0.4l-0.8,1.8c-0.3-0.2-0.7-0.4-1.1-0.4c-0.7,0-1.3,0.4-2,1.1
	c-0.7,0.7-1.2,2.1-1.6,4l-0.9,4.5H61.3z M76.3,91l1.8,0.2c-0.3,0.9-0.9,1.8-1.8,2.6c-1,0.8-2.1,1.2-3.4,1.2c-0.8,0-1.6-0.2-2.3-0.6
	c-0.7-0.4-1.2-0.9-1.6-1.7c-0.4-0.7-0.5-1.6-0.5-2.5c0-1.2,0.3-2.4,0.8-3.5c0.6-1.1,1.3-2,2.2-2.5c0.9-0.6,1.9-0.8,2.9-0.8
	c1.3,0,2.4,0.4,3.2,1.2c0.8,0.8,1.2,1.9,1.2,3.4c0,0.5,0,1.1-0.1,1.7h-8.2c0,0.2,0,0.4,0,0.6c0,1,0.2,1.8,0.7,2.4
	c0.5,0.5,1.1,0.8,1.8,0.8c0.7,0,1.3-0.2,1.9-0.6C75.5,92.4,76,91.8,76.3,91 M70.8,88.2h6.2c0-0.2,0-0.3,0-0.4c0-1-0.2-1.7-0.7-2.2
	c-0.5-0.5-1.1-0.8-1.8-0.8c-0.8,0-1.5,0.3-2.2,0.8C71.6,86.3,71.1,87.1,70.8,88.2 M85.7,94.8l2-9.7H86l0.3-1.5H88l0.3-1.6
	c0.2-0.8,0.3-1.4,0.5-1.7c0.2-0.4,0.5-0.6,0.9-0.9c0.4-0.2,0.9-0.3,1.6-0.3c0.5,0,1.2,0.1,2.1,0.3l-0.3,1.7
	c-0.6-0.2-1.2-0.3-1.6-0.3c-0.4,0-0.7,0.1-0.8,0.3c-0.2,0.2-0.4,0.6-0.5,1.3l-0.3,1.2H92l-0.3,1.5h-2.1l-2,9.7H85.7z M91.4,90.5
	c0-2.2,0.6-4,1.9-5.4c1.1-1.2,2.4-1.8,4.1-1.8c1.3,0,2.4,0.4,3.2,1.3c0.8,0.8,1.2,2,1.2,3.4c0,1.3-0.3,2.5-0.8,3.6
	c-0.5,1.1-1.3,1.9-2.2,2.5c-1,0.6-2,0.9-3,0.9c-0.9,0-1.7-0.2-2.4-0.6c-0.7-0.4-1.3-0.9-1.6-1.6C91.6,92.2,91.4,91.4,91.4,90.5
	 M93.3,90.3c0,1,0.3,1.8,0.8,2.4c0.5,0.5,1.1,0.8,1.9,0.8c0.4,0,0.8-0.1,1.2-0.2c0.4-0.2,0.8-0.4,1.1-0.7c0.3-0.3,0.6-0.7,0.9-1.1
	c0.2-0.4,0.4-0.9,0.6-1.4c0.2-0.7,0.3-1.4,0.3-2c0-1-0.3-1.8-0.8-2.3c-0.5-0.6-1.1-0.8-1.9-0.8c-0.6,0-1.1,0.1-1.6,0.4
	c-0.5,0.3-0.9,0.7-1.3,1.2c-0.4,0.5-0.7,1.2-0.9,1.9C93.4,89.1,93.3,89.8,93.3,90.3 M102.7,94.8l2.3-11.1h1.7l-0.5,2.3
	c0.6-0.9,1.1-1.5,1.7-1.9c0.5-0.4,1.1-0.6,1.7-0.6c0.4,0,0.8,0.1,1.4,0.4l-0.8,1.8c-0.3-0.2-0.7-0.4-1.1-0.4c-0.7,0-1.3,0.4-2,1.1
	c-0.7,0.7-1.2,2.1-1.6,4l-0.9,4.5H102.7z M240.6,94.8l3.2-15.4h11.1l-0.4,1.7h-9l-1,4.8h8.8l-0.4,1.8h-8.8l-1.1,5.3h9.7l-0.4,1.7
	H240.6z M253.6,94.8l4.8-5.6l-2.8-5.5h2.1l0.9,2c0.4,0.7,0.7,1.5,0.9,2.1l3.2-4.1h2.3l-4.7,5.6l2.8,5.5h-2.1l-1.1-2.3
	c-0.2-0.5-0.5-1.1-0.8-1.8l-3.3,4.1H253.6z M272.5,90.7l1.9,0.2c-0.5,1.4-1.2,2.4-2,3.1c-0.9,0.7-1.9,1-3,1c-1.2,0-2.2-0.4-2.9-1.2
	c-0.8-0.8-1.1-1.9-1.1-3.3c0-1.2,0.2-2.4,0.7-3.6c0.5-1.2,1.2-2.1,2.1-2.7c0.9-0.6,1.9-0.9,3.1-0.9c1.2,0,2.1,0.3,2.8,1
	c0.7,0.7,1,1.6,1,2.7l-1.9,0.1c0-0.7-0.2-1.3-0.6-1.7c-0.4-0.4-0.9-0.6-1.6-0.6c-0.8,0-1.4,0.2-2,0.7c-0.6,0.5-1,1.2-1.3,2.2
	c-0.3,1-0.5,1.9-0.5,2.8c0,1,0.2,1.7,0.6,2.1c0.4,0.5,0.9,0.7,1.5,0.7c0.6,0,1.2-0.2,1.8-0.7C271.7,92.4,272.2,91.7,272.5,90.7
	 M283.4,91l1.8,0.2c-0.3,0.9-0.9,1.8-1.8,2.6c-1,0.8-2.1,1.2-3.4,1.2c-0.8,0-1.6-0.2-2.3-0.6c-0.7-0.4-1.2-0.9-1.6-1.7
	c-0.4-0.7-0.5-1.6-0.5-2.5c0-1.2,0.3-2.4,0.8-3.5c0.6-1.1,1.3-2,2.2-2.5c0.9-0.6,1.9-0.8,2.9-0.8c1.3,0,2.4,0.4,3.2,1.2
	c0.8,0.8,1.2,1.9,1.2,3.4c0,0.5,0,1.1-0.1,1.7h-8.2c0,0.2,0,0.4,0,0.6c0,1,0.2,1.8,0.7,2.4c0.5,0.5,1.1,0.8,1.8,0.8
	c0.7,0,1.3-0.2,1.9-0.6C282.6,92.4,283.1,91.8,283.4,91 M277.9,88.2h6.2c0-0.2,0-0.3,0-0.4c0-1-0.2-1.7-0.7-2.2
	c-0.5-0.5-1.1-0.8-1.8-0.8c-0.8,0-1.5,0.3-2.2,0.8C278.7,86.3,278.2,87.1,277.9,88.2 M286.7,94.8l3.2-15.4h1.9l-3.2,15.4H286.7z
	 M291.2,94.8l3.2-15.4h1.9l-3.2,15.4H291.2z M304,91l1.8,0.2c-0.3,0.9-0.9,1.8-1.8,2.6c-1,0.8-2.1,1.2-3.4,1.2
	c-0.8,0-1.6-0.2-2.3-0.6c-0.7-0.4-1.2-0.9-1.6-1.7c-0.4-0.7-0.5-1.6-0.5-2.5c0-1.2,0.3-2.4,0.8-3.5c0.6-1.1,1.3-2,2.2-2.5
	c0.9-0.6,1.9-0.8,2.9-0.8c1.3,0,2.4,0.4,3.2,1.2c0.8,0.8,1.2,1.9,1.2,3.4c0,0.5,0,1.1-0.1,1.7h-8.2c0,0.2,0,0.4,0,0.6
	c0,1,0.2,1.8,0.7,2.4c0.5,0.5,1.1,0.8,1.8,0.8c0.7,0,1.3-0.2,1.9-0.6C303.1,92.4,303.6,91.8,304,91 M298.5,88.2h6.2
	c0-0.2,0-0.3,0-0.4c0-1-0.2-1.7-0.7-2.2c-0.5-0.5-1.1-0.8-1.8-0.8c-0.8,0-1.5,0.3-2.2,0.8C299.3,86.3,298.8,87.1,298.5,88.2
	 M307.4,94.8l2.3-11.1h1.7l-0.4,1.9c0.7-0.8,1.4-1.3,2.1-1.7c0.6-0.4,1.3-0.5,2-0.5c0.9,0,1.6,0.2,2.1,0.7c0.5,0.5,0.8,1.1,0.8,2
	c0,0.4-0.1,1.1-0.3,1.9l-1.4,6.7h-1.9l1.5-7c0.1-0.7,0.2-1.2,0.2-1.5c0-0.4-0.1-0.7-0.4-0.9c-0.3-0.2-0.6-0.3-1.1-0.3
	c-1,0-1.8,0.4-2.6,1c-0.8,0.7-1.3,1.9-1.7,3.6l-1.1,5.2H307.4z M326.7,90.7l1.9,0.2c-0.5,1.4-1.2,2.4-2,3.1c-0.9,0.7-1.9,1-3,1
	c-1.2,0-2.2-0.4-2.9-1.2c-0.8-0.8-1.1-1.9-1.1-3.3c0-1.2,0.2-2.4,0.7-3.6c0.5-1.2,1.2-2.1,2.1-2.7c0.9-0.6,1.9-0.9,3.1-0.9
	c1.2,0,2.1,0.3,2.8,1c0.7,0.7,1,1.6,1,2.7l-1.9,0.1c0-0.7-0.2-1.3-0.6-1.7c-0.4-0.4-0.9-0.6-1.6-0.6c-0.8,0-1.4,0.2-2,0.7
	c-0.6,0.5-1,1.2-1.3,2.2c-0.3,1-0.5,1.9-0.5,2.8c0,1,0.2,1.7,0.6,2.1c0.4,0.5,0.9,0.7,1.5,0.7c0.6,0,1.2-0.2,1.8-0.7
	C326,92.4,326.4,91.7,326.7,90.7 M337.6,91l1.8,0.2c-0.3,0.9-0.9,1.8-1.8,2.6c-1,0.8-2.1,1.2-3.4,1.2c-0.8,0-1.6-0.2-2.3-0.6
	c-0.7-0.4-1.2-0.9-1.6-1.7c-0.4-0.7-0.5-1.6-0.5-2.5c0-1.2,0.3-2.4,0.8-3.5c0.6-1.1,1.3-2,2.2-2.5c0.9-0.6,1.9-0.8,2.9-0.8
	c1.3,0,2.4,0.4,3.2,1.2c0.8,0.8,1.2,1.9,1.2,3.4c0,0.5,0,1.1-0.1,1.7h-8.2c0,0.2,0,0.4,0,0.6c0,1,0.2,1.8,0.7,2.4
	c0.5,0.5,1.1,0.8,1.8,0.8c0.7,0,1.3-0.2,1.9-0.6C336.8,92.4,337.3,91.8,337.6,91 M332.1,88.2h6.2c0-0.2,0-0.3,0-0.4
	c0-1-0.2-1.7-0.7-2.2c-0.5-0.5-1.1-0.8-1.8-0.8c-0.8,0-1.5,0.3-2.2,0.8C333,86.3,332.5,87.1,332.1,88.2"/>
<path class="st0" d="M115.5,94.8l3.2-15.4h6.4c1.1,0,1.9,0.1,2.5,0.4c0.6,0.3,1,0.7,1.4,1.3c0.4,0.6,0.5,1.3,0.5,2.1
	c0,0.6-0.1,1.3-0.4,1.9c-0.3,0.7-0.6,1.2-1,1.6c-0.4,0.4-0.8,0.7-1.2,1c-0.4,0.2-0.8,0.4-1.3,0.5c-1,0.2-2,0.3-3,0.3h-3.8l-1.3,6.2
	H115.5z M119.2,86.8h3.4c1.3,0,2.3-0.1,2.9-0.4c0.6-0.3,1.1-0.7,1.5-1.3c0.4-0.6,0.6-1.2,0.6-1.8c0-0.5-0.1-0.9-0.3-1.2
	c-0.2-0.3-0.5-0.6-0.8-0.7c-0.4-0.1-1-0.2-2.1-0.2h-3.9L119.2,86.8z M137.4,91l1.8,0.2c-0.3,0.9-0.9,1.8-1.8,2.6
	c-1,0.8-2.1,1.2-3.4,1.2c-0.8,0-1.6-0.2-2.3-0.6c-0.7-0.4-1.2-0.9-1.6-1.7c-0.4-0.7-0.5-1.6-0.5-2.5c0-1.2,0.3-2.4,0.8-3.5
	c0.6-1.1,1.3-2,2.2-2.5c0.9-0.6,1.9-0.8,2.9-0.8c1.3,0,2.4,0.4,3.2,1.2c0.8,0.8,1.2,1.9,1.2,3.4c0,0.5,0,1.1-0.1,1.7h-8.2
	c0,0.2,0,0.4,0,0.6c0,1,0.2,1.8,0.7,2.4c0.5,0.5,1.1,0.8,1.8,0.8c0.7,0,1.3-0.2,1.9-0.6C136.6,92.4,137.1,91.8,137.4,91 M131.9,88.2
	h6.2c0-0.2,0-0.3,0-0.4c0-1-0.2-1.7-0.7-2.2c-0.5-0.5-1.1-0.8-1.8-0.8c-0.8,0-1.5,0.3-2.2,0.8C132.7,86.3,132.2,87.1,131.9,88.2
	 M140.9,94.8l2.3-11.1h1.7l-0.5,2.3c0.6-0.9,1.1-1.5,1.7-1.9c0.5-0.4,1.1-0.6,1.7-0.6c0.4,0,0.8,0.1,1.4,0.4l-0.8,1.8
	c-0.3-0.2-0.7-0.4-1.1-0.4c-0.7,0-1.3,0.4-2,1.1c-0.7,0.7-1.2,2.1-1.6,4l-0.9,4.5H140.9z M148,94.8l2-9.7h-1.7l0.3-1.5h1.7l0.3-1.6
	c0.2-0.8,0.3-1.4,0.5-1.7c0.2-0.4,0.5-0.6,0.9-0.9c0.4-0.2,0.9-0.3,1.6-0.3c0.5,0,1.2,0.1,2.1,0.3l-0.3,1.7
	c-0.6-0.2-1.2-0.3-1.6-0.3c-0.4,0-0.7,0.1-0.8,0.3c-0.2,0.2-0.4,0.6-0.5,1.3l-0.3,1.2h2.1l-0.3,1.5h-2.1l-2,9.7H148z M153.7,90.5
	c0-2.2,0.6-4,1.9-5.4c1.1-1.2,2.4-1.8,4.1-1.8c1.3,0,2.4,0.4,3.2,1.3c0.8,0.8,1.2,2,1.2,3.4c0,1.3-0.3,2.5-0.8,3.6
	c-0.5,1.1-1.3,1.9-2.2,2.5c-1,0.6-2,0.9-3,0.9c-0.9,0-1.7-0.2-2.4-0.6c-0.7-0.4-1.3-0.9-1.6-1.6C153.9,92.2,153.7,91.4,153.7,90.5
	 M155.6,90.3c0,1,0.3,1.8,0.8,2.4c0.5,0.5,1.1,0.8,1.9,0.8c0.4,0,0.8-0.1,1.2-0.2c0.4-0.2,0.8-0.4,1.1-0.7c0.3-0.3,0.6-0.7,0.9-1.1
	c0.2-0.4,0.4-0.9,0.6-1.4c0.2-0.7,0.3-1.4,0.3-2c0-1-0.3-1.8-0.8-2.3c-0.5-0.6-1.1-0.8-1.9-0.8c-0.6,0-1.1,0.1-1.6,0.4
	c-0.5,0.3-0.9,0.7-1.3,1.2c-0.4,0.5-0.7,1.2-0.9,1.9C155.7,89.1,155.6,89.8,155.6,90.3 M165,94.8l2.3-11.1h1.7l-0.5,2.3
	c0.6-0.9,1.1-1.5,1.7-1.9c0.5-0.4,1.1-0.6,1.7-0.6c0.4,0,0.8,0.1,1.4,0.4l-0.8,1.8c-0.3-0.2-0.7-0.4-1.1-0.4c-0.7,0-1.3,0.4-2,1.1
	c-0.7,0.7-1.2,2.1-1.6,4l-0.9,4.5H165z M171.8,94.8l2.3-11.1h1.9l-0.4,1.8c0.7-0.8,1.3-1.3,1.9-1.6c0.6-0.3,1.2-0.5,1.8-0.5
	c0.7,0,1.3,0.2,1.7,0.6c0.5,0.4,0.8,0.9,0.9,1.5c0.6-0.7,1.2-1.2,1.8-1.6c0.6-0.3,1.3-0.5,2-0.5c0.9,0,1.6,0.2,2.1,0.7
	c0.5,0.4,0.7,1.1,0.7,1.9c0,0.3-0.1,0.9-0.2,1.7l-1.5,7.2h-1.9l1.5-7.4c0.1-0.6,0.2-1,0.2-1.3c0-0.4-0.1-0.7-0.3-0.9
	c-0.2-0.2-0.6-0.3-1-0.3c-0.6,0-1.1,0.2-1.7,0.5c-0.6,0.3-1,0.8-1.4,1.3c-0.3,0.6-0.6,1.4-0.9,2.6l-1.1,5.4h-1.9l1.6-7.5
	c0.1-0.5,0.2-0.9,0.2-1.1c0-0.4-0.1-0.7-0.3-0.9c-0.2-0.2-0.5-0.3-0.9-0.3c-0.5,0-1.1,0.2-1.7,0.5c-0.6,0.3-1.1,0.8-1.4,1.4
	c-0.4,0.6-0.7,1.5-0.9,2.6l-1.1,5.3H171.8z M196.9,93.4c-0.7,0.6-1.3,1-1.9,1.2c-0.6,0.3-1.3,0.4-1.9,0.4c-1,0-1.9-0.3-2.5-0.9
	c-0.6-0.6-0.9-1.4-0.9-2.3c0-0.6,0.1-1.2,0.4-1.6c0.3-0.5,0.7-0.9,1.1-1.2c0.5-0.3,1-0.5,1.7-0.6c0.4-0.1,1.2-0.2,2.4-0.2
	c1.2,0,2-0.2,2.6-0.4c0.1-0.5,0.2-0.9,0.2-1.3c0-0.4-0.2-0.8-0.5-1c-0.4-0.3-1.1-0.5-1.9-0.5c-0.8,0-1.4,0.2-2,0.5
	c-0.5,0.4-0.9,0.9-1.1,1.5l-1.9-0.2c0.4-1.1,1-1.9,1.9-2.5c0.9-0.6,1.9-0.9,3.2-0.9c1.4,0,2.5,0.3,3.3,1c0.6,0.5,0.9,1.1,0.9,1.9
	c0,0.6-0.1,1.3-0.3,2.1l-0.6,2.8c-0.2,0.9-0.3,1.6-0.3,2.1c0,0.4,0.1,0.9,0.2,1.5h-1.9C197,94.4,197,93.9,196.9,93.4 M197.6,89.1
	c-0.3,0.1-0.6,0.2-0.9,0.2c-0.3,0.1-0.8,0.1-1.5,0.2c-1.1,0.1-1.9,0.2-2.3,0.4c-0.5,0.2-0.8,0.4-1,0.7c-0.2,0.3-0.3,0.7-0.3,1.1
	c0,0.5,0.2,1,0.6,1.3c0.4,0.3,0.9,0.5,1.6,0.5c0.6,0,1.2-0.2,1.8-0.5c0.6-0.3,1-0.8,1.4-1.4C197.2,91.1,197.4,90.2,197.6,89.1
	 M201,94.8l2.3-11.1h1.7l-0.4,1.9c0.7-0.8,1.4-1.3,2.1-1.7c0.6-0.4,1.3-0.5,2-0.5c0.9,0,1.6,0.2,2.1,0.7c0.5,0.5,0.8,1.1,0.8,2
	c0,0.4-0.1,1.1-0.3,1.9l-1.4,6.7h-1.9l1.5-7c0.1-0.7,0.2-1.2,0.2-1.5c0-0.4-0.1-0.7-0.4-0.9c-0.3-0.2-0.6-0.3-1.1-0.3
	c-1,0-1.8,0.4-2.6,1c-0.8,0.7-1.3,1.9-1.7,3.6l-1.1,5.2H201z M220.3,90.7l1.9,0.2c-0.5,1.4-1.2,2.4-2,3.1c-0.9,0.7-1.9,1-3,1
	c-1.2,0-2.2-0.4-2.9-1.2c-0.8-0.8-1.1-1.9-1.1-3.3c0-1.2,0.2-2.4,0.7-3.6c0.5-1.2,1.2-2.1,2.1-2.7c0.9-0.6,1.9-0.9,3.1-0.9
	c1.2,0,2.1,0.3,2.8,1c0.7,0.7,1,1.6,1,2.7l-1.9,0.1c0-0.7-0.2-1.3-0.6-1.7c-0.4-0.4-0.9-0.6-1.6-0.6c-0.8,0-1.4,0.2-2,0.7
	c-0.6,0.5-1,1.2-1.3,2.2c-0.3,1-0.5,1.9-0.5,2.8c0,1,0.2,1.7,0.6,2.1c0.4,0.5,0.9,0.7,1.5,0.7c0.6,0,1.2-0.2,1.8-0.7
	C219.6,92.4,220,91.7,220.3,90.7 M231.3,91l1.8,0.2c-0.3,0.9-0.9,1.8-1.8,2.6c-1,0.8-2.1,1.2-3.4,1.2c-0.8,0-1.6-0.2-2.3-0.6
	c-0.7-0.4-1.2-0.9-1.6-1.7c-0.4-0.7-0.5-1.6-0.5-2.5c0-1.2,0.3-2.4,0.8-3.5c0.6-1.1,1.3-2,2.2-2.5c0.9-0.6,1.9-0.8,2.9-0.8
	c1.3,0,2.4,0.4,3.2,1.2c0.8,0.8,1.2,1.9,1.2,3.4c0,0.5,0,1.1-0.1,1.7h-8.2c0,0.2,0,0.4,0,0.6c0,1,0.2,1.8,0.7,2.4
	c0.5,0.5,1.1,0.8,1.8,0.8c0.7,0,1.3-0.2,1.9-0.6C230.4,92.4,230.9,91.8,231.3,91 M225.8,88.2h6.2c0-0.2,0-0.3,0-0.4
	c0-1-0.2-1.7-0.7-2.2c-0.5-0.5-1.1-0.8-1.8-0.8c-0.8,0-1.5,0.3-2.2,0.8C226.6,86.3,226.1,87.1,225.8,88.2"/>
<g>
	<g>
		<path class="st1" d="M132.7-1.2h-112c-6.5,0-10.5,2.8-12,9.3l-10.5,46c-1.5,6.5,1,9.7,7.5,9.7h112c6.4,0,10.3-3.4,11.9-9.9
			l10.5-45.7C141.6,1.7,139.2-1.2,132.7-1.2z M47,37.8C46.7,42.3,45,46,41.7,49c-3.4,3-7.6,4.5-12.4,4.5c-6.4,0-12.1-2.6-17.3-7.8
			l7.7-11.2c2.9,4.3,6.4,6.5,10,6.5c1.7,0,2.6-0.5,2.7-1.6c0-0.8-1.3-1.7-4-3c-6.3-2.9-9.4-7-9.1-12.5c0.2-4.4,1.9-8.1,4.9-10.9
			c3.2-2.8,7.2-4.3,12.1-4.3c5.6,0,10.3,1.8,14.1,5.4l-6.1,10.6c-3-3-5.5-4.5-7.8-4.5c-1.4,0-2.2,0.6-2.2,1.8c0,0.8,0.4,1.4,1.2,2
			c0.1,0,1.4,0.6,3.7,1.7C44.6,28.5,47.2,32.6,47,37.8z M60.5,53.6c-4.1,0-7.4-1.3-9.9-4c-2.5-2.6-3.6-5.9-3.4-10
			c0.2-5.1,2-9.3,5.1-12.7c3.6-3.7,7.8-5.5,12.7-5.5c4.3,0,7.7,1.3,10.2,3.9c2.5,2.7,3.6,6.3,3.4,10.6c-0.2,4.1-1.6,7.9-4.3,11.1
			C70.6,51.5,66,53.6,60.5,53.6z M95.2,33.8l-4.2,19H78.1l4.2-19h-3.5l2.5-11h3.3c2.2-11,7-16.1,14.7-16.1c2,0,4.2,0.3,6.4,1.2
			l-2.5,11.4c-1-0.6-1.9-0.7-2.8-0.7c-1.6,0-2.5,1.3-2.8,4.3h4.9l-2.4,11H95.2z M122.3,33.8h-4.1l-4.3,19h-13l4.2-19h-3.5l2.4-11
			h3.6l1.8-9h13.2l-1.8,9h4L122.3,33.8z"/>
		<path class="st1" d="M63.5,33.4c-1.1,0-2,0.5-2.8,1.4c-0.8,1.1-1.2,2.2-1.3,3.6c-0.1,2.2,0.8,3.3,2.7,3.3c2.5,0,3.9-1.6,4-5
			C66.3,34.6,65.4,33.4,63.5,33.4z"/>
	</g>
</g>
<g>
	<g>
		<path class="st1" d="M272.5,40.4c0.1-2-0.8-3-2.8-3c-2,0-3.5,1.4-4.5,3.4h7.2L272.5,40.4z"/>
		<path class="st1" d="M234.4,40.4c-2.9,0-4.3,1.6-4.4,4.4c-0.1,2.3,0.9,3.5,3.1,3.5c2.6,0,4.1-1.6,4.2-4.7
			C237.4,41.6,236.3,40.4,234.4,40.4z"/>
		<path class="st1" d="M342.5,7.8H143c-0.1,0-0.2,0-0.3,0c0,0.2-0.1,0.3-0.1,0.4l-10.5,46c-1.6,6.8-5.7,11.1-12,11.8
			c-0.4,4.9,2.2,7.7,7.9,7.7h199.5c6.4,0,10.4-3.5,11.9-10l10.5-46.2C351.4,11.2,348.9,7.8,342.5,7.8z M141.6,59.8l9.6-42h29
			l-2.5,12h-13.8l-1,4h13l-2.4,10h-13l-0.9,4h15l-2.6,12H141.6z M251.1,41.7c-0.2,4.7-1.8,8.8-4.7,12.5c-3.1,3.9-6.8,5.9-11.1,5.9
			c-3.3,0-6.1-1.7-8.3-5.2l0,1.4c0,0.3-0.2,1.3-0.6,3.2l-2.1,8.3h-13.9l2.1-8h-14.8l-3.4-6.2c-1.4,1.8-2.4,3.2-3.1,3.8l-2.1,2.4
			h-16.7L188,44.7l-8.8-13.8h15.6l1.6,2.7c0.6,1.3,1.1,2.1,1.4,2.9c0.8-1.2,1.5-2,2.4-2.9l2.6-2.6h16.1l-14.7,14.4l8.7,13.7l6.6-28
			h13.3l-0.9,3.1c2.5-2.9,5.4-4.5,8.7-4.5c3.2,0,5.9,0.9,7.8,3.3C250.3,35.1,251.3,38,251.1,41.7z M265.7,60.1
			c-4.3,0-7.9-1.3-10.5-3.8c-2.7-2.6-4-5.9-3.8-9.8c0.2-4.8,2-8.8,5.4-12.1c3.7-3.6,8.2-5.3,13.5-5.3c4.4,0,7.9,1.2,10.6,3.6
			c2.6,2.5,3.9,5.9,3.7,9.6c-0.1,1.4-0.2,2.5-0.4,4.5h-19.8c-0.1,3,0.9,4.2,3.4,4.2c1.5,0,2.9-0.9,4.3-2.8l10.5,2.1
			C278.7,56.9,273.1,60.1,265.7,60.1z M304.4,40.3c-3,0-4.8,2.3-5.7,6.1l-2.9,13.4h-14.1l6.7-29h12.9l-1.2,3.6c2.2-3.3,5.1-5,8.5-5
			c1,0,2.2-0.1,3.4,0.3l-2.8,11.8C307.3,40.8,305.7,40.3,304.4,40.3z M332.4,40.8h-4.3l-4.3,19h-14l4.2-19h-3.8l2.4-10h3.8l2-9h14
			l-1.8,9h4.3L332.4,40.8z"/>
	</g>
</g>
<path class="st1" d="M360.1,0c-1.2-1.2-2.7-1.8-4.4-1.8c-1.7,0-3.2,0.6-4.5,1.8c-1.2,1.3-1.8,2.8-1.8,4.5s0.6,3.2,1.8,4.5
	c1.3,1.3,2.8,1.8,4.5,1.8c1.7,0,3.2-0.5,4.4-1.8h0.1c1.2-1.3,1.8-2.8,1.8-4.5S361.4,1.3,360.1,0 M359.4,0.9c1,1,1.5,2.3,1.5,3.7
	c0,1.4-0.5,2.7-1.5,3.7c-1.1,1.1-2.3,1.5-3.7,1.5c-1.4,0-2.7-0.4-3.7-1.5c-1-1-1.5-2.3-1.5-3.7c0-1.4,0.4-2.7,1.5-3.7
	c1-1,2.3-1.5,3.7-1.5C357.1-0.6,358.3-0.1,359.4,0.9"/>
<path class="st1" d="M358.1,1.7c-0.4-0.2-1-0.3-1.5-0.3h-3.3v7.1h1v-3h2.2c0.4,0,0.8,0,1,0.2c0.3,0.1,0.4,0.4,0.4,0.9l0.1,1.2v0.3
	v0.2l0.1,0.2h1.2V8.4c-0.1-0.1-0.2-0.2-0.3-0.4c0-0.1-0.1-0.3-0.1-0.6v-1c0-0.2,0-0.3-0.1-0.5c0-0.1-0.1-0.2-0.1-0.4
	c-0.1-0.1-0.3-0.2-0.6-0.3c0.3-0.2,0.5-0.4,0.8-0.6c0.1-0.3,0.2-0.6,0.2-1.1C358.9,2.5,358.6,2.1,358.1,1.7 M356.6,2.3
	c0.3,0,0.6,0.1,0.9,0.2c0.3,0.1,0.4,0.4,0.4,1c0,0.4-0.1,0.8-0.3,1c-0.3,0.2-0.6,0.3-1.1,0.3h-2.3V2.3H356.6z"/>
</svg>
