<?xml version="1.0" encoding="utf-8"?>
<!-- Generator: Adobe Illustrator 19.1.0, SVG Export Plug-In . SVG Version: 6.00 Build 0)  -->
<svg version="1.1" id="Layer_1" xmlns="http://www.w3.org/2000/svg" xmlns:xlink="http://www.w3.org/1999/xlink" x="0px" y="0px"
	 viewBox="0 0 80 80" style="enable-background:new 0 0 80 80;" xml:space="preserve">
<style type="text/css">
	.st0{fill:#2ECCA7;}
</style>
<path class="st0" d="M73.2,16.2c0-3.6-2.9-6.5-6.5-6.5H42.3V4.9c0-1.3-1-2.3-2.3-2.3c-1.3,0-2.3,1-2.3,2.3v4.7H13.3
	c-3.6,0-6.5,2.9-6.5,6.5c0,2.4,1.3,4.6,3.5,5.7V52c0,2.4,2,4.4,4.4,4.4h23v4.6L21.3,73.2c-1,0.8-1.2,2.2-0.5,3.2
	c0.7,1,2.2,1.2,3.2,0.5l13.6-10.1v8.3c0,1.3,1,2.3,2.3,2.3c1.3,0,2.3-1,2.3-2.3v-8.3l13.6,10.1c0.5,0.4,1.1,0.5,1.7,0.4
	c0.6-0.1,1.1-0.4,1.5-0.9c0.4-0.5,0.5-1.1,0.4-1.7c-0.1-0.6-0.4-1.1-0.9-1.5L42.3,61.1v-4.6h23c2.4,0,4.4-2,4.4-4.4l0-30.1
	C71.8,20.8,73.2,18.6,73.2,16.2z M14.9,51.8V22.7h50.2v29.1H14.9z M13.3,14.3h53.3c1.1,0,1.9,0.9,1.9,1.9c0,1.1-0.9,1.9-1.9,1.9
	H13.3c-1.1,0-1.9-0.9-1.9-1.9C11.4,15.1,12.3,14.3,13.3,14.3z"/>
</svg>
