<?xml version="1.0" encoding="utf-8"?>
<!-- Generator: Adobe Illustrator 19.1.0, SVG Export Plug-In . SVG Version: 6.00 Build 0)  -->
<svg version="1.1" id="Layer_1" xmlns="http://www.w3.org/2000/svg" xmlns:xlink="http://www.w3.org/1999/xlink" x="0px" y="0px"
	 viewBox="0 0 225.7 115.6" style="enable-background:new 0 0 225.7 115.6;" xml:space="preserve">
<style type="text/css">
	.st0{fill:#233741;}
</style>
<g>
	<g>
		<path class="st0" d="M125.4,54.8l-2.7-7c-0.2-0.5-0.6-0.8-1-1c-0.5-0.2-1-0.1-1.4,0.2c-0.8,0.5-2.9,1.7-5.3,1.7
			c-2.3,0-4.2-0.4-4.2-5.5V20.8h10.5c0,0,0,0,0,0h0c0.9,0,1.7-0.8,1.7-1.7v-7.7c0-0.9-0.8-1.7-1.7-1.7h-0.1h-7.4h-3.1v-8
			c0-0.9-0.8-1.7-1.7-1.7H103c-0.7,0-1.4,0.4-1.6,1.1c-1.9,5.1-4.7,9.1-10,9.6c-0.8,0.1-1.4,0.7-1.5,1.5l0,6.7
			c-0.1,0.5,0.1,1,0.4,1.4c0.3,0.4,0.8,0.6,1.3,0.6h4.8v22.8c0,3.3,0,7.4,2,10.8c2.4,4,6.9,6,13.8,6c4.6,0,9.5-1.4,12.6-3.5
			C125.5,56.3,125.7,55.5,125.4,54.8"/>
		<path class="st0" d="M44.9,49.2c0-0.6,0-1.3,0-1.9V13.4c0-0.7-0.4-1.3-1-1.6c-5.7-2.4-13.1-3.5-17.6-3.5c-15.9,0-25.4,9.7-25.4,26
			c0,11.2,5.1,23.1,19.6,23.1c4,0,7.6-1,10.4-3v1.2c0,8.3-2.6,12.3-8.9,12.3c-2.6,0-4.4-0.2-5.9-0.8c-0.8-0.3-1-0.5-1-1.7v-1.9
			c0-0.5-0.2-0.9-0.6-1.3c-0.3-0.3-0.8-0.5-1.3-0.4l-8.7,0C3.7,61.9,3,62.6,3,63.5v10.9c0,0.6,0.4,1.2,0.9,1.5
			c4.2,2.1,12.2,3.2,17.9,3.2c14.4,0,22-7.3,22.8-21.8C44.8,54.6,44.9,51.9,44.9,49.2 M25.3,19.7c2,0,3.9,0.2,5.6,0.7v18.4
			c0,5-3.8,7.2-7.6,7.2c-5.5,0-7.8-3.8-7.8-12.7C15.5,28.1,16.7,19.7,25.3,19.7"/>
		<path class="st0" d="M88.2,52.7l-3.5-7.4c-0.2-0.5-0.6-0.8-1.1-0.9c-0.5-0.1-1,0-1.4,0.3c-2.2,1.6-5.8,3.7-10.5,3.7
			c-5.3,0-8.5-2.5-9.3-7.4c21.3-0.7,25.8-10.2,25.8-18.2c0-8.9-6.4-14.4-16.6-14.4c-16.8,0-24.3,13.6-24.3,27.1
			c0,16,8.3,24.8,23.3,24.8c8.6,0,15-3.6,17.2-5.5C88.4,54.2,88.6,53.3,88.2,52.7 M62,29.8c0.7-5.1,3.3-10.3,9-10.3
			c2.5,0,3.8,1.1,3.8,3.4C74.8,28.2,66.9,29.5,62,29.8"/>
		<path class="st0" d="M207.5,8.3c-5.4,0-9.8,1.9-12.7,4.4v-1.3c0-0.9-0.8-1.7-1.7-1.7h-5.5h-1.6h-7.4h0h-0.1
			c-0.9,0-1.7,0.8-1.7,1.7v7.7c0,0.9,0.8,1.7,1.7,1.7h0c0,0,0,0,0,0h3.5v1v0.9V66c0,0.2,0,0.4,0,0.5v0.3h-1.8l0,0h-1.6c0,0,0,0,0,0
			h-0.1c-0.9,0-1.7,0.8-1.7,1.7v7.7c0,0.9,0.8,1.7,1.7,1.7h0h0.5h6.9h1.6h4.2h2.5h5.2h0h0c0.9,0,1.6-0.7,1.7-1.5c0,0,0,0,0,0v0
			c0-0.1,0-0.1,0-0.1v-7.7c0-0.9-0.8-1.7-1.7-1.7h-0.1h0h-3.5v-8c2.5,1,5.4,1.6,8.1,1.6c13.6,0,21.7-10.2,21.7-27.2
			C225.7,12.6,215.8,8.3,207.5,8.3 M202.2,48.3c-1.8,0-4.3-0.5-6.3-1.5v-20c0-3.4,3.4-6.1,7.5-6.1c1.9,0,7.5,0,7.5,13.5
			C210.9,38.4,210.1,48.3,202.2,48.3"/>
		<path class="st0" d="M178.5,49.6c0-0.9-0.8-1.7-1.7-1.7h-3.5v-4.6l0,0v-32c0-0.9-0.8-1.7-1.7-1.7h-6.2h-2.1h-0.4h-1.2h-1h0h-0.1
			c-0.9,0-1.7,0.8-1.7,1.7v7.7c0,0,0,0,0,0v1.6v1v1.3v9.7v8.2c0,3.6-2.5,7.3-8.1,7.3c-3.9,0-5-1.9-5-8.1V11.4c0-0.9-0.8-1.7-1.7-1.7
			H138h-2.5h-7.4h0H128c-0.9,0-1.7,0.8-1.7,1.7v7.7c0,0,0,0,0,0l0,0.2c0,0.1,0,0.1,0,0.2l0,0c0,0.1,0,0.2,0.1,0.3c0,0,0,0,0,0.1
			c0,0.1,0.1,0.1,0.1,0.2c0,0,0,0.1,0.1,0.1c0,0,0.1,0.1,0.1,0.1c0,0,0.1,0.1,0.1,0.1c0,0,0.1,0.1,0.1,0.1c0,0,0.1,0.1,0.2,0.1
			c0,0,0.1,0,0.1,0c0.1,0,0.1,0.1,0.2,0.1c0,0,0.1,0,0.1,0c0.1,0,0.1,0,0.2,0.1c0.1,0,0.1,0,0.2,0c0,0,0.1,0,0.1,0h0c0,0,0,0,0,0
			h3.5v0.8v2.4v18.6c0,14.5,8.6,17.5,15.9,17.5c5,0,9.6-1.6,13.1-4.5v1.6c0,0.9,0.8,1.7,1.7,1.7h4.9h9.6c0.1,0,0.2,0,0.3,0
			c0.1,0,0.1,0,0.1,0c0.1,0,0.1,0,0.2,0c0,0,0.1,0,0.1-0.1c0,0,0.1,0,0.1-0.1c0,0,0.1-0.1,0.1-0.1c0,0,0.1-0.1,0.1-0.1
			c0,0,0.1-0.1,0.1-0.1c0,0,0.1-0.1,0.1-0.2c0,0,0-0.1,0-0.1c0-0.1,0.1-0.1,0.1-0.2c0,0,0,0,0-0.1c0-0.1,0.1-0.2,0.1-0.3
			c0,0,0,0,0,0c0-0.1,0-0.1,0-0.2v-0.2v0V49.6z"/>
	</g>
	<g>
		<path class="st0" d="M5,115.7c-1.7,0-2.9-0.5-3.8-1.6C0.4,113,0,111.5,0,109.5V98.4c0-2,0.4-3.5,1.2-4.6c0.9-1.1,2.1-1.6,3.8-1.6
			c1.7,0,2.9,0.5,3.8,1.6c0.8,1,1.3,2.5,1.3,4.6v0.6H8.9v-0.6c0-1.1-0.1-2-0.4-2.7c-0.3-0.7-0.6-1.2-1-1.5s-0.8-0.6-1.3-0.7
			c-0.5-0.1-0.9-0.2-1.3-0.2c-0.4,0-0.9,0.1-1.3,0.2c-0.5,0.1-0.9,0.3-1.3,0.7c-0.4,0.3-0.7,0.9-1,1.5c-0.3,0.7-0.4,1.6-0.4,2.7
			v11.1c0,1.7,0.3,3,1,3.9c0.6,0.8,1.6,1.2,2.9,1.2c1.3,0,2.3-0.4,2.9-1.2c0.7-0.9,1-2.2,1-3.9v-3.1H3.8v-1.1H10v4.2
			c0,2-0.4,3.5-1.3,4.6C7.9,115.1,6.7,115.7,5,115.7z"/>
		<path class="st0" d="M22.4,105c1,1,1.6,2.4,1.6,4.1v6.5h-1.1v-6.5c0-1.4-0.4-2.5-1.1-3.3c-0.8-0.8-1.8-1.2-3.2-1.2H18h-2.6v11
			h-1.1V92.2h4.2c1.9,0,3.3,0.5,4.1,1.5c0.9,1,1.3,2.6,1.3,4.7c0,2.1-0.4,3.6-1.3,4.7c-0.4,0.4-0.8,0.8-1.4,1.1
			C21.7,104.4,22.1,104.6,22.4,105z M18.5,103.6c1.6,0,2.7-0.4,3.3-1.2c0.7-0.8,1-2.2,1-4c0-1.8-0.3-3.1-1-3.9
			c-0.7-0.8-1.8-1.2-3.3-1.2h-3.1v10.3H18H18.5z"/>
		<path class="st0" d="M33.4,115.7c-0.6,0-1.1-0.1-1.7-0.2c-0.6-0.2-1.1-0.5-1.6-0.9c-0.5-0.5-0.9-1.1-1.2-1.9
			c-0.3-0.8-0.5-1.8-0.5-3.1v-11c0-2,0.4-3.5,1.2-4.6c0.9-1.1,2.1-1.6,3.8-1.6c1.7,0,2.9,0.5,3.8,1.6c0.8,1,1.3,2.6,1.3,4.6v11
			c0,1.3-0.2,2.3-0.5,3.1c-0.3,0.8-0.7,1.4-1.2,1.9c-0.5,0.5-1,0.8-1.6,0.9C34.5,115.6,33.9,115.7,33.4,115.7z M33.4,93.3
			c-1.3,0-2.3,0.4-2.9,1.2c-0.7,0.9-1,2.2-1,3.9v11c0,1.8,0.3,3.1,1,3.9c0.6,0.8,1.6,1.2,2.9,1.2c1.3,0,2.2-0.4,2.9-1.2
			c0.6-0.8,1-2.1,1-3.9v-11c0-1.8-0.3-3.1-1-3.9C35.6,93.7,34.7,93.3,33.4,93.3z"/>
		<path class="st0" d="M63.5,92.2l-5.1,23.4h-0.9L53,95.3l-4.5,20.4h-0.9l-5.2-23.4h1.1l4.5,20.4l4.5-20.4h0.9l4.5,20.4l4.4-20.4
			H63.5z"/>
		<path class="st0" d="M77.2,115.7V92.2h1.1v23.4H77.2z"/>
		<path class="st0" d="M83.7,115.7h-1.1V92.2h0.9l8.1,20.1V92.2h1.1v23.4h-0.9l-8.1-20.1V115.7z"/>
		<path class="st0" d="M118.6,93.3H113v22.3h-1.1V93.3h-5.6v-1.1h12.3V93.3z"/>
		<path class="st0" d="M131.7,92.2v23.4h-1.1v-11.2h-7.1v11.2h-1.1V92.2h1.1v11.2h7.1V92.2H131.7z"/>
		<path class="st0" d="M137.5,93.3v10.1h7.3v1.1h-7.3v10.1h7.3v1.1h-8.4V92.2h8.4v1.1H137.5z"/>
		<path class="st0" d="M163.2,115.7c-0.6,0-1.2-0.1-1.8-0.2c-0.6-0.2-1.1-0.5-1.6-0.9c-0.5-0.5-0.9-1.1-1.2-1.9
			c-0.3-0.8-0.5-1.8-0.5-3.1v-11c0-1.3,0.2-2.3,0.5-3.1c0.3-0.8,0.7-1.4,1.2-1.9c0.5-0.5,1-0.8,1.6-0.9c0.6-0.2,1.2-0.2,1.8-0.2
			c0.6,0,1.1,0.1,1.7,0.2c0.6,0.2,1.1,0.5,1.6,0.9c0.5,0.5,0.9,1.1,1.2,1.9c0.3,0.8,0.5,1.9,0.5,3.1V99h-1.1v-0.6
			c0-1.8-0.3-3.1-1-3.9c-0.7-0.8-1.6-1.2-2.9-1.2c-1.3,0-2.3,0.4-2.9,1.2c-0.6,0.8-1,2.1-1,3.9v11c0,1.8,0.3,3.1,1,3.9
			c0.6,0.8,1.6,1.2,2.9,1.2c1.3,0,2.2-0.4,2.9-1.2c0.6-0.9,1-2.2,1-3.9v-0.6h1.1v0.6c0,1.3-0.1,2.3-0.5,3.1
			c-0.3,0.8-0.7,1.4-1.2,1.9c-0.5,0.5-1,0.8-1.6,0.9C164.4,115.6,163.8,115.7,163.2,115.7z"/>
		<path class="st0" d="M172.1,115.7V92.2h1.1v22.4h7.9v1.1H172.1z"/>
		<path class="st0" d="M189.5,115.7c-0.6,0-1.1-0.1-1.7-0.2c-0.6-0.2-1.1-0.5-1.6-0.9c-0.5-0.5-0.9-1.1-1.2-1.9
			c-0.3-0.8-0.5-1.8-0.5-3.1v-11c0-2,0.4-3.5,1.2-4.6c0.9-1.1,2.1-1.6,3.8-1.6c1.7,0,2.9,0.5,3.8,1.6c0.8,1,1.3,2.6,1.3,4.6v11
			c0,1.3-0.2,2.3-0.5,3.1c-0.3,0.8-0.7,1.4-1.2,1.9c-0.5,0.5-1,0.8-1.6,0.9C190.7,115.6,190.1,115.7,189.5,115.7z M189.5,93.3
			c-1.3,0-2.3,0.4-2.9,1.2c-0.7,0.9-1,2.2-1,3.9v11c0,1.8,0.3,3.1,1,3.9c0.6,0.8,1.6,1.2,2.9,1.2c1.3,0,2.2-0.4,2.9-1.2
			c0.6-0.8,1-2.1,1-3.9v-11c0-1.8-0.3-3.1-1-3.9C191.8,93.7,190.8,93.3,189.5,93.3z"/>
		<path class="st0" d="M203.5,115.6c-0.5,0-1.1-0.1-1.6-0.2c-0.5-0.2-1-0.4-1.5-0.9c-0.5-0.4-0.8-1-1.1-1.8
			c-0.3-0.8-0.4-1.7-0.4-2.9V92.2h1.1v17.7c0,1,0.1,1.9,0.3,2.5c0.2,0.6,0.5,1.1,0.9,1.4c0.3,0.3,0.7,0.5,1.1,0.6
			c0.4,0.1,0.8,0.1,1.2,0.1c0.4,0,0.8,0,1.2-0.1c0.4-0.1,0.8-0.3,1.1-0.6c0.3-0.3,0.6-0.8,0.9-1.4c0.2-0.6,0.3-1.4,0.3-2.5V92.2h1.1
			v17.7c0,1.2-0.1,2.2-0.4,2.9c-0.3,0.8-0.7,1.3-1.1,1.8c-0.4,0.4-0.9,0.7-1.5,0.9C204.5,115.6,204,115.6,203.5,115.6z"/>
		<path class="st0" d="M217.1,115.7h-4V92.2h4c1.9,0,3.2,0.6,4.1,1.7c0.9,1,1.3,2.6,1.3,4.7v10.8c0,2.1-0.4,3.6-1.3,4.7
			C220.4,115.1,219,115.7,217.1,115.7z M214.2,114.6h2.9c1.5,0,2.6-0.4,3.3-1.3c0.7-0.8,1-2.2,1-4V98.6c0-1.8-0.3-3.1-1-4
			c-0.7-0.8-1.8-1.3-3.3-1.3h-2.9V114.6z"/>
	</g>
</g>
</svg>
