<?xml version="1.0" encoding="utf-8"?>
<!-- Generator: Adobe Illustrator 19.1.0, SVG Export Plug-In . SVG Version: 6.00 Build 0)  -->
<svg version="1.1" id="Layer_1" xmlns="http://www.w3.org/2000/svg" xmlns:xlink="http://www.w3.org/1999/xlink" x="0px" y="0px"
	 viewBox="0 0 144.8 120.7" style="enable-background:new 0 0 144.8 120.7;" xml:space="preserve">
<style type="text/css">
	.st0{fill-rule:evenodd;clip-rule:evenodd;fill:#253941;}
</style>
<g>
	<path class="st0" d="M9.4,87l1.7-0.1l-0.2-7.6l6.6-0.4l2.3,0.3l0.6,6.5l1.6-0.1l-0.7-6.3L61.8,84l0.1,4.9h3.4l-0.2-4.5l19.9,2.3
		l0.2,2.2h3.6l-0.2-1.8l15.9,1.8h5l35.3-1.9l-0.3-6.1l0,0c0,0,0,0,0,0l-0.1-2.3l-2.1,0c-0.2-0.3-0.5-0.5-0.7-0.8l2.7,0l-0.2-2.9
		l-5.1,0c-3.6-4-7.2-7.9-10.6-12C111.2,43.2,94.7,22.5,79.7,1.2L79.6,0l-2.1,0.1l0.1,0.8L62.5,1.7l0-0.8l-2,0.1l0,1
		C58.6,13.4,42.8,52.3,28,60.9c-3.7-2-7.1-6.3-10-13.6l-0.1-0.9l-0.9,0l0,0c0,0,0,0,0,0l-0.3,0.4l-6.4,0.3c0-0.1-0.1-0.2-0.1-0.3
		l-0.4,0c0,0,0,0,0,0l-0.6,0l0,2.8c-0.5,4.6-1.1,9.2-1.9,13.6c-0.8,4.7-1.8,9.2-3,13.5L0,77L9.4,78L9.4,87z M63.4,36.8
		c3.2-5,6.1-10.2,8.5-15l8.8,14.7l0.3,3.8l-17.5,0.9L63.4,36.8z M83.2,34.7L80,4.4c14.5,20.4,29.5,39.7,46,59.1
		c3.3,3.9,6.6,7.7,10,11.5l-27.3,0.3L83.2,34.7z M107.7,75.2l-2.7,0L83.7,39.9l-0.3-3.3L107.7,75.2z M80.5,34.5l-8.2-13.7
		c0.2-0.4,0.3-0.7,0.5-1.1l7.4,11.8L80.5,34.5z M63.6,46.7c1-1.7,4.5-3,8.7-3.3c4.3-0.2,8,0.8,9.1,2.4h0l2.6,29.6l-19.3,0.2
		L63.6,46.7z M64.9,77.3l0-0.4l19.4,0.2l0,0.5L64.9,77.3z M83.9,41.9l20,33.4l-16.5,0.2L83.9,41.9z M87.7,77.7l-0.1-0.5l17.6,0.2
		l0.4,0.6L87.7,77.7z M106.6,78l-0.4-0.6l2.8,0l0.4,0.6L106.6,78z M140.7,77.8c0.2,0.3,0.5,0.5,0.7,0.8l-1.4,0
		c-0.2-0.3-0.5-0.5-0.7-0.8L140.7,77.8z M139.2,78.5L110.4,78l-0.4-0.6l28.4,0.3C138.7,78,138.9,78.3,139.2,78.5z M127.9,63.3
		c3.4,3.9,6.8,7.8,10.3,11.6l-1.3,0c-3.5-3.9-7-7.9-10.4-11.9c-16.8-19.7-31.9-39.3-46.6-60l-0.1-0.7C94.7,23.4,111,43.8,127.9,63.3
		z M78.1,7.1l2,22.7l-6.8-10.9C75.4,14.4,77,10.4,78.1,7.1z M70.2,3.2C73,3,75.6,3.4,77.1,4c-0.9,3.2-2.6,7.8-5,13L64.2,4.4
		C65.6,3.7,67.8,3.3,70.2,3.2z M63.4,4.7l8.3,13.2c-0.2,0.3-0.3,0.7-0.5,1L62.8,5.1C63,4.9,63.2,4.8,63.4,4.7z M70.7,19.8
		c-2.1,4.4-4.6,9-7.4,13.6L62.6,6.3L70.7,19.8z M10.2,49.8c1.6,4.2,3.3,7.3,5.1,9.5c-0.2,1-0.3,2-0.5,3c-0.1,0.3-0.1,0.6-0.2,0.8
		l-4.1,0.2L10.2,49.8z M18.4,62l0.1,0.9l-3.2,0.2c0-0.2,0.1-0.5,0.1-0.7c0.2-0.8,0.3-1.7,0.5-2.5C16.7,60.7,17.5,61.4,18.4,62z
		 M15.9,59.3c0,0,0-0.1,0-0.1c0.3,0.4,0.7,0.8,1,1.1C16.6,60,16.3,59.7,15.9,59.3z M18.6,65.2L18.6,65.2l1,10.9l-7.5,0.1
		c1-3.7,2.1-7.9,2.9-12C16.7,64.2,18.2,64.6,18.6,65.2z M11.4,76.5l-0.5,0l0-0.1L11.4,76.5C11.4,76.4,11.4,76.4,11.4,76.5z
		 M10.8,76.2l-0.3-10.6c0.5-0.7,2-1.2,3.8-1.3c-0.8,4.1-1.9,8.3-2.9,12L10.8,76.2z M12,76.5C12,76.4,12,76.4,12,76.5l7.6,0l0,0.1
		L12,76.5z M61.7,77.3l-40.6-0.7l0-0.1l40.6,0.4L61.7,77.3z M61,37.1C52.7,50,42.5,61.5,33.3,62.2c-1.2,0-2.4-0.2-3.5-0.6
		c12.7-7.3,26-35.3,30.9-51L61,37.1z M60.5,5.5l0,2.3c-4.1,14.4-17.8,45-31,52.9C43,51.7,56.9,19.9,60.5,5.5z M28.6,62.2
		c1.6,0.6,3.2,0.8,4.8,0.7c9.1,0,19.2-10.3,27.6-22.6l0.6,35.4L21,76.1l-1.4-13.5c0.7,0.3,1.4,0.5,2.1,0.6
		C24,63.7,26.3,63.3,28.6,62.2z M21.6,62.5c-0.7-0.2-1.4-0.4-2.1-0.8l-1.1-10.8c2.6,5.4,5.5,8.8,8.6,10.5
		C25.2,62.3,23.4,62.7,21.6,62.5z M26.3,60.4c-2.9-1.9-5.6-5.4-8-10.7l-0.1-0.9C20.6,54.4,23.3,58.2,26.3,60.4z M17.3,50l1,10.9
		c-0.8-0.6-1.5-1.3-2.2-2.2C16.5,55.8,16.9,52.9,17.3,50z M13.6,47.7c1.4-0.1,2.6,0.1,3.3,0.4c-0.4,3.4-0.8,6.7-1.4,9.9
		c-1.7-2.3-3.4-5.5-4.9-9.7C11.3,48,12.4,47.8,13.6,47.7z M10.4,48.5c1.6,4.4,3.3,7.7,5.1,10.1c0,0.1,0,0.1,0,0.2
		c-1.9-2.2-3.6-5.5-5.2-10l0-0.1C10.2,48.6,10.3,48.5,10.4,48.5z M5,76.7C6.2,72.5,7.2,68,8,63.4c0.5-2.9,0.9-5.9,1.3-8.9l0.1,22.1
		L5,76.7z"/>
	<g>
		<polygon class="st0" points="3.6,99.3 3.6,120.7 8.6,120.7 8.6,112.3 15.8,112.3 15.8,108.8 8.6,108.8 8.6,102.8 17.3,102.8 
			17.3,99.3 		"/>
		<polygon class="st0" points="23.6,99.3 18.7,99.3 18.7,120.7 31.5,120.7 31.5,117.2 23.6,117.2 		"/>
		<path class="st0" d="M48.3,113.1c-0.3,0.9-0.7,1.7-1.2,2.3c-0.5,0.6-1.1,1.1-1.9,1.4c-0.7,0.3-1.6,0.5-2.5,0.5
			c-1,0-1.8-0.2-2.5-0.5c-0.7-0.3-1.4-0.8-1.9-1.4c-0.5-0.6-0.9-1.4-1.2-2.3c-0.3-0.9-0.4-1.9-0.4-3c0-1.1,0.1-2.1,0.4-3
			c0.3-0.9,0.7-1.7,1.2-2.3c0.5-0.6,1.1-1.1,1.9-1.4c0.7-0.3,1.6-0.5,2.5-0.5c0.9,0,1.8,0.2,2.5,0.5c0.7,0.3,1.4,0.8,1.9,1.4
			c0.5,0.6,0.9,1.4,1.2,2.3c0.3,0.9,0.4,1.9,0.4,3C48.7,111.2,48.5,112.2,48.3,113.1z M52.9,105.8c-0.5-1.3-1.3-2.4-2.2-3.4
			c-1-1-2.1-1.7-3.5-2.3c-1.4-0.6-2.8-0.8-4.5-0.8c-1.7,0-3.1,0.3-4.5,0.8c-1.4,0.5-2.5,1.3-3.5,2.3c-1,0.9-1.7,2.1-2.2,3.4
			c-0.5,1.3-0.8,2.7-0.8,4.2c0,1.5,0.3,2.9,0.8,4.2c0.5,1.3,1.3,2.4,2.2,3.4c1,1,2.1,1.7,3.5,2.3c1.4,0.5,2.8,0.8,4.5,0.8
			c1.7,0,3.1-0.3,4.5-0.8c1.4-0.5,2.5-1.3,3.5-2.3c1-1,1.7-2.1,2.2-3.4c0.5-1.3,0.8-2.7,0.8-4.2C53.7,108.5,53.4,107.1,52.9,105.8z"
			/>
		<path class="st0" d="M59.7,102.8h2c1.3,0,2.2,0.3,2.8,0.8c0.6,0.5,0.9,1.3,0.9,2.3c0,0.5-0.1,0.9-0.2,1.3
			c-0.1,0.4-0.4,0.8-0.7,1.1c-0.3,0.3-0.7,0.6-1.2,0.7c-0.5,0.2-1,0.3-1.7,0.3h-2V102.8z M61,112.8c0.4,0,0.7,0.1,0.9,0.2
			c0.2,0.1,0.4,0.3,0.5,0.6l3.5,6.2c0.4,0.6,0.9,0.9,1.8,0.9h4.4l-4.5-7.5c-0.2-0.4-0.5-0.6-0.8-0.9c-0.3-0.2-0.6-0.5-0.9-0.6
			c0.7-0.3,1.3-0.6,1.8-1c0.5-0.4,1-0.9,1.3-1.4c0.4-0.5,0.6-1.1,0.8-1.7c0.2-0.6,0.3-1.3,0.3-2c0-0.9-0.2-1.7-0.5-2.5
			c-0.3-0.8-0.8-1.4-1.5-2c-0.7-0.6-1.6-1-2.6-1.3c-1.1-0.3-2.4-0.5-3.9-0.5h-6.9v21.4h4.9v-8H61z"/>
		<rect x="73.3" y="99.3" class="st0" width="4.9" height="21.4"/>
		<path class="st0" d="M86,102.8h2.6c0.6,0,1.2,0.1,1.6,0.2c0.4,0.2,0.8,0.4,1.1,0.7c0.3,0.3,0.5,0.7,0.7,1.1
			c0.1,0.4,0.2,0.9,0.2,1.4c0,1.1-0.3,2-0.8,2.7c-0.6,0.6-1.5,0.9-2.8,0.9H86V102.8z M88.5,113.3c1.5,0,2.7-0.2,3.8-0.5
			c1.1-0.3,2-0.8,2.7-1.5c0.7-0.6,1.2-1.4,1.6-2.2c0.3-0.9,0.5-1.8,0.5-2.9c0-1-0.2-1.9-0.5-2.7c-0.3-0.8-0.8-1.5-1.5-2.2
			c-0.7-0.6-1.6-1.1-2.6-1.4c-1.1-0.4-2.3-0.5-3.8-0.5h-7.5v21.4H86v-7.5H88.5z"/>
		<path class="st0" d="M106.7,106.6c0.1-0.4,0.3-0.8,0.5-1.3c0.2-0.5,0.3-1,0.5-1.6c0.2,0.6,0.3,1.1,0.5,1.6
			c0.2,0.5,0.3,0.9,0.4,1.3l1.9,5.7h-5.8L106.7,106.6z M110.1,99.3h-5l-8.2,21.4h3.8c0.4,0,0.8-0.1,1-0.3c0.3-0.2,0.5-0.5,0.6-0.8
			l1.3-3.9h8.1l1.3,3.9c0.1,0.3,0.3,0.6,0.6,0.8c0.3,0.2,0.6,0.3,1.1,0.3h3.8L110.1,99.3z"/>
		<path class="st0" d="M127.6,99.3h-4.9v13.9c0,0.7-0.1,1.4-0.2,1.9c-0.1,0.5-0.3,0.9-0.5,1.2c-0.2,0.3-0.5,0.5-0.9,0.7
			c-0.4,0.1-0.8,0.2-1.2,0.2c-0.3,0-0.6,0-0.9-0.1c-0.2,0-0.5-0.1-0.6-0.1c-0.3,0-0.6,0.1-0.7,0.2c-0.2,0.1-0.3,0.3-0.3,0.5
			l-0.3,2.6c0.6,0.1,1.1,0.2,1.7,0.3c0.5,0.1,1.1,0.1,1.6,0.1c1.2,0,2.3-0.2,3.2-0.6c0.9-0.4,1.6-0.9,2.2-1.6c0.6-0.7,1-1.5,1.3-2.5
			c0.3-1,0.4-2,0.4-3.2V99.3z"/>
		<path class="st0" d="M142.8,101.4c-0.4-0.3-0.8-0.6-1.3-0.8c-0.5-0.2-1-0.5-1.5-0.6c-0.6-0.2-1.1-0.3-1.8-0.4
			c-0.6-0.1-1.2-0.1-1.9-0.1c-1.2,0-2.2,0.2-3.1,0.5c-0.9,0.4-1.7,0.8-2.3,1.4c-0.6,0.6-1.1,1.3-1.4,2c-0.3,0.8-0.5,1.5-0.5,2.4
			c0,1,0.1,1.8,0.4,2.5c0.3,0.7,0.6,1.3,1.1,1.7c0.4,0.5,0.9,0.8,1.5,1.1c0.6,0.3,1.1,0.5,1.7,0.7c0.6,0.2,1.2,0.4,1.7,0.5
			c0.6,0.2,1.1,0.3,1.5,0.5c0.4,0.2,0.8,0.5,1.1,0.8s0.4,0.7,0.4,1.2c0,0.9-0.3,1.5-0.7,1.9c-0.5,0.4-1.2,0.6-2.1,0.6
			c-0.7,0-1.2-0.1-1.7-0.3c-0.5-0.2-0.9-0.4-1.3-0.6c-0.4-0.2-0.7-0.4-1-0.6c-0.3-0.2-0.6-0.3-0.9-0.3c-0.2,0-0.4,0.1-0.6,0.2
			c-0.2,0.1-0.3,0.2-0.5,0.4l-1.5,2.3c0.4,0.4,0.9,0.7,1.5,1c0.6,0.3,1.2,0.6,1.8,0.8c0.6,0.2,1.3,0.4,2,0.5c0.7,0.1,1.3,0.2,2,0.2
			c1.2,0,2.3-0.2,3.2-0.5c0.9-0.4,1.7-0.9,2.4-1.5c0.6-0.6,1.1-1.4,1.5-2.2c0.3-0.9,0.5-1.8,0.5-2.8c0-0.9-0.1-1.6-0.4-2.3
			c-0.3-0.6-0.6-1.2-1.1-1.6c-0.4-0.4-0.9-0.8-1.5-1.1c-0.6-0.3-1.1-0.5-1.7-0.7c-0.6-0.2-1.2-0.4-1.7-0.6c-0.6-0.2-1.1-0.4-1.5-0.6
			c-0.5-0.2-0.8-0.5-1.1-0.7c-0.3-0.3-0.4-0.6-0.4-1.1c0-0.7,0.2-1.2,0.7-1.6s1.1-0.6,2.1-0.6c0.5,0,1,0.1,1.4,0.2
			c0.4,0.1,0.8,0.3,1.1,0.5l0.9,0.5c0.2,0.1,0.5,0.2,0.7,0.2c0.2,0,0.5-0.1,0.6-0.2c0.2-0.1,0.3-0.3,0.5-0.5L142.8,101.4z"/>
	</g>
</g>
</svg>
