<?xml version="1.0" encoding="utf-8"?>
<!-- Generator: Adobe Illustrator 19.1.0, SVG Export Plug-In . SVG Version: 6.00 Build 0)  -->
<svg version="1.1" id="Camada_1" xmlns="http://www.w3.org/2000/svg" xmlns:xlink="http://www.w3.org/1999/xlink" x="0px" y="0px"
	 viewBox="0 0 199.3 79" style="enable-background:new 0 0 199.3 79;" xml:space="preserve">
<style type="text/css">
	.st0{fill-rule:evenodd;clip-rule:evenodd;fill:#0F353F;}
	.st1{fill:#0F353F;}
</style>
<path class="st0" d="M191.5,18.5"/>
<path class="st0" d="M195.3,41.7"/>
<path class="st0" d="M196.2,17.4"/>
<path class="st0" d="M163.3,18.5"/>
<path class="st0" d="M172.6,41.7"/>
<path class="st0" d="M172.6,17.4"/>
<path class="st0" d="M106,41.7"/>
<path class="st0" d="M106.2,22.9"/>
<g>
	<g>
		<path class="st0" d="M194.9,41.8c0.2-4.3,0.4-7.8,0.4-10.5v-7.5c0-3.4-0.1-7.5-0.4-12.3c0.9,0.1,1.6,0.2,2.2,0.2
			c0.8,0,1.5-0.1,2.1-0.2c-0.2,5.2-0.4,9.2-0.4,12.1v7.7c0,2.7,0.1,6.2,0.4,10.5c-0.9-0.1-1.6-0.2-2.2-0.2
			C196.3,41.6,195.6,41.7,194.9,41.8z"/>
		<path class="st0" d="M169.3,14.1c0.1-0.5,0.2-0.9,0.2-1.5c0-0.5-0.1-0.9-0.2-1.3c3.2,0.2,6.6,0.4,10.1,0.4h1.1h0.7
			c3.1,0,6.6-0.1,10.4-0.4c-0.1,0.5-0.2,1-0.2,1.5c0,0.4,0.1,0.8,0.2,1.3c-2.6-0.2-5.7-0.4-9.3-0.4c-0.1,2.4-0.1,5.3-0.1,8.5v4.7
			c0,5.9,0.1,10.9,0.4,14.8c-1-0.1-1.7-0.2-2.2-0.2c-0.7,0-1.4,0.1-2.1,0.2c0.2-3.9,0.4-8.8,0.4-14.7v-4.9c0-3.2,0-6.1-0.1-8.4
			C175.7,13.7,172.6,13.9,169.3,14.1z"/>
		<path class="st0" d="M153.9,41.8c1.4-1.7,4.1-5.1,8.2-10.3l0,0c-1.7-2.2-4.3-5.8-8.1-10.8c1,0.1,1.7,0.2,2.3,0.2
			c0.8,0,1.6-0.1,2.3-0.2c0.4,0.8,2.3,3.6,5.5,8.2l0,0c1.7-2.3,3.7-5,6-8.2c0.8,0.1,1.3,0.2,1.6,0.2c0.5,0,1-0.1,1.5-0.2
			c-3.3,3.7-6,6.8-8.1,9.5l0,0c2.3,3.3,5.1,7.2,8.5,11.6c-0.9-0.1-1.6-0.2-2.2-0.2c-0.4,0-1.2,0.1-2.3,0.2c-0.9-1.5-2.9-4.5-6-9l0,0
			c-1.6,2.2-3.6,5.2-6.2,9c-0.7-0.1-1.2-0.2-1.4-0.2C155,41.6,154.4,41.7,153.9,41.8z"/>
		<path class="st0" d="M142.1,41.6L142.1,41.6L142.1,41.6z M141.7,16.9L141.7,16.9L141.7,16.9z M135.5,29.3c0.9,0.1,2.4,0.1,4.5,0.1
			h1.3h1.3c1.1,0,2.6,0,4.5-0.1c0-2.5-0.5-4.4-1.5-5.6c-1-1.3-2.3-1.9-4-1.9c-1.8,0-3.3,0.7-4.3,2.1C136.2,25.2,135.6,27,135.5,29.3
			L135.5,29.3z M135.4,31c0,0.5,0,0.9,0,1.1c0,2.5,0.7,4.5,2,6c1.4,1.5,3.2,2.3,5.6,2.3c2.5,0,4.7-1,6.6-3l0.2,0.2l-0.3,2
			c-0.6,0.5-1.6,1.1-3.1,1.7c-1.5,0.6-2.9,0.9-4.3,0.9c-3,0-5.5-1-7.6-2.9c-2-1.9-3.1-4.4-3.1-7.5c0-3.6,0.9-6.4,2.6-8.5
			c1.8-2,4.2-3.1,7.4-3.1c2.8,0,5.1,0.8,6.7,2.5c1.6,1.7,2.4,3.8,2.4,6.5c0,0.5,0,1.1-0.1,1.6c-4.4-0.1-7-0.1-7.7-0.1h-1.4h-1
			C139.7,30.8,138,30.9,135.4,31z"/>
		<path class="st0" d="M111.1,41.8c0.2-2.3,0.4-4.9,0.4-7.7v-5.2c0-3.6-0.1-6.3-0.4-8.1c0.8,0.1,1.5,0.2,2,0.2
			c0.5,0,1.1-0.1,1.8-0.2c-0.1,1.5-0.2,2.8-0.2,3.7c1-1.5,2-2.5,3.2-3.2c1.1-0.6,2.4-1,4-1c4.7,0,7,2.7,7,8c0,0.6,0,2-0.1,4
			c-0.1,2-0.1,3.3-0.1,4c0,1.3,0.1,3.1,0.4,5.5c-0.7-0.1-1.4-0.2-2-0.2c-0.4,0-1,0.1-2,0.2c0.2-4.9,0.4-8.7,0.4-11.2
			c0-1.9-0.1-3.3-0.3-4.1c-0.2-0.9-0.7-1.8-1.4-2.6c-0.7-0.8-1.7-1.2-3-1.2c-4,0-6,2.4-6,7.2v4.2c0,2.5,0.1,5.1,0.4,7.7
			c-0.8-0.1-1.5-0.2-2-0.2C112.6,41.6,111.9,41.7,111.1,41.8z"/>
		<path class="st0" d="M98.3,16.9L98.3,16.9L98.3,16.9z M91.6,31.3c0,3,0.6,5.4,1.7,7c1.1,1.7,2.8,2.5,5.1,2.5
			c2.2,0,3.9-0.8,5.1-2.5c1.1-1.7,1.7-4,1.7-7c0-3-0.6-5.4-1.7-7c-1.2-1.7-2.8-2.5-5-2.5C93.9,21.7,91.6,24.9,91.6,31.3L91.6,31.3z
			 M87.8,31.4c0-3.4,1-6.1,2.9-8.1c1.9-2,4.5-2.9,7.7-2.9c3.2,0,5.7,1,7.7,2.9c2,1.9,2.9,4.6,2.9,7.9c0,3.4-1,6.1-2.9,8.1
			c-1.9,2-4.5,2.9-7.6,2.9c-3.4,0-6-1-7.9-3C88.7,37.3,87.8,34.6,87.8,31.4z"/>
		<path class="st0" d="M85.2,16.6c-2.5-2.6-5.3-3.9-8.2-3.9c-3.7,0-6.6,1.2-8.8,3.6c-2.2,2.4-3.2,5.8-3.2,10.3
			c0,4.6,1.1,8.1,3.3,10.4c2.2,2.3,5.1,3.5,8.6,3.5c3,0,6-1.2,9-3.6l0.2,0.2c-0.2,0.8-0.3,1.6-0.4,2.5c-0.7,0.6-2,1.1-3.7,1.7
			c-1.7,0.6-3.5,0.8-5.3,0.8c-5,0-8.9-1.4-11.7-4.3c-2.9-2.9-4.3-6.6-4.3-11.3c0-4.8,1.5-8.7,4.5-11.4c3-2.8,7-4.1,11.9-4.1
			c3.1,0,6.2,0.7,9.4,2c-0.3,0.7-0.6,1.9-0.9,3.4L85.2,16.6z"/>
	</g>
</g>
<g>
	<g>
		<path class="st0" d="M66.5,52.9c-0.3,0-0.5,0-0.7-0.1c-0.2-0.1-0.4-0.2-0.5-0.3c-0.2-0.2-0.3-0.4-0.3-0.6
			c-0.1-0.2-0.1-0.5-0.1-0.8v-2.9h0.6V51c0,0.2,0,0.4,0,0.6c0,0.1,0.1,0.3,0.2,0.4c0.1,0.1,0.2,0.2,0.3,0.3c0.1,0.1,0.3,0.1,0.5,0.1
			c0.2,0,0.4,0,0.5-0.1c0.2-0.1,0.3-0.2,0.4-0.3c0.1-0.1,0.1-0.3,0.2-0.4c0-0.1,0-0.3,0-0.5v-3h0.6V51c0,0.3,0,0.6-0.1,0.8
			c-0.1,0.2-0.2,0.4-0.4,0.6c-0.2,0.1-0.3,0.3-0.5,0.3C67,52.9,66.8,52.9,66.5,52.9L66.5,52.9z M70,52.9c-0.2,0-0.5,0-0.7-0.1
			c-0.2-0.1-0.4-0.1-0.5-0.2v-0.7h0c0.1,0,0.1,0.1,0.2,0.1c0.1,0,0.2,0.1,0.3,0.2c0.1,0,0.2,0.1,0.3,0.1c0.1,0,0.2,0.1,0.4,0.1
			c0.1,0,0.2,0,0.3,0c0.1,0,0.2,0,0.2-0.1c0.1,0,0.1-0.1,0.2-0.2c0-0.1,0-0.1,0-0.2c0-0.1,0-0.2-0.1-0.3c-0.1-0.1-0.2-0.1-0.4-0.2
			c-0.1,0-0.2,0-0.3-0.1c-0.1,0-0.2-0.1-0.3-0.1c-0.3-0.1-0.5-0.2-0.6-0.4c-0.1-0.2-0.2-0.4-0.2-0.6c0-0.3,0.1-0.6,0.4-0.8
			c0.2-0.2,0.6-0.3,1-0.3c0.2,0,0.4,0,0.6,0.1c0.2,0,0.4,0.1,0.5,0.2v0.6h0c-0.2-0.1-0.3-0.2-0.5-0.3c-0.2-0.1-0.4-0.1-0.6-0.1
			c-0.2,0-0.4,0-0.5,0.1c-0.1,0.1-0.2,0.2-0.2,0.4c0,0.1,0,0.3,0.1,0.3c0.1,0.1,0.2,0.1,0.4,0.2c0.1,0,0.2,0,0.3,0.1
			c0.1,0,0.2,0,0.3,0.1c0.3,0.1,0.5,0.2,0.6,0.3c0.1,0.2,0.2,0.4,0.2,0.6c0,0.2,0,0.3-0.1,0.4c-0.1,0.1-0.1,0.3-0.3,0.4
			c-0.1,0.1-0.3,0.2-0.4,0.2C70.4,52.9,70.2,52.9,70,52.9L70,52.9z M73.9,51.9v-1c-0.1,0-0.3,0-0.5,0.1c-0.2,0-0.4,0.1-0.5,0.1
			c-0.2,0-0.3,0.1-0.4,0.2c-0.1,0.1-0.2,0.2-0.2,0.4c0,0.2,0.1,0.4,0.2,0.5c0.1,0.1,0.3,0.2,0.5,0.2c0.2,0,0.4,0,0.5-0.1
			C73.6,52.2,73.8,52.1,73.9,51.9L73.9,51.9z M73.9,52.4c0,0-0.1,0.1-0.2,0.2c-0.1,0.1-0.2,0.1-0.2,0.2c-0.1,0.1-0.2,0.1-0.3,0.1
			c-0.1,0-0.2,0-0.4,0c-0.1,0-0.3,0-0.4-0.1c-0.1-0.1-0.2-0.1-0.3-0.2c-0.1-0.1-0.2-0.2-0.2-0.4c-0.1-0.1-0.1-0.3-0.1-0.5
			c0-0.2,0.1-0.5,0.2-0.6c0.1-0.2,0.3-0.3,0.5-0.4c0.2-0.1,0.4-0.2,0.7-0.2c0.3,0,0.6-0.1,0.9-0.1v-0.1c0-0.1,0-0.3-0.1-0.3
			c0-0.1-0.1-0.2-0.2-0.2c-0.1,0-0.2-0.1-0.3-0.1c-0.1,0-0.2,0-0.3,0c-0.1,0-0.3,0-0.5,0.1c-0.2,0-0.4,0.1-0.6,0.2h0v-0.6
			c0.1,0,0.3-0.1,0.5-0.1c0.2,0,0.4-0.1,0.6-0.1c0.2,0,0.4,0,0.6,0.1c0.2,0,0.3,0.1,0.5,0.2c0.1,0.1,0.2,0.2,0.3,0.4
			c0.1,0.2,0.1,0.3,0.1,0.6v2.4h-0.6V52.4L73.9,52.4z M78.1,52.8h-0.6v-2c0-0.2,0-0.3,0-0.5c0-0.1,0-0.3-0.1-0.3
			c0-0.1-0.1-0.2-0.2-0.2c-0.1,0-0.2-0.1-0.4-0.1c-0.1,0-0.3,0-0.5,0.1c-0.2,0.1-0.3,0.2-0.5,0.3v2.6h-0.6v-3.5h0.6v0.4
			c0.2-0.2,0.4-0.3,0.5-0.4c0.2-0.1,0.4-0.1,0.5-0.1c0.4,0,0.6,0.1,0.8,0.3c0.2,0.2,0.3,0.6,0.3,1V52.8L78.1,52.8z M81.7,52.8h-0.6
			v-0.4c-0.1,0.1-0.2,0.1-0.2,0.2c-0.1,0.1-0.1,0.1-0.2,0.1c-0.1,0-0.2,0.1-0.3,0.1c-0.1,0-0.2,0-0.3,0c-0.2,0-0.4,0-0.5-0.1
			c-0.2-0.1-0.3-0.2-0.4-0.4c-0.1-0.2-0.2-0.3-0.3-0.6c-0.1-0.2-0.1-0.5-0.1-0.8c0-0.3,0-0.6,0.1-0.8c0.1-0.2,0.2-0.4,0.3-0.6
			c0.1-0.2,0.3-0.3,0.5-0.4c0.2-0.1,0.4-0.1,0.6-0.1c0.2,0,0.3,0,0.5,0.1c0.1,0,0.3,0.1,0.4,0.2v-1.5h0.6V52.8L81.7,52.8z M81.1,52
			v-2c-0.1-0.1-0.3-0.1-0.4-0.1c-0.1,0-0.2,0-0.4,0c-0.3,0-0.5,0.1-0.7,0.3c-0.2,0.2-0.3,0.6-0.3,1c0,0.4,0.1,0.7,0.2,1
			c0.1,0.2,0.3,0.3,0.6,0.3c0.2,0,0.3,0,0.5-0.1C80.8,52.2,81,52.1,81.1,52L81.1,52z M85.5,51c0,0.6-0.1,1.1-0.4,1.4
			c-0.3,0.3-0.7,0.5-1.2,0.5c-0.5,0-0.9-0.2-1.2-0.5c-0.3-0.3-0.4-0.8-0.4-1.4c0-0.6,0.1-1.1,0.4-1.4c0.3-0.3,0.7-0.5,1.2-0.5
			c0.5,0,0.9,0.2,1.2,0.5C85.3,50,85.5,50.5,85.5,51L85.5,51z M84.9,51c0-0.5-0.1-0.8-0.3-1c-0.2-0.2-0.4-0.3-0.7-0.3
			c-0.3,0-0.6,0.1-0.7,0.3c-0.2,0.2-0.3,0.6-0.3,1c0,0.4,0.1,0.8,0.3,1c0.2,0.2,0.4,0.3,0.7,0.3c0.3,0,0.5-0.1,0.7-0.3
			C84.8,51.8,84.9,51.5,84.9,51L84.9,51z M90.9,52.8h-0.6v-2c0-0.2,0-0.3,0-0.5c0-0.1,0-0.3-0.1-0.3c0-0.1-0.1-0.2-0.2-0.2
			c-0.1,0-0.2-0.1-0.4-0.1c-0.1,0-0.3,0-0.5,0.1c-0.2,0.1-0.3,0.2-0.5,0.3v2.6h-0.6v-3.5h0.6v0.4c0.2-0.2,0.4-0.3,0.5-0.4
			c0.2-0.1,0.4-0.1,0.5-0.1c0.3,0,0.6,0.1,0.8,0.3c0.2,0.2,0.3,0.6,0.3,1V52.8L90.9,52.8z M94.7,51c0,0.6-0.1,1.1-0.4,1.4
			c-0.3,0.3-0.7,0.5-1.1,0.5c-0.5,0-0.9-0.2-1.2-0.5c-0.3-0.3-0.4-0.8-0.4-1.4c0-0.6,0.1-1.1,0.4-1.4c0.3-0.3,0.7-0.5,1.2-0.5
			c0.5,0,0.9,0.2,1.1,0.5C94.5,50,94.7,50.5,94.7,51L94.7,51z M94.1,51c0-0.5-0.1-0.8-0.3-1c-0.2-0.2-0.4-0.3-0.7-0.3
			c-0.3,0-0.6,0.1-0.7,0.3c-0.2,0.2-0.3,0.6-0.3,1c0,0.4,0.1,0.8,0.3,1c0.2,0.2,0.4,0.3,0.7,0.3c0.3,0,0.5-0.1,0.7-0.3
			C94,51.8,94.1,51.5,94.1,51L94.1,51z M96.2,52.9c-0.2,0-0.5,0-0.7-0.1c-0.2-0.1-0.4-0.1-0.5-0.2v-0.7h0c0.1,0,0.1,0.1,0.2,0.1
			c0.1,0,0.2,0.1,0.3,0.2c0.1,0,0.2,0.1,0.3,0.1c0.1,0,0.2,0.1,0.4,0.1c0.1,0,0.2,0,0.3,0c0.1,0,0.2,0,0.2-0.1
			c0.1,0,0.1-0.1,0.2-0.2c0-0.1,0-0.1,0-0.2c0-0.1,0-0.2-0.1-0.3c-0.1-0.1-0.2-0.1-0.4-0.2c-0.1,0-0.2,0-0.3-0.1
			c-0.1,0-0.2-0.1-0.3-0.1c-0.3-0.1-0.5-0.2-0.6-0.4c-0.1-0.2-0.2-0.4-0.2-0.6c0-0.3,0.1-0.6,0.4-0.8c0.2-0.2,0.6-0.3,1-0.3
			c0.2,0,0.4,0,0.6,0.1c0.2,0,0.4,0.1,0.5,0.2v0.6h0c-0.2-0.1-0.3-0.2-0.5-0.3c-0.2-0.1-0.4-0.1-0.6-0.1c-0.2,0-0.4,0-0.5,0.1
			c-0.1,0.1-0.2,0.2-0.2,0.4c0,0.1,0,0.3,0.1,0.3c0.1,0.1,0.2,0.1,0.4,0.2c0.1,0,0.2,0,0.3,0.1c0.1,0,0.2,0,0.3,0.1
			c0.3,0.1,0.5,0.2,0.6,0.3c0.1,0.2,0.2,0.4,0.2,0.6c0,0.2,0,0.3-0.1,0.4c-0.1,0.1-0.1,0.3-0.3,0.4c-0.1,0.1-0.3,0.2-0.4,0.2
			C96.7,52.9,96.5,52.9,96.2,52.9L96.2,52.9z M99.1,52.9c-0.2,0-0.5,0-0.7-0.1c-0.2-0.1-0.4-0.1-0.5-0.2v-0.7h0
			c0.1,0,0.1,0.1,0.2,0.1c0.1,0,0.2,0.1,0.3,0.2c0.1,0,0.2,0.1,0.3,0.1c0.1,0,0.2,0.1,0.4,0.1c0.1,0,0.2,0,0.3,0
			c0.1,0,0.2,0,0.2-0.1c0.1,0,0.1-0.1,0.2-0.2c0-0.1,0-0.1,0-0.2c0-0.1,0-0.2-0.1-0.3c-0.1-0.1-0.2-0.1-0.4-0.2
			c-0.1,0-0.2,0-0.3-0.1c-0.1,0-0.2-0.1-0.3-0.1c-0.3-0.1-0.5-0.2-0.6-0.4C98,50.7,98,50.5,98,50.3c0-0.3,0.1-0.6,0.4-0.8
			c0.2-0.2,0.6-0.3,1-0.3c0.2,0,0.4,0,0.6,0.1c0.2,0,0.4,0.1,0.5,0.2v0.6h0c-0.2-0.1-0.3-0.2-0.5-0.3c-0.2-0.1-0.4-0.1-0.6-0.1
			c-0.2,0-0.4,0-0.5,0.1c-0.1,0.1-0.2,0.2-0.2,0.4c0,0.1,0,0.3,0.1,0.3c0.1,0.1,0.2,0.1,0.4,0.2c0.1,0,0.2,0,0.3,0.1
			c0.1,0,0.2,0,0.3,0.1c0.3,0.1,0.5,0.2,0.6,0.3c0.1,0.2,0.2,0.4,0.2,0.6c0,0.2,0,0.3-0.1,0.4c-0.1,0.1-0.1,0.3-0.3,0.4
			c-0.1,0.1-0.3,0.2-0.4,0.2C99.6,52.9,99.4,52.9,99.1,52.9L99.1,52.9z M103.1,51.9v-1c-0.1,0-0.3,0-0.5,0.1c-0.2,0-0.4,0.1-0.5,0.1
			c-0.2,0-0.3,0.1-0.4,0.2c-0.1,0.1-0.2,0.2-0.2,0.4c0,0.2,0.1,0.4,0.2,0.5c0.1,0.1,0.3,0.2,0.5,0.2c0.2,0,0.4,0,0.5-0.1
			C102.8,52.2,102.9,52.1,103.1,51.9L103.1,51.9z M103.1,52.4c0,0-0.1,0.1-0.2,0.2c-0.1,0.1-0.2,0.1-0.2,0.2
			c-0.1,0.1-0.2,0.1-0.3,0.1c-0.1,0-0.2,0-0.4,0c-0.1,0-0.3,0-0.4-0.1c-0.1-0.1-0.2-0.1-0.3-0.2c-0.1-0.1-0.2-0.2-0.2-0.4
			c-0.1-0.1-0.1-0.3-0.1-0.5c0-0.2,0.1-0.5,0.2-0.6c0.1-0.2,0.3-0.3,0.5-0.4c0.2-0.1,0.4-0.2,0.7-0.2c0.3,0,0.6-0.1,0.9-0.1v-0.1
			c0-0.1,0-0.3-0.1-0.3c0-0.1-0.1-0.2-0.2-0.2c-0.1,0-0.2-0.1-0.3-0.1c-0.1,0-0.2,0-0.3,0c-0.1,0-0.3,0-0.5,0.1
			c-0.2,0-0.4,0.1-0.6,0.2h0v-0.6c0.1,0,0.3-0.1,0.5-0.1c0.2,0,0.4-0.1,0.6-0.1c0.2,0,0.4,0,0.6,0.1c0.2,0,0.3,0.1,0.5,0.2
			c0.1,0.1,0.2,0.2,0.3,0.4c0.1,0.2,0.1,0.3,0.1,0.6v2.4h-0.6V52.4L103.1,52.4z M109.1,50.7c0-0.1,0-0.1,0-0.2c0,0,0-0.1,0-0.1
			c0-0.2-0.1-0.4-0.2-0.5c-0.1-0.1-0.3-0.2-0.6-0.2c-0.3,0-0.6,0.1-0.8,0.3c-0.2,0.2-0.4,0.4-0.5,0.7H109.1L109.1,50.7z M107.9,52.9
			c-0.5,0-0.9-0.1-1.2-0.3c-0.3-0.2-0.4-0.6-0.4-1c0-0.6,0.2-1.2,0.6-1.7c0.4-0.5,0.9-0.7,1.5-0.7c0.4,0,0.7,0.1,0.9,0.3
			c0.2,0.2,0.3,0.5,0.3,0.8c0,0.1,0,0.2,0,0.3c0,0.1,0,0.3-0.1,0.5H107c0,0.1,0,0.1,0,0.2c0,0.1,0,0.1,0,0.2c0,0.3,0.1,0.5,0.3,0.7
			c0.2,0.2,0.4,0.3,0.8,0.3c0.2,0,0.5,0,0.7-0.1c0.2-0.1,0.5-0.2,0.6-0.3h0l-0.1,0.6c-0.1,0-0.2,0.1-0.3,0.1c-0.1,0-0.2,0.1-0.3,0.1
			c-0.1,0-0.2,0.1-0.3,0.1C108.2,52.9,108.1,52.9,107.9,52.9L107.9,52.9z M111.6,51l-1.8,1.8h0.7l1.3-1.4l0.7,1.4h0.7l-1-1.8
			l1.8-1.8h-0.7l-1.3,1.4l-0.7-1.4h-0.7L111.6,51L111.6,51z M117.6,50.4c0,0.4-0.1,0.7-0.2,1c-0.1,0.3-0.3,0.6-0.4,0.8
			c-0.2,0.2-0.4,0.4-0.6,0.5c-0.2,0.1-0.5,0.2-0.8,0.2c-0.2,0-0.4,0-0.5-0.1c-0.2,0-0.3-0.1-0.4-0.2l-0.3,1.5h-0.6l1.1-4.9h0.6
			l-0.1,0.4c0.2-0.1,0.4-0.3,0.6-0.3c0.2-0.1,0.4-0.1,0.6-0.1c0.3,0,0.6,0.1,0.8,0.3C117.5,49.7,117.6,50,117.6,50.4L117.6,50.4z
			 M117,50.5c0-0.3-0.1-0.4-0.2-0.6c-0.1-0.1-0.3-0.2-0.5-0.2c-0.2,0-0.4,0-0.5,0.1c-0.2,0.1-0.4,0.2-0.5,0.3l-0.5,2
			c0.1,0.1,0.3,0.1,0.4,0.2c0.1,0,0.3,0.1,0.5,0.1c0.2,0,0.4-0.1,0.6-0.2c0.2-0.1,0.3-0.2,0.4-0.4c0.1-0.2,0.2-0.4,0.3-0.6
			C116.9,51,117,50.8,117,50.5L117,50.5z M120.9,50.7c0-0.1,0-0.1,0-0.2c0,0,0-0.1,0-0.1c0-0.2-0.1-0.4-0.2-0.5
			c-0.1-0.1-0.3-0.2-0.6-0.2c-0.3,0-0.6,0.1-0.8,0.3c-0.2,0.2-0.4,0.4-0.5,0.7H120.9L120.9,50.7z M119.7,52.9
			c-0.5,0-0.9-0.1-1.2-0.3c-0.3-0.2-0.4-0.6-0.4-1c0-0.6,0.2-1.2,0.6-1.7c0.4-0.5,0.9-0.7,1.5-0.7c0.4,0,0.7,0.1,0.9,0.3
			c0.2,0.2,0.3,0.5,0.3,0.8c0,0.1,0,0.2,0,0.3c0,0.1,0,0.3-0.1,0.5h-2.6c0,0.1,0,0.1,0,0.2c0,0.1,0,0.1,0,0.2c0,0.3,0.1,0.5,0.3,0.7
			c0.2,0.2,0.4,0.3,0.8,0.3c0.2,0,0.5,0,0.7-0.1c0.2-0.1,0.5-0.2,0.6-0.3h0l-0.1,0.6c-0.1,0-0.2,0.1-0.3,0.1c-0.1,0-0.2,0.1-0.3,0.1
			c-0.1,0-0.2,0.1-0.3,0.1C120,52.9,119.9,52.9,119.7,52.9L119.7,52.9z M124.8,49.9L124.8,49.9c-0.1,0-0.2,0-0.3,0
			c-0.1,0-0.2,0-0.3,0c-0.2,0-0.4,0-0.6,0.1c-0.2,0.1-0.4,0.2-0.6,0.3l-0.6,2.5h-0.6l0.8-3.5h0.6l-0.1,0.5c0.3-0.2,0.5-0.3,0.7-0.4
			c0.2-0.1,0.4-0.1,0.6-0.1c0.1,0,0.2,0,0.2,0c0,0,0.1,0,0.2,0L124.8,49.9L124.8,49.9z M127.4,49.3l-0.1,0.5H126l-0.4,1.6
			c0,0.1,0,0.2-0.1,0.3c0,0.1,0,0.2,0,0.3c0,0.2,0,0.3,0.1,0.3c0.1,0.1,0.2,0.1,0.4,0.1c0.1,0,0.2,0,0.3,0c0.1,0,0.2-0.1,0.2-0.1h0
			l-0.1,0.5c-0.1,0-0.2,0.1-0.4,0.1c-0.1,0-0.3,0-0.4,0c-0.3,0-0.5-0.1-0.7-0.2c-0.2-0.1-0.2-0.3-0.2-0.6c0-0.1,0-0.1,0-0.2
			c0-0.1,0-0.1,0-0.2l0.4-1.9H125l0.1-0.5h0.4l0.2-1h0.6l-0.2,1H127.4L127.4,49.3z M129,48.1l-0.1,0.6h-0.7l0.1-0.6H129L129,48.1z
			 M128.7,49.3h-0.6l-0.8,3.5h0.6L128.7,49.3L128.7,49.3z M130.1,52.9c-0.3,0-0.5,0-0.7-0.1c-0.2-0.1-0.4-0.1-0.5-0.2L129,52h0
			c0,0,0.1,0.1,0.2,0.1c0.1,0.1,0.2,0.1,0.3,0.2c0.1,0,0.2,0.1,0.3,0.1c0.1,0,0.3,0.1,0.4,0.1c0.3,0,0.5-0.1,0.7-0.2
			c0.2-0.1,0.3-0.3,0.3-0.5c0-0.1,0-0.2-0.1-0.3c-0.1-0.1-0.2-0.1-0.4-0.1c-0.1,0-0.2,0-0.3-0.1c-0.1,0-0.2-0.1-0.4-0.1
			c-0.2-0.1-0.4-0.2-0.5-0.3c-0.1-0.1-0.2-0.3-0.2-0.5c0-0.2,0-0.3,0.1-0.5c0.1-0.1,0.2-0.3,0.3-0.4c0.1-0.1,0.3-0.2,0.5-0.3
			c0.2-0.1,0.4-0.1,0.7-0.1c0.2,0,0.4,0,0.6,0.1c0.2,0.1,0.4,0.1,0.5,0.2l-0.1,0.6h0c0,0-0.1-0.1-0.2-0.1c-0.1,0-0.2-0.1-0.3-0.1
			c-0.1,0-0.2-0.1-0.3-0.1c-0.1,0-0.2,0-0.4,0c-0.3,0-0.5,0.1-0.6,0.2c-0.2,0.1-0.2,0.3-0.2,0.5c0,0.1,0,0.2,0.1,0.3
			c0.1,0.1,0.2,0.1,0.4,0.2c0.1,0,0.2,0,0.3,0.1c0.1,0,0.2,0,0.3,0.1c0.2,0.1,0.4,0.2,0.6,0.3c0.1,0.1,0.2,0.3,0.2,0.5
			c0,0.2,0,0.3-0.1,0.5c-0.1,0.2-0.2,0.3-0.3,0.4c-0.1,0.1-0.3,0.2-0.5,0.3C130.7,52.9,130.4,52.9,130.1,52.9L130.1,52.9z
			 M135.3,50.7c0-0.1,0-0.1,0-0.2c0,0,0-0.1,0-0.1c0-0.2-0.1-0.4-0.2-0.5c-0.1-0.1-0.3-0.2-0.6-0.2c-0.3,0-0.6,0.1-0.8,0.3
			c-0.2,0.2-0.4,0.4-0.5,0.7H135.3L135.3,50.7z M134.1,52.9c-0.5,0-0.9-0.1-1.2-0.3c-0.3-0.2-0.4-0.6-0.4-1c0-0.6,0.2-1.2,0.6-1.7
			c0.4-0.5,0.9-0.7,1.5-0.7c0.4,0,0.7,0.1,0.9,0.3c0.2,0.2,0.3,0.5,0.3,0.8c0,0.1,0,0.2,0,0.3c0,0.1,0,0.3-0.1,0.5h-2.6
			c0,0.1,0,0.1,0,0.2c0,0.1,0,0.1,0,0.2c0,0.3,0.1,0.5,0.3,0.7c0.2,0.2,0.4,0.3,0.8,0.3c0.2,0,0.5,0,0.7-0.1
			c0.2-0.1,0.5-0.2,0.6-0.3h0l-0.1,0.6c-0.1,0-0.2,0.1-0.3,0.1c-0.1,0-0.2,0.1-0.3,0.1c-0.1,0-0.2,0.1-0.3,0.1
			C134.4,52.9,134.3,52.9,134.1,52.9L134.1,52.9z M141.8,51c0,0.6-0.1,1.1-0.4,1.4c-0.3,0.3-0.6,0.5-1.1,0.5c-0.2,0-0.3,0-0.5-0.1
			c-0.1,0-0.3-0.1-0.4-0.2v1.5h-0.6v-4.9h0.6v0.4c0.1-0.1,0.3-0.2,0.5-0.3c0.2-0.1,0.4-0.1,0.6-0.1c0.4,0,0.7,0.2,1,0.5
			C141.7,50,141.8,50.4,141.8,51L141.8,51z M141.2,51c0-0.4-0.1-0.7-0.2-0.9c-0.1-0.2-0.3-0.3-0.6-0.3c-0.2,0-0.3,0-0.5,0.1
			c-0.2,0.1-0.3,0.2-0.4,0.3v2c0.2,0.1,0.3,0.1,0.4,0.2c0.1,0,0.2,0,0.4,0c0.3,0,0.5-0.1,0.7-0.3C141.1,51.8,141.2,51.5,141.2,51
			L141.2,51z M144.4,51.9v-1c-0.1,0-0.3,0-0.5,0.1c-0.2,0-0.4,0.1-0.5,0.1c-0.2,0-0.3,0.1-0.4,0.2c-0.1,0.1-0.2,0.2-0.2,0.4
			c0,0.2,0.1,0.4,0.2,0.5c0.1,0.1,0.3,0.2,0.5,0.2c0.2,0,0.4,0,0.5-0.1C144.1,52.2,144.3,52.1,144.4,51.9L144.4,51.9z M144.4,52.4
			c0,0-0.1,0.1-0.2,0.2c-0.1,0.1-0.2,0.1-0.2,0.2c-0.1,0.1-0.2,0.1-0.3,0.1c-0.1,0-0.2,0-0.4,0c-0.1,0-0.3,0-0.4-0.1
			c-0.1-0.1-0.2-0.1-0.3-0.2c-0.1-0.1-0.2-0.2-0.2-0.4c-0.1-0.1-0.1-0.3-0.1-0.5c0-0.2,0.1-0.5,0.2-0.6c0.1-0.2,0.3-0.3,0.5-0.4
			c0.2-0.1,0.4-0.2,0.7-0.2c0.3,0,0.6-0.1,0.9-0.1v-0.1c0-0.1,0-0.3-0.1-0.3c0-0.1-0.1-0.2-0.2-0.2c-0.1,0-0.2-0.1-0.3-0.1
			c-0.1,0-0.2,0-0.3,0c-0.1,0-0.3,0-0.5,0.1c-0.2,0-0.4,0.1-0.6,0.2h0v-0.6c0.1,0,0.3-0.1,0.5-0.1c0.2,0,0.4-0.1,0.6-0.1
			c0.2,0,0.4,0,0.6,0.1c0.2,0,0.3,0.1,0.5,0.2c0.1,0.1,0.2,0.2,0.3,0.4c0.1,0.2,0.1,0.3,0.1,0.6v2.4h-0.6V52.4L144.4,52.4z
			 M147.7,49.9L147.7,49.9c-0.1,0-0.1,0-0.2,0c0,0-0.1,0-0.2,0c-0.2,0-0.3,0-0.5,0.1c-0.2,0.1-0.3,0.2-0.5,0.3v2.5h-0.6v-3.5h0.6
			v0.5c0.2-0.2,0.4-0.3,0.6-0.4c0.2-0.1,0.3-0.1,0.5-0.1c0.1,0,0.1,0,0.1,0c0,0,0.1,0,0.1,0V49.9L147.7,49.9z M150.1,51.9v-1
			c-0.1,0-0.3,0-0.5,0.1c-0.2,0-0.4,0.1-0.5,0.1c-0.2,0-0.3,0.1-0.4,0.2c-0.1,0.1-0.2,0.2-0.2,0.4c0,0.2,0.1,0.4,0.2,0.5
			c0.1,0.1,0.3,0.2,0.5,0.2c0.2,0,0.4,0,0.5-0.1C149.8,52.2,149.9,52.1,150.1,51.9L150.1,51.9z M150.1,52.4c0,0-0.1,0.1-0.2,0.2
			c-0.1,0.1-0.2,0.1-0.2,0.2c-0.1,0.1-0.2,0.1-0.3,0.1c-0.1,0-0.2,0-0.4,0c-0.1,0-0.3,0-0.4-0.1c-0.1-0.1-0.2-0.1-0.3-0.2
			c-0.1-0.1-0.2-0.2-0.2-0.4c-0.1-0.1-0.1-0.3-0.1-0.5c0-0.2,0.1-0.5,0.2-0.6c0.1-0.2,0.3-0.3,0.5-0.4c0.2-0.1,0.4-0.2,0.7-0.2
			c0.3,0,0.6-0.1,0.9-0.1v-0.1c0-0.1,0-0.3-0.1-0.3c0-0.1-0.1-0.2-0.2-0.2c-0.1,0-0.2-0.1-0.3-0.1c-0.1,0-0.2,0-0.3,0
			c-0.1,0-0.3,0-0.5,0.1c-0.2,0-0.4,0.1-0.6,0.2h0v-0.6c0.1,0,0.3-0.1,0.5-0.1c0.2,0,0.4-0.1,0.6-0.1c0.2,0,0.4,0,0.6,0.1
			c0.2,0,0.3,0.1,0.5,0.2c0.1,0.1,0.2,0.2,0.3,0.4c0.1,0.2,0.1,0.3,0.1,0.6v2.4h-0.6V52.4z"/>
		<path class="st0" d="M155.5,51.9v-1c-0.1,0-0.3,0-0.5,0.1c-0.2,0-0.4,0.1-0.5,0.1c-0.2,0-0.3,0.1-0.4,0.2
			c-0.1,0.1-0.2,0.2-0.2,0.4c0,0.2,0.1,0.4,0.2,0.5c0.1,0.1,0.3,0.2,0.5,0.2c0.2,0,0.4,0,0.5-0.1C155.2,52.2,155.4,52.1,155.5,51.9
			L155.5,51.9z M155.5,52.4c0,0-0.1,0.1-0.2,0.2c-0.1,0.1-0.2,0.1-0.2,0.2c-0.1,0.1-0.2,0.1-0.3,0.1c-0.1,0-0.2,0-0.4,0
			c-0.1,0-0.3,0-0.4-0.1c-0.1-0.1-0.2-0.1-0.3-0.2c-0.1-0.1-0.2-0.2-0.2-0.4c-0.1-0.1-0.1-0.3-0.1-0.5c0-0.2,0.1-0.5,0.2-0.6
			c0.1-0.2,0.3-0.3,0.5-0.4c0.2-0.1,0.4-0.2,0.7-0.2c0.3,0,0.6-0.1,0.9-0.1v-0.1c0-0.1,0-0.3-0.1-0.3c0-0.1-0.1-0.2-0.2-0.2
			c-0.1,0-0.2-0.1-0.3-0.1c-0.1,0-0.2,0-0.3,0c-0.1,0-0.3,0-0.5,0.1c-0.2,0-0.4,0.1-0.6,0.2h0v-0.6c0.1,0,0.3-0.1,0.5-0.1
			c0.2,0,0.4-0.1,0.6-0.1c0.2,0,0.4,0,0.6,0.1c0.2,0,0.3,0.1,0.5,0.2c0.1,0.1,0.2,0.2,0.3,0.4c0.1,0.2,0.1,0.3,0.1,0.6v2.4h-0.6
			V52.4L155.5,52.4z M159.7,52.8h-0.6v-0.4c-0.2,0.2-0.4,0.3-0.5,0.4c-0.2,0.1-0.3,0.1-0.6,0.1c-0.2,0-0.3,0-0.4-0.1
			c-0.1-0.1-0.3-0.1-0.4-0.2c-0.1-0.1-0.2-0.2-0.2-0.4c-0.1-0.2-0.1-0.4-0.1-0.6v-2.3h0.6v2c0,0.2,0,0.3,0,0.5c0,0.1,0,0.2,0.1,0.3
			c0,0.1,0.1,0.2,0.2,0.2c0.1,0,0.2,0.1,0.4,0.1c0.1,0,0.3,0,0.5-0.1c0.2-0.1,0.3-0.2,0.5-0.3v-2.6h0.6V52.8L159.7,52.8z
			 M164.6,52.8v-2.1c0-0.2,0-0.3,0-0.5c0-0.1,0-0.2-0.1-0.3c0-0.1-0.1-0.1-0.2-0.2c-0.1,0-0.2-0.1-0.3-0.1c-0.1,0-0.3,0-0.4,0.1
			c-0.1,0.1-0.3,0.2-0.4,0.3c0,0,0,0.1,0,0.1c0,0.1,0,0.1,0,0.2v2.3h-0.6v-2.1c0-0.2,0-0.3,0-0.5c0-0.1,0-0.2-0.1-0.3
			c0-0.1-0.1-0.1-0.2-0.2c-0.1,0-0.2-0.1-0.3-0.1c-0.1,0-0.3,0-0.4,0.1c-0.1,0.1-0.3,0.2-0.4,0.3v2.6h-0.6v-3.5h0.6v0.4
			c0.2-0.2,0.3-0.3,0.5-0.4c0.2-0.1,0.3-0.1,0.5-0.1c0.2,0,0.4,0,0.6,0.1c0.2,0.1,0.3,0.3,0.4,0.5c0.2-0.2,0.4-0.4,0.5-0.5
			c0.2-0.1,0.4-0.2,0.6-0.2c0.2,0,0.3,0,0.4,0.1c0.1,0,0.2,0.1,0.3,0.2c0.1,0.1,0.2,0.2,0.2,0.4c0.1,0.2,0.1,0.4,0.1,0.6v2.3H164.6
			L164.6,52.8z M167.6,52.9c-0.6,0-1-0.2-1.3-0.5c-0.3-0.3-0.5-0.8-0.5-1.4c0-0.6,0.2-1,0.5-1.4c0.3-0.3,0.7-0.5,1.2-0.5
			c0.2,0,0.4,0,0.6,0.1c0.2,0.1,0.3,0.2,0.4,0.3c0.1,0.1,0.2,0.3,0.3,0.5c0.1,0.2,0.1,0.4,0.1,0.7v0.3h-2.5c0,0.4,0.1,0.7,0.3,0.9
			c0.2,0.2,0.5,0.3,0.9,0.3c0.1,0,0.3,0,0.4,0c0.1,0,0.2-0.1,0.3-0.1c0.1,0,0.2-0.1,0.3-0.1c0.1,0,0.1-0.1,0.2-0.1h0v0.7
			c-0.1,0-0.2,0.1-0.3,0.1c-0.1,0-0.2,0.1-0.3,0.1c-0.1,0-0.2,0.1-0.3,0.1C167.8,52.9,167.7,52.9,167.6,52.9L167.6,52.9z
			 M168.3,50.6c0-0.2,0-0.3-0.1-0.4c0-0.1-0.1-0.2-0.1-0.3c-0.1-0.1-0.2-0.2-0.3-0.2c-0.1,0-0.2-0.1-0.4-0.1c-0.2,0-0.3,0-0.4,0.1
			c-0.1,0-0.2,0.1-0.3,0.2c-0.1,0.1-0.2,0.2-0.2,0.3c0,0.1-0.1,0.2-0.1,0.4H168.3L168.3,50.6z M172.2,52.8h-0.6v-2
			c0-0.2,0-0.3,0-0.5c0-0.1,0-0.3-0.1-0.3c0-0.1-0.1-0.2-0.2-0.2c-0.1,0-0.2-0.1-0.4-0.1c-0.1,0-0.3,0-0.5,0.1
			c-0.2,0.1-0.3,0.2-0.5,0.3v2.6h-0.6v-3.5h0.6v0.4c0.2-0.2,0.4-0.3,0.5-0.4c0.2-0.1,0.4-0.1,0.5-0.1c0.3,0,0.6,0.1,0.8,0.3
			c0.2,0.2,0.3,0.6,0.3,1V52.8L172.2,52.8z M174.1,52.9c-0.3,0-0.6-0.1-0.8-0.3c-0.2-0.2-0.3-0.5-0.3-0.9v-2h-0.4v-0.5h0.4v-1h0.6v1
			h1.1v0.5h-1.1v1.7c0,0.2,0,0.3,0,0.4c0,0.1,0,0.2,0.1,0.3c0,0.1,0.1,0.1,0.2,0.2c0.1,0,0.2,0.1,0.3,0.1c0.1,0,0.2,0,0.3,0
			c0.1,0,0.2-0.1,0.2-0.1h0v0.5c-0.1,0-0.2,0.1-0.3,0.1C174.3,52.9,174.2,52.9,174.1,52.9L174.1,52.9z M177.2,51.9v-1
			c-0.1,0-0.3,0-0.5,0.1c-0.2,0-0.4,0.1-0.5,0.1c-0.2,0-0.3,0.1-0.4,0.2c-0.1,0.1-0.2,0.2-0.2,0.4c0,0.2,0.1,0.4,0.2,0.5
			c0.1,0.1,0.3,0.2,0.5,0.2c0.2,0,0.4,0,0.5-0.1C176.9,52.2,177.1,52.1,177.2,51.9L177.2,51.9z M177.2,52.4c0,0-0.1,0.1-0.2,0.2
			c-0.1,0.1-0.2,0.1-0.2,0.2c-0.1,0.1-0.2,0.1-0.3,0.1c-0.1,0-0.2,0-0.4,0c-0.1,0-0.3,0-0.4-0.1c-0.1-0.1-0.2-0.1-0.3-0.2
			c-0.1-0.1-0.2-0.2-0.2-0.4c-0.1-0.1-0.1-0.3-0.1-0.5c0-0.2,0.1-0.5,0.2-0.6c0.1-0.2,0.3-0.3,0.5-0.4c0.2-0.1,0.4-0.2,0.7-0.2
			c0.3,0,0.6-0.1,0.9-0.1v-0.1c0-0.1,0-0.3-0.1-0.3c0-0.1-0.1-0.2-0.2-0.2c-0.1,0-0.2-0.1-0.3-0.1c-0.1,0-0.2,0-0.3,0
			c-0.1,0-0.3,0-0.5,0.1c-0.2,0-0.4,0.1-0.6,0.2h0v-0.6c0.1,0,0.3-0.1,0.5-0.1c0.2,0,0.4-0.1,0.6-0.1c0.2,0,0.4,0,0.6,0.1
			c0.2,0,0.3,0.1,0.5,0.2c0.1,0.1,0.2,0.2,0.3,0.4c0.1,0.2,0.1,0.3,0.1,0.6v2.4h-0.6V52.4L177.2,52.4z M180.5,49.9L180.5,49.9
			c-0.1,0-0.1,0-0.2,0c0,0-0.1,0-0.2,0c-0.2,0-0.3,0-0.5,0.1c-0.2,0.1-0.3,0.2-0.5,0.3v2.5h-0.6v-3.5h0.6v0.5
			c0.2-0.2,0.4-0.3,0.6-0.4c0.2-0.1,0.3-0.1,0.5-0.1c0.1,0,0.1,0,0.1,0c0,0,0.1,0,0.1,0V49.9L180.5,49.9z M185,51.9v-1
			c-0.1,0-0.3,0-0.5,0.1c-0.2,0-0.4,0.1-0.5,0.1c-0.2,0-0.3,0.1-0.4,0.2c-0.1,0.1-0.2,0.2-0.2,0.4c0,0.2,0.1,0.4,0.2,0.5
			c0.1,0.1,0.3,0.2,0.5,0.2c0.2,0,0.4,0,0.5-0.1C184.7,52.2,184.9,52.1,185,51.9L185,51.9z M185,52.4c0,0-0.1,0.1-0.2,0.2
			c-0.1,0.1-0.2,0.1-0.2,0.2c-0.1,0.1-0.2,0.1-0.3,0.1c-0.1,0-0.2,0-0.4,0c-0.1,0-0.3,0-0.4-0.1c-0.1-0.1-0.2-0.1-0.3-0.2
			c-0.1-0.1-0.2-0.2-0.2-0.4c-0.1-0.1-0.1-0.3-0.1-0.5c0-0.2,0.1-0.5,0.2-0.6c0.1-0.2,0.3-0.3,0.5-0.4c0.2-0.1,0.4-0.2,0.7-0.2
			c0.3,0,0.6-0.1,0.9-0.1v-0.1c0-0.1,0-0.3-0.1-0.3c0-0.1-0.1-0.2-0.2-0.2c-0.1,0-0.2-0.1-0.3-0.1c-0.1,0-0.2,0-0.3,0
			c-0.1,0-0.3,0-0.5,0.1c-0.2,0-0.4,0.1-0.6,0.2h0v-0.6c0.1,0,0.3-0.1,0.5-0.1c0.2,0,0.4-0.1,0.6-0.1c0.2,0,0.4,0,0.6,0.1
			c0.2,0,0.3,0.1,0.5,0.2c0.1,0.1,0.2,0.2,0.3,0.4c0.1,0.2,0.1,0.3,0.1,0.6v2.4H185V52.4L185,52.4z M189.4,52.9
			c-0.2,0-0.5,0-0.7-0.1c-0.2-0.1-0.4-0.1-0.5-0.2v-0.7h0c0.1,0,0.1,0.1,0.2,0.1c0.1,0,0.2,0.1,0.3,0.2c0.1,0,0.2,0.1,0.3,0.1
			c0.1,0,0.2,0.1,0.4,0.1c0.1,0,0.2,0,0.3,0c0.1,0,0.2,0,0.2-0.1c0.1,0,0.1-0.1,0.2-0.2c0-0.1,0-0.1,0-0.2c0-0.1,0-0.2-0.1-0.3
			c-0.1-0.1-0.2-0.1-0.4-0.2c-0.1,0-0.2,0-0.3-0.1c-0.1,0-0.2-0.1-0.3-0.1c-0.3-0.1-0.5-0.2-0.6-0.4c-0.1-0.2-0.2-0.4-0.2-0.6
			c0-0.3,0.1-0.6,0.4-0.8c0.2-0.2,0.6-0.3,1-0.3c0.2,0,0.4,0,0.6,0.1c0.2,0,0.4,0.1,0.5,0.2v0.6h0c-0.2-0.1-0.3-0.2-0.5-0.3
			c-0.2-0.1-0.4-0.1-0.6-0.1c-0.2,0-0.4,0-0.5,0.1c-0.1,0.1-0.2,0.2-0.2,0.4c0,0.1,0,0.3,0.1,0.3c0.1,0.1,0.2,0.1,0.4,0.2
			c0.1,0,0.2,0,0.3,0.1c0.1,0,0.2,0,0.3,0.1c0.3,0.1,0.5,0.2,0.6,0.3c0.1,0.2,0.2,0.4,0.2,0.6c0,0.2,0,0.3-0.1,0.4
			c-0.1,0.1-0.1,0.3-0.3,0.4c-0.1,0.1-0.3,0.2-0.4,0.2C189.9,52.9,189.7,52.9,189.4,52.9L189.4,52.9z M194.1,52.8h-0.6v-0.4
			c-0.2,0.2-0.4,0.3-0.5,0.4c-0.2,0.1-0.3,0.1-0.6,0.1c-0.2,0-0.3,0-0.4-0.1c-0.1-0.1-0.3-0.1-0.4-0.2c-0.1-0.1-0.2-0.2-0.2-0.4
			c-0.1-0.2-0.1-0.4-0.1-0.6v-2.3h0.6v2c0,0.2,0,0.3,0,0.5c0,0.1,0,0.2,0.1,0.3c0,0.1,0.1,0.2,0.2,0.2c0.1,0,0.2,0.1,0.4,0.1
			c0.1,0,0.3,0,0.5-0.1c0.2-0.1,0.3-0.2,0.5-0.3v-2.6h0.6V52.8L194.1,52.8z M197,51.9v-1c-0.1,0-0.3,0-0.5,0.1
			c-0.2,0-0.4,0.1-0.5,0.1c-0.2,0-0.3,0.1-0.4,0.2c-0.1,0.1-0.2,0.2-0.2,0.4c0,0.2,0.1,0.4,0.2,0.5c0.1,0.1,0.3,0.2,0.5,0.2
			c0.2,0,0.4,0,0.5-0.1C196.7,52.2,196.8,52.1,197,51.9L197,51.9z M197,52.4c0,0-0.1,0.1-0.2,0.2c-0.1,0.1-0.2,0.1-0.2,0.2
			c-0.1,0.1-0.2,0.1-0.3,0.1c-0.1,0-0.2,0-0.4,0c-0.1,0-0.3,0-0.4-0.1c-0.1-0.1-0.2-0.1-0.3-0.2c-0.1-0.1-0.2-0.2-0.2-0.4
			c-0.1-0.1-0.1-0.3-0.1-0.5c0-0.2,0.1-0.5,0.2-0.6c0.1-0.2,0.3-0.3,0.5-0.4c0.2-0.1,0.4-0.2,0.7-0.2c0.3,0,0.6-0.1,0.9-0.1v-0.1
			c0-0.1,0-0.3-0.1-0.3c0-0.1-0.1-0.2-0.2-0.2c-0.1,0-0.2-0.1-0.3-0.1c-0.1,0-0.2,0-0.3,0c-0.1,0-0.3,0-0.5,0.1
			c-0.2,0-0.4,0.1-0.6,0.2h0v-0.6c0.1,0,0.3-0.1,0.5-0.1c0.2,0,0.4-0.1,0.6-0.1c0.2,0,0.4,0,0.6,0.1c0.2,0,0.3,0.1,0.5,0.2
			c0.1,0.1,0.2,0.2,0.3,0.4c0.1,0.2,0.1,0.3,0.1,0.6v2.4H197V52.4L197,52.4z M199.3,52.8h-0.8v-0.9h0.8V52.8z"/>
	</g>
</g>
<path class="st0" d="M42.2,15.3c-12.3,0-26.1,11.9-30.7,26.5c-4.6,14.6,1.7,26.5,14,26.5c12.3,0,26.1-11.9,30.7-26.5
	C60.9,27.2,54.6,15.3,42.2,15.3z M53.6,41.4c-3.9,14.3-15.7,25.8-26.3,25.8c-10.6,0-16-11.6-12-25.8C19.2,27.1,31,15.6,41.6,15.6
	C52.2,15.6,57.6,27.1,53.6,41.4z"/>
<path class="st0" d="M72.6,39.1"/>
<path class="st0" d="M72.9,14.8"/>
<g>
	<g>
		<g>
			<path class="st1" d="M32,79l-0.8-0.2c6.6-25.1,10.9-45,5.3-72.6L37.3,6C42.9,33.8,38.6,53.8,32,79z"/>
		</g>
		<g>
			<path class="st1" d="M32.2,78.6l-0.8-0.2l1.1-4.3c6.3-23.8,12.8-48.3,7.7-73.9L41,0c5.2,25.8-1.4,50.4-7.7,74.3L32.2,78.6z"/>
		</g>
	</g>
</g>
<g>
	<g>
		<g>
			<path class="st1" d="M71.5,63.9C46.4,51.4,26,50.4,0,50.3l0-0.8c26.1,0.1,46.5,1.2,71.8,13.7L71.5,63.9z"/>
		</g>
		<g>
			<path class="st1" d="M78.3,61.9C54.9,50.3,29.5,50.2,4.9,50.2l-4.4,0l0-0.8l4.4,0c24.7,0.1,50.2,0.1,73.7,11.8L78.3,61.9z"/>
		</g>
	</g>
</g>
</svg>
