<?xml version="1.0" encoding="utf-8"?>
<!-- Generator: Adobe Illustrator 19.1.0, SVG Export Plug-In . SVG Version: 6.00 Build 0)  -->
<svg version="1.1" id="Layer_1" xmlns="http://www.w3.org/2000/svg" xmlns:xlink="http://www.w3.org/1999/xlink" x="0px" y="0px"
	 viewBox="0 0 234.6 116.2" style="enable-background:new 0 0 234.6 116.2;" xml:space="preserve">
<style type="text/css">
	.st0{fill:#243942;}
	.st1{fill-rule:evenodd;clip-rule:evenodd;fill:#243942;}
</style>
<g>
	<path class="st0" d="M109,38.5c0,3.9-3.2,7.1-7.1,7.1c-3.9,0-7.1-3.2-7.1-7.1c0-3.9,3.2-7.1,7.1-7.1l1.4,0.1
		c11.3,0,11.3-17.3,0-17.3l-1.4,0.1c-3.9,0-7.1-3.2-7.1-7.1c0-3.9,3.2-7.1,7.1-7.1c3.9,0,7.1,3.2,7.1,7.1L109,8.5
		c0,11.3,17.2,11.3,17.2,0l-0.1-1.4c0-3.9,3.2-7.1,7.1-7.1c3.9,0,7.1,3.2,7.1,7.1c0,3.9-3.2,7.1-7.1,7.1l-1.4-0.1
		c-11.3,0-11.3,17.3,0,17.3l1.4-0.1c3.9,0,7.1,3.2,7.1,7.1c0,3.9-3.2,7.1-7.1,7.1c-3.9,0-7.1-3.2-7.1-7.1l0.1-1.4
		c0-11.3-17.2-11.3-17.2,0L109,38.5"/>
	<path class="st1" d="M43.6,79.8c2.7,0,3.6,1,3.6,3.5v4.1c0,2.6-0.9,3.3-3.5,3.3h-2.3v-11H43.6 M43.3,65.2c2.7,0,3.6,1,3.6,3.5v1.7
		c0,2.6-0.9,3.3-3.5,3.3h-2v-8.5H43.3z M31.8,76.7V58.4h13.7c3.3,0,5.4,0.5,6.7,1.3c3.8,2.1,3.8,5.9,3.8,8.1c0,2.2-0.2,4.6-1.8,6.4
		c-1,1.1-2.3,1.7-3.6,2.1c0.9,0.3,1.7,0.6,2.3,0.9c3.9,2.2,3.9,6.1,3.9,8.4v2c0,2.4,0,5.1-1.9,7.2c-2.1,2.4-5.4,2.6-8.5,2.6H31.8
		V76.7z M0,97.4h9.3l0.9-5.9h8.1l0.9,5.9h9.3l-7.9-39H7.9L0,97.4z M17.4,84.5h-6.3l3.3-19.9L17.4,84.5z M133.4,65.2
		c2.7,0,3.6,1,3.6,3.5v18.7c0,2.6-0.9,3.3-3.5,3.3h-2.9V65.2H133.4z M121.4,97.4H136c3.1,0,6.4-0.2,8.5-2.6c1.9-2.1,1.9-4.9,1.9-7.2
		l0-19.5c0-2.3,0-6.2-3.9-8.4c-1.3-0.8-3.4-1.3-6.9-1.3h-14.2V97.4z M88.6,97.4h9.3l0.9-5.9h8.1l0.9,5.9h9.3l-7.9-39H96.5L88.6,97.4
		z M99.7,84.5l3-19.7l3.3,19.7H99.7z M84.6,97.4h-9.2V84.1c0-2.5-0.8-4.3-3.6-4.3h-2.1v17.6h-9.1v-39h13.7c3.3,0,5.4,0.5,6.7,1.3
		c3.8,2.1,3.8,6.7,3.8,8.9c0,2.2-0.2,4.6-1.8,6.4c-1,1.1-2.3,1.7-3.6,2.1c0,0-0.1,0-0.2,0c1.9,0.3,3.2,1,3.9,1.7
		c0.8,0.8,1.2,1.6,1.4,2.3c0.2,0.7,0.3,2.6,0.3,5.8V97.4z M71.8,65.2c2.7,0,3.6,1,3.6,3.5v1.7c0,2.6-0.9,3.3-3.5,3.3h-2v-8.5H71.8z"
		/>
	<path class="st0" d="M159.9,62.8c0,0,0,0.1,0,0.1c-0.1,5.8-9.7,5.7,0,14.6v19.9h-9.8V77.5c9.7-8.9,0.1-8.8,0-14.6c0,0,0-0.1,0-0.1
		c0.1-2.7,2.2-4.8,4.9-4.9C157.6,58,159.8,60.1,159.9,62.8"/>
	<rect x="163.8" y="80" class="st0" width="14.7" height="5.4"/>
	<path class="st0" d="M188.3,78.5c-3.9-2.8-5.3-3.8-5.3-9.2c0-7.7,2.4-10.9,12-10.9c10.1,0,11,3.9,10.8,12.2h-8.8V68
		c0-1.9-0.2-3.1-2.6-3.1c-2.3,0-2.3,1.8-2.3,3.3c0,2,0.1,2.8,1.7,3.8l7.9,5.4c3.5,2.4,5,3.5,5,9.3c0,4.1-0.8,6.1-2.4,7.7
		c-1.6,1.6-4,2.9-9.6,2.9c-4.3,0-7.5-0.7-9.5-2.3c-2.8-2.3-2.7-5.7-2.6-10.2h9.2v2.9c0,0.9,0,3,2.7,3c2.9,0,2.9-1.8,2.9-2.7
		c0-2.9-0.1-3.1-3.5-5.5L188.3,78.5 M234.3,72v-3.4c0-3.2,0-6.7-4-8.8c-2.7-1.4-6.7-1.4-8-1.4c-9.1,0-11.7,3.4-11.7,12.1v14.7
		c0,0.1,0,0.1,0,0.2c0,0.4,0,0.8,0,1.2c0,0.1,0,0.2,0,0.3c0.2,3.6,0.9,7.4,4.5,8.9c1.7,0.9,4.1,1.4,7.2,1.4c1.3,0,5.3-0.2,8-1.6
		c4-2.1,4-5.4,4-8.6v-3.4h-8.8v3.5c0,1.4,0,3.5-2.9,3.5c-2.8,0-2.8-1.9-2.8-3.6V68.6c0-1.7,0-3.6,2.8-3.6c2.9,0,2.9,2.1,2.9,3.5V72
		H234.3z"/>
	<g>
		<path class="st0" d="M0.6,108.9v-0.2c0-0.4,0.1-0.7,0.2-1c0.1-0.3,0.3-0.5,0.5-0.7c0.2-0.2,0.5-0.3,0.8-0.4c0.3-0.1,0.6-0.1,1-0.1
			c0.5,0,1,0.1,1.3,0.2c0.3,0.1,0.6,0.3,0.8,0.4c0.2,0.2,0.3,0.4,0.4,0.7c0.1,0.3,0.1,0.6,0.1,0.9v3.7c0,0.3,0,0.6,0,0.8
			c0,0.2,0.1,0.4,0.2,0.6H4.1C4,113.6,4,113.5,4,113.4c0-0.1-0.1-0.2-0.1-0.4h0c-0.2,0.4-0.4,0.6-0.7,0.7c-0.3,0.1-0.6,0.2-1.1,0.2
			c-0.3,0-0.6-0.1-0.8-0.2c-0.2-0.1-0.4-0.3-0.5-0.5c-0.1-0.2-0.2-0.4-0.3-0.6c-0.1-0.2-0.1-0.5-0.1-0.7c0-0.3,0-0.6,0.1-0.9
			c0.1-0.2,0.2-0.4,0.3-0.6c0.1-0.2,0.3-0.3,0.5-0.4c0.2-0.1,0.5-0.2,0.8-0.3l1-0.3c0.3-0.1,0.5-0.2,0.6-0.3
			c0.1-0.1,0.2-0.3,0.2-0.5c0-0.3-0.1-0.5-0.2-0.6c-0.1-0.2-0.3-0.2-0.6-0.2c-0.3,0-0.5,0.1-0.6,0.2c-0.1,0.2-0.2,0.4-0.2,0.7v0.2
			H0.6z M3.9,110.3c-0.1,0.1-0.3,0.2-0.4,0.2c-0.1,0.1-0.3,0.1-0.4,0.1c-0.4,0.1-0.6,0.2-0.8,0.4c-0.2,0.2-0.2,0.4-0.2,0.7
			c0,0.3,0.1,0.5,0.2,0.7c0.1,0.2,0.3,0.3,0.5,0.3c0.1,0,0.2,0,0.4-0.1c0.1,0,0.2-0.1,0.4-0.2c0.1-0.1,0.2-0.2,0.3-0.3
			c0.1-0.1,0.1-0.3,0.1-0.5V110.3z"/>
		<path class="st0" d="M8.2,111.5v0.2c0,0.3,0.1,0.5,0.2,0.7c0.2,0.2,0.4,0.3,0.7,0.3c0.3,0,0.5-0.1,0.7-0.2
			c0.2-0.1,0.2-0.3,0.2-0.6c0-0.2-0.1-0.4-0.2-0.5c-0.1-0.1-0.3-0.2-0.5-0.3l-1.3-0.5c-0.5-0.2-0.9-0.4-1.1-0.7
			c-0.3-0.3-0.4-0.7-0.4-1.2c0-0.3,0-0.6,0.1-0.8c0.1-0.3,0.2-0.5,0.5-0.7c0.2-0.2,0.5-0.3,0.8-0.5c0.3-0.1,0.7-0.2,1.2-0.2
			c0.8,0,1.4,0.2,1.8,0.5c0.4,0.3,0.6,0.8,0.6,1.5v0.3H10c0-0.4-0.1-0.6-0.2-0.8c-0.1-0.2-0.3-0.3-0.6-0.3c-0.2,0-0.4,0.1-0.6,0.2
			c-0.2,0.1-0.3,0.3-0.3,0.6c0,0.2,0.1,0.3,0.2,0.5c0.1,0.1,0.3,0.3,0.6,0.4l1.1,0.4c0.6,0.2,1,0.4,1.2,0.7c0.2,0.3,0.4,0.7,0.4,1.3
			c0,0.4-0.1,0.7-0.2,1c-0.1,0.3-0.3,0.5-0.5,0.7c-0.2,0.2-0.5,0.3-0.8,0.4c-0.3,0.1-0.7,0.1-1,0.1c-0.5,0-0.9-0.1-1.3-0.2
			c-0.3-0.1-0.6-0.3-0.8-0.4c-0.2-0.2-0.3-0.4-0.4-0.7c-0.1-0.3-0.1-0.6-0.1-0.9v-0.2H8.2z"/>
		<path class="st0" d="M14,111.5v0.2c0,0.3,0.1,0.5,0.2,0.7c0.2,0.2,0.4,0.3,0.7,0.3c0.3,0,0.5-0.1,0.7-0.2c0.2-0.1,0.2-0.3,0.2-0.6
			c0-0.2-0.1-0.4-0.2-0.5c-0.1-0.1-0.3-0.2-0.5-0.3l-1.3-0.5c-0.5-0.2-0.9-0.4-1.1-0.7c-0.3-0.3-0.4-0.7-0.4-1.2
			c0-0.3,0-0.6,0.1-0.8c0.1-0.3,0.2-0.5,0.5-0.7c0.2-0.2,0.5-0.3,0.8-0.5c0.3-0.1,0.7-0.2,1.2-0.2c0.8,0,1.4,0.2,1.8,0.5
			c0.4,0.3,0.6,0.8,0.6,1.5v0.3h-1.6c0-0.4-0.1-0.6-0.2-0.8c-0.1-0.2-0.3-0.3-0.6-0.3c-0.2,0-0.4,0.1-0.6,0.2
			c-0.2,0.1-0.3,0.3-0.3,0.6c0,0.2,0.1,0.3,0.2,0.5c0.1,0.1,0.3,0.3,0.6,0.4l1.1,0.4c0.6,0.2,1,0.4,1.2,0.7c0.2,0.3,0.4,0.7,0.4,1.3
			c0,0.4-0.1,0.7-0.2,1c-0.1,0.3-0.3,0.5-0.5,0.7c-0.2,0.2-0.5,0.3-0.8,0.4c-0.3,0.1-0.7,0.1-1,0.1c-0.5,0-0.9-0.1-1.3-0.2
			c-0.3-0.1-0.6-0.3-0.8-0.4c-0.2-0.2-0.3-0.4-0.4-0.7c-0.1-0.3-0.1-0.6-0.1-0.9v-0.2H14z"/>
		<path class="st0" d="M18.2,110.3c0-0.6,0-1.1,0.1-1.6c0.1-0.5,0.3-0.8,0.5-1.2c0.2-0.3,0.5-0.5,0.9-0.7c0.4-0.2,0.8-0.2,1.3-0.2
			c0.5,0,1,0.1,1.3,0.2c0.4,0.2,0.6,0.4,0.8,0.7c0.2,0.3,0.4,0.7,0.4,1.2c0.1,0.5,0.1,1,0.1,1.6c0,0.6,0,1.1-0.1,1.6
			c-0.1,0.5-0.3,0.8-0.5,1.2c-0.2,0.3-0.5,0.5-0.9,0.7c-0.4,0.2-0.8,0.2-1.3,0.2c-0.5,0-1-0.1-1.3-0.2c-0.4-0.2-0.6-0.4-0.8-0.7
			c-0.2-0.3-0.4-0.7-0.4-1.2C18.3,111.4,18.2,110.9,18.2,110.3z M20,110.3c0,0.4,0,0.7,0,1c0,0.3,0.1,0.6,0.1,0.8
			c0.1,0.2,0.2,0.4,0.3,0.5c0.1,0.1,0.3,0.2,0.5,0.2c0.4,0,0.6-0.2,0.8-0.6c0.1-0.4,0.2-1,0.2-1.9c0-0.9-0.1-1.5-0.2-1.9
			c-0.1-0.4-0.4-0.6-0.8-0.6c-0.2,0-0.4,0.1-0.5,0.2c-0.1,0.1-0.2,0.3-0.3,0.5c-0.1,0.2-0.1,0.5-0.1,0.8C20,109.6,20,109.9,20,110.3
			z"/>
		<path class="st0" d="M28.1,109.3c0-0.2,0-0.3,0-0.5c0-0.2-0.1-0.3-0.1-0.5c-0.1-0.1-0.1-0.2-0.2-0.3c-0.1-0.1-0.2-0.1-0.4-0.1
			c-0.2,0-0.4,0.1-0.5,0.1c-0.1,0.1-0.2,0.2-0.3,0.4c-0.1,0.2-0.1,0.4-0.1,0.7c0,0.3,0,0.7,0,1.1c0,0.4,0,0.8,0,1.1
			c0,0.3,0.1,0.6,0.1,0.8c0.1,0.2,0.2,0.3,0.3,0.4c0.1,0.1,0.3,0.1,0.5,0.1c0.3,0,0.5-0.1,0.7-0.4c0.1-0.3,0.2-0.7,0.2-1.3h1.7
			c0,0.9-0.2,1.6-0.6,2.1c-0.4,0.5-1.1,0.7-2.1,0.7c-0.5,0-0.8-0.1-1.2-0.2c-0.3-0.1-0.6-0.3-0.8-0.6c-0.2-0.3-0.4-0.7-0.5-1.1
			c-0.1-0.5-0.2-1.1-0.2-1.8c0-0.7,0.1-1.3,0.2-1.8c0.1-0.5,0.3-0.9,0.6-1.1c0.3-0.3,0.6-0.5,0.9-0.6c0.3-0.1,0.7-0.2,1.1-0.2
			c0.8,0,1.5,0.2,1.9,0.7c0.4,0.5,0.6,1.1,0.6,2H28.1z"/>
		<path class="st0" d="M30.8,104.3h1.8v1.5h-1.8V104.3z M30.8,106.7h1.8v7h-1.8V106.7z"/>
		<path class="st0" d="M33.8,108.9v-0.2c0-0.4,0.1-0.7,0.2-1c0.1-0.3,0.3-0.5,0.5-0.7c0.2-0.2,0.5-0.3,0.8-0.4
			c0.3-0.1,0.6-0.1,1-0.1c0.5,0,1,0.1,1.3,0.2c0.3,0.1,0.6,0.3,0.8,0.4c0.2,0.2,0.3,0.4,0.4,0.7c0.1,0.3,0.1,0.6,0.1,0.9v3.7
			c0,0.3,0,0.6,0,0.8c0,0.2,0.1,0.4,0.2,0.6h-1.7c-0.1-0.1-0.1-0.2-0.1-0.4c0-0.1-0.1-0.2-0.1-0.4h0c-0.2,0.4-0.4,0.6-0.7,0.7
			c-0.3,0.1-0.6,0.2-1.1,0.2c-0.3,0-0.6-0.1-0.8-0.2c-0.2-0.1-0.4-0.3-0.5-0.5c-0.1-0.2-0.2-0.4-0.3-0.6c-0.1-0.2-0.1-0.5-0.1-0.7
			c0-0.3,0-0.6,0.1-0.9c0.1-0.2,0.2-0.4,0.3-0.6c0.1-0.2,0.3-0.3,0.5-0.4c0.2-0.1,0.5-0.2,0.8-0.3l1-0.3c0.3-0.1,0.5-0.2,0.6-0.3
			c0.1-0.1,0.2-0.3,0.2-0.5c0-0.3-0.1-0.5-0.2-0.6c-0.1-0.2-0.3-0.2-0.6-0.2c-0.3,0-0.5,0.1-0.6,0.2c-0.1,0.2-0.2,0.4-0.2,0.7v0.2
			H33.8z M37.1,110.3c-0.1,0.1-0.3,0.2-0.4,0.2c-0.1,0.1-0.3,0.1-0.4,0.1c-0.4,0.1-0.6,0.2-0.8,0.4c-0.2,0.2-0.2,0.4-0.2,0.7
			c0,0.3,0.1,0.5,0.2,0.7c0.1,0.2,0.3,0.3,0.5,0.3c0.1,0,0.2,0,0.4-0.1c0.1,0,0.2-0.1,0.4-0.2c0.1-0.1,0.2-0.2,0.3-0.3
			c0.1-0.1,0.1-0.3,0.1-0.5V110.3z"/>
		<path class="st0" d="M43.5,109.3c0-0.2,0-0.3,0-0.5s-0.1-0.3-0.1-0.5c-0.1-0.1-0.1-0.2-0.2-0.3c-0.1-0.1-0.2-0.1-0.4-0.1
			c-0.2,0-0.4,0.1-0.5,0.1c-0.1,0.1-0.2,0.2-0.3,0.4c-0.1,0.2-0.1,0.4-0.1,0.7c0,0.3,0,0.7,0,1.1c0,0.4,0,0.8,0,1.1
			c0,0.3,0.1,0.6,0.1,0.8c0.1,0.2,0.2,0.3,0.3,0.4c0.1,0.1,0.3,0.1,0.5,0.1c0.3,0,0.5-0.1,0.7-0.4c0.1-0.3,0.2-0.7,0.2-1.2h1.7
			c0,0.9-0.2,1.6-0.6,2.1c-0.3,0.4-0.9,0.7-1.7,0.7l-0.4,0.6c0.1,0,0.2,0,0.2-0.1c0.1,0,0.1,0,0.2,0c0.1,0,0.3,0,0.4,0.1
			c0.1,0,0.3,0.1,0.4,0.2c0.1,0.1,0.2,0.2,0.2,0.3c0.1,0.1,0.1,0.3,0.1,0.4c0,0.4-0.1,0.7-0.4,0.9c-0.3,0.2-0.7,0.3-1.2,0.3
			c-0.3,0-0.5,0-0.8-0.1c-0.2-0.1-0.4-0.1-0.5-0.2l0.2-0.6c0.1,0.1,0.2,0.1,0.4,0.1c0.2,0,0.3,0.1,0.5,0.1c0.2,0,0.3,0,0.5-0.1
			c0.1-0.1,0.2-0.2,0.2-0.3c0-0.1-0.1-0.2-0.2-0.3c-0.1-0.1-0.2-0.1-0.4-0.1c-0.1,0-0.2,0-0.2,0c-0.1,0-0.1,0-0.2,0.1l-0.3-0.3
			l0.6-1c-0.2,0-0.3,0-0.5-0.1c-0.1,0-0.3-0.1-0.4-0.1c-0.5-0.2-0.9-0.5-1.1-1.1c-0.3-0.5-0.4-1.4-0.4-2.4c0-0.7,0.1-1.3,0.2-1.8
			c0.1-0.5,0.3-0.9,0.6-1.1c0.3-0.3,0.6-0.5,0.9-0.6c0.3-0.1,0.7-0.2,1.1-0.2c0.8,0,1.5,0.2,1.9,0.7c0.4,0.5,0.6,1.1,0.6,2H43.5z"/>
		<path class="st0" d="M46.2,108.9v-0.2c0-0.4,0.1-0.7,0.2-1c0.1-0.3,0.3-0.5,0.5-0.7c0.2-0.2,0.5-0.3,0.8-0.4
			c0.3-0.1,0.6-0.1,1-0.1c0.5,0,1,0.1,1.3,0.2c0.3,0.1,0.6,0.3,0.8,0.4c0.2,0.2,0.3,0.4,0.4,0.7c0.1,0.3,0.1,0.6,0.1,0.9v3.7
			c0,0.3,0,0.6,0,0.8c0,0.2,0.1,0.4,0.2,0.6h-1.7c-0.1-0.1-0.1-0.2-0.1-0.4c0-0.1-0.1-0.2-0.1-0.4h0c-0.2,0.4-0.4,0.6-0.7,0.7
			c-0.3,0.1-0.6,0.2-1.1,0.2c-0.3,0-0.6-0.1-0.8-0.2c-0.2-0.1-0.4-0.3-0.5-0.5c-0.1-0.2-0.2-0.4-0.3-0.6c-0.1-0.2-0.1-0.5-0.1-0.7
			c0-0.3,0-0.6,0.1-0.9c0.1-0.2,0.2-0.4,0.3-0.6c0.1-0.2,0.3-0.3,0.5-0.4c0.2-0.1,0.5-0.2,0.8-0.3l1-0.3c0.3-0.1,0.5-0.2,0.6-0.3
			c0.1-0.1,0.2-0.3,0.2-0.5c0-0.3-0.1-0.5-0.2-0.6c-0.1-0.2-0.3-0.2-0.6-0.2c-0.3,0-0.5,0.1-0.6,0.2c-0.1,0.2-0.2,0.4-0.2,0.7v0.2
			H46.2z M46.7,105.8c0.1-0.5,0.2-0.9,0.4-1.2c0.2-0.3,0.5-0.4,0.8-0.4c0.2,0,0.4,0,0.6,0.1l0.6,0.3c0.1,0.1,0.3,0.1,0.4,0.1
			c0.1,0,0.2-0.1,0.3-0.2c0.1-0.1,0.1-0.2,0.1-0.3h0.9c0,0.5-0.2,0.9-0.4,1.2c-0.2,0.3-0.5,0.5-0.8,0.5c-0.1,0-0.3,0-0.4-0.1
			c-0.1,0-0.3-0.1-0.4-0.1c-0.1-0.1-0.3-0.1-0.4-0.2c-0.1,0-0.2-0.1-0.3-0.1c-0.2,0-0.4,0.2-0.4,0.5H46.7z M49.4,110.3
			c-0.1,0.1-0.3,0.2-0.4,0.2c-0.1,0.1-0.3,0.1-0.4,0.1c-0.4,0.1-0.6,0.2-0.8,0.4c-0.2,0.2-0.2,0.4-0.2,0.7c0,0.3,0.1,0.5,0.2,0.7
			c0.1,0.2,0.3,0.3,0.5,0.3c0.1,0,0.2,0,0.4-0.1c0.1,0,0.2-0.1,0.4-0.2c0.1-0.1,0.2-0.2,0.3-0.3c0.1-0.1,0.1-0.3,0.1-0.5V110.3z"/>
		<path class="st0" d="M52.2,110.3c0-0.6,0-1.1,0.1-1.6c0.1-0.5,0.3-0.8,0.5-1.2c0.2-0.3,0.5-0.5,0.9-0.7c0.4-0.2,0.8-0.2,1.3-0.2
			c0.5,0,1,0.1,1.3,0.2c0.4,0.2,0.6,0.4,0.8,0.7c0.2,0.3,0.4,0.7,0.4,1.2c0.1,0.5,0.1,1,0.1,1.6c0,0.6,0,1.1-0.1,1.6
			c-0.1,0.5-0.3,0.8-0.5,1.2c-0.2,0.3-0.5,0.5-0.9,0.7c-0.4,0.2-0.8,0.2-1.3,0.2c-0.5,0-1-0.1-1.3-0.2c-0.4-0.2-0.6-0.4-0.8-0.7
			c-0.2-0.3-0.4-0.7-0.4-1.2C52.2,111.4,52.2,110.9,52.2,110.3z M54,110.3c0,0.4,0,0.7,0,1c0,0.3,0.1,0.6,0.1,0.8
			c0.1,0.2,0.2,0.4,0.3,0.5c0.1,0.1,0.3,0.2,0.5,0.2c0.4,0,0.6-0.2,0.8-0.6c0.1-0.4,0.2-1,0.2-1.9c0-0.9-0.1-1.5-0.2-1.9
			c-0.1-0.4-0.4-0.6-0.8-0.6c-0.2,0-0.4,0.1-0.5,0.2c-0.1,0.1-0.2,0.3-0.3,0.5c-0.1,0.2-0.1,0.5-0.1,0.8C54,109.6,54,109.9,54,110.3
			z"/>
		<path class="st0" d="M65.2,109.3c0-0.2,0-0.3,0-0.5c0-0.2-0.1-0.3-0.1-0.5c-0.1-0.1-0.1-0.2-0.2-0.3c-0.1-0.1-0.2-0.1-0.4-0.1
			c-0.2,0-0.4,0.1-0.5,0.1c-0.1,0.1-0.2,0.2-0.3,0.4c-0.1,0.2-0.1,0.4-0.1,0.7c0,0.3,0,0.7,0,1.1c0,0.4,0,0.8,0,1.1
			c0,0.3,0.1,0.6,0.1,0.8c0.1,0.2,0.2,0.3,0.3,0.4c0.1,0.1,0.3,0.1,0.5,0.1c0.3,0,0.5-0.1,0.7-0.4c0.1-0.3,0.2-0.7,0.2-1.3h1.7
			c0,0.9-0.2,1.6-0.6,2.1c-0.4,0.5-1.1,0.7-2.1,0.7c-0.5,0-0.8-0.1-1.2-0.2c-0.3-0.1-0.6-0.3-0.8-0.6c-0.2-0.3-0.4-0.7-0.5-1.1
			c-0.1-0.5-0.2-1.1-0.2-1.8c0-0.7,0.1-1.3,0.2-1.8c0.1-0.5,0.3-0.9,0.6-1.1c0.3-0.3,0.6-0.5,0.9-0.6c0.3-0.1,0.7-0.2,1.1-0.2
			c0.8,0,1.5,0.2,1.9,0.7c0.4,0.5,0.6,1.1,0.6,2H65.2z"/>
		<path class="st0" d="M67.8,108.9v-0.2c0-0.4,0.1-0.7,0.2-1c0.1-0.3,0.3-0.5,0.5-0.7c0.2-0.2,0.5-0.3,0.8-0.4
			c0.3-0.1,0.6-0.1,1-0.1c0.5,0,1,0.1,1.3,0.2c0.3,0.1,0.6,0.3,0.8,0.4c0.2,0.2,0.3,0.4,0.4,0.7c0.1,0.3,0.1,0.6,0.1,0.9v3.7
			c0,0.3,0,0.6,0,0.8c0,0.2,0.1,0.4,0.2,0.6h-1.7c-0.1-0.1-0.1-0.2-0.1-0.4c0-0.1-0.1-0.2-0.1-0.4h0c-0.2,0.4-0.5,0.6-0.7,0.7
			c-0.3,0.1-0.6,0.2-1.1,0.2c-0.3,0-0.6-0.1-0.8-0.2c-0.2-0.1-0.4-0.3-0.5-0.5c-0.1-0.2-0.2-0.4-0.3-0.6c-0.1-0.2-0.1-0.5-0.1-0.7
			c0-0.3,0-0.6,0.1-0.9c0.1-0.2,0.2-0.4,0.3-0.6c0.1-0.2,0.3-0.3,0.5-0.4c0.2-0.1,0.5-0.2,0.8-0.3l1-0.3c0.3-0.1,0.5-0.2,0.6-0.3
			c0.1-0.1,0.2-0.3,0.2-0.5c0-0.3-0.1-0.5-0.2-0.6c-0.1-0.2-0.3-0.2-0.6-0.2c-0.3,0-0.5,0.1-0.6,0.2c-0.1,0.2-0.2,0.4-0.2,0.7v0.2
			H67.8z M71.1,110.3c-0.1,0.1-0.3,0.2-0.4,0.2c-0.1,0.1-0.3,0.1-0.4,0.1c-0.4,0.1-0.6,0.2-0.8,0.4c-0.2,0.2-0.2,0.4-0.2,0.7
			c0,0.3,0.1,0.5,0.2,0.7c0.1,0.2,0.3,0.3,0.5,0.3c0.1,0,0.2,0,0.4-0.1c0.1,0,0.2-0.1,0.4-0.2c0.1-0.1,0.2-0.2,0.3-0.3
			c0.1-0.1,0.1-0.3,0.1-0.5V110.3z"/>
		<path class="st0" d="M74.5,104.7h1.8v2h1v1.2h-1v3.8c0,0.3,0,0.5,0.1,0.6c0.1,0.1,0.3,0.2,0.5,0.2c0.1,0,0.1,0,0.2,0
			c0.1,0,0.1,0,0.2,0v1.3c-0.2,0-0.4,0-0.6,0.1c-0.2,0-0.4,0-0.6,0c-0.4,0-0.6,0-0.9-0.1c-0.2-0.1-0.4-0.2-0.5-0.3
			c-0.1-0.1-0.2-0.3-0.2-0.6c0-0.2-0.1-0.5-0.1-0.9v-4h-0.9v-1.2h0.9V104.7z"/>
		<path class="st0" d="M78,108.9v-0.2c0-0.4,0.1-0.7,0.2-1c0.1-0.3,0.3-0.5,0.5-0.7c0.2-0.2,0.5-0.3,0.8-0.4c0.3-0.1,0.6-0.1,1-0.1
			c0.5,0,1,0.1,1.3,0.2c0.3,0.1,0.6,0.3,0.8,0.4c0.2,0.2,0.3,0.4,0.4,0.7c0.1,0.3,0.1,0.6,0.1,0.9v3.7c0,0.3,0,0.6,0,0.8
			c0,0.2,0.1,0.4,0.2,0.6h-1.7c-0.1-0.1-0.1-0.2-0.1-0.4c0-0.1-0.1-0.2-0.1-0.4h0c-0.2,0.4-0.5,0.6-0.7,0.7
			c-0.3,0.1-0.6,0.2-1.1,0.2c-0.3,0-0.6-0.1-0.8-0.2c-0.2-0.1-0.4-0.3-0.5-0.5c-0.1-0.2-0.2-0.4-0.3-0.6c-0.1-0.2-0.1-0.5-0.1-0.7
			c0-0.3,0-0.6,0.1-0.9c0.1-0.2,0.2-0.4,0.3-0.6c0.1-0.2,0.3-0.3,0.5-0.4c0.2-0.1,0.5-0.2,0.8-0.3l1-0.3c0.3-0.1,0.5-0.2,0.6-0.3
			c0.1-0.1,0.2-0.3,0.2-0.5c0-0.3-0.1-0.5-0.2-0.6c-0.1-0.2-0.3-0.2-0.6-0.2c-0.3,0-0.5,0.1-0.6,0.2c-0.1,0.2-0.2,0.4-0.2,0.7v0.2
			H78z M81.3,110.3c-0.1,0.1-0.3,0.2-0.4,0.2c-0.1,0.1-0.3,0.1-0.4,0.1c-0.4,0.1-0.6,0.2-0.8,0.4c-0.2,0.2-0.2,0.4-0.2,0.7
			c0,0.3,0.1,0.5,0.2,0.7c0.1,0.2,0.3,0.3,0.5,0.3c0.1,0,0.2,0,0.4-0.1c0.1,0,0.2-0.1,0.4-0.2c0.1-0.1,0.2-0.2,0.3-0.3
			c0.1-0.1,0.1-0.3,0.1-0.5V110.3z"/>
		<path class="st0" d="M84.3,106.7H86v0.9h0c0.2-0.3,0.4-0.6,0.7-0.8c0.3-0.2,0.6-0.3,1-0.3c0.1,0,0.1,0,0.2,0c0.1,0,0.1,0,0.2,0
			v1.7c-0.1,0-0.2,0-0.3,0c-0.1,0-0.2,0-0.3,0c-0.2,0-0.3,0-0.5,0.1c-0.2,0-0.3,0.1-0.4,0.2c-0.1,0.1-0.2,0.2-0.3,0.4
			c-0.1,0.2-0.1,0.4-0.1,0.6v4.2h-1.8V106.7z"/>
		<path class="st0" d="M88.7,104.3h1.8v1.5h-1.8V104.3z M88.7,106.7h1.8v7h-1.8V106.7z"/>
		<path class="st0" d="M91.7,106.7h1.7v0.8h0c0.2-0.3,0.4-0.6,0.7-0.8c0.3-0.2,0.7-0.2,1-0.2c0.6,0,1,0.2,1.3,0.5
			c0.3,0.3,0.5,0.8,0.5,1.5v5.2h-1.8v-4.8c0-0.4-0.1-0.6-0.2-0.8c-0.1-0.1-0.3-0.2-0.6-0.2c-0.6,0-1,0.4-1,1.2v4.7h-1.8V106.7z"/>
		<path class="st0" d="M99.8,110.5v0.6c0,0.2,0,0.4,0,0.6c0,0.2,0.1,0.4,0.1,0.5c0.1,0.2,0.2,0.3,0.3,0.4c0.1,0.1,0.3,0.1,0.4,0.1
			c0.3,0,0.5-0.1,0.7-0.3c0.1-0.2,0.2-0.5,0.3-1h1.6c0,0.8-0.3,1.4-0.7,1.9c-0.4,0.4-1,0.7-1.9,0.7c-0.7,0-1.2-0.1-1.5-0.3
			c-0.4-0.2-0.6-0.5-0.8-0.9c-0.2-0.4-0.3-0.8-0.3-1.2c0-0.4-0.1-0.9-0.1-1.3c0-0.5,0-0.9,0.1-1.4c0.1-0.4,0.2-0.8,0.4-1.2
			c0.2-0.3,0.5-0.6,0.8-0.8c0.4-0.2,0.9-0.3,1.5-0.3c0.5,0,0.9,0.1,1.3,0.3c0.3,0.2,0.6,0.4,0.8,0.7c0.2,0.3,0.3,0.7,0.4,1.1
			c0.1,0.4,0.1,0.9,0.1,1.5v0.4H99.8z M101.6,109.5c0-0.3,0-0.5-0.1-0.7c0-0.2-0.1-0.4-0.1-0.5c-0.1-0.1-0.2-0.3-0.3-0.3
			c-0.1-0.1-0.3-0.1-0.5-0.1s-0.3,0-0.4,0.1c-0.1,0.1-0.2,0.2-0.3,0.3c-0.1,0.1-0.1,0.3-0.1,0.5c0,0.2,0,0.3,0,0.5v0.3H101.6z"/>
		<path class="st0" d="M104.3,106.7h1.7v0.8h0c0.2-0.3,0.4-0.6,0.7-0.8c0.3-0.2,0.7-0.2,1-0.2c0.6,0,1,0.2,1.3,0.5
			c0.3,0.3,0.5,0.8,0.5,1.5v5.2h-1.8v-4.8c0-0.4-0.1-0.6-0.2-0.8c-0.1-0.1-0.3-0.2-0.6-0.2c-0.6,0-1,0.4-1,1.2v4.7h-1.8V106.7z"/>
		<path class="st0" d="M112.1,111.5v0.2c0,0.3,0.1,0.5,0.2,0.7c0.2,0.2,0.4,0.3,0.7,0.3c0.3,0,0.5-0.1,0.7-0.2
			c0.2-0.1,0.2-0.3,0.2-0.6c0-0.2-0.1-0.4-0.2-0.5c-0.1-0.1-0.3-0.2-0.5-0.3l-1.3-0.5c-0.5-0.2-0.9-0.4-1.1-0.7
			c-0.3-0.3-0.4-0.7-0.4-1.2c0-0.3,0-0.6,0.1-0.8c0.1-0.3,0.2-0.5,0.5-0.7c0.2-0.2,0.5-0.3,0.8-0.5c0.3-0.1,0.7-0.2,1.2-0.2
			c0.8,0,1.4,0.2,1.8,0.5c0.4,0.3,0.6,0.8,0.6,1.5v0.3h-1.6c0-0.4-0.1-0.6-0.2-0.8c-0.1-0.2-0.3-0.3-0.6-0.3c-0.2,0-0.4,0.1-0.6,0.2
			c-0.2,0.1-0.3,0.3-0.3,0.6c0,0.2,0.1,0.3,0.2,0.5c0.1,0.1,0.3,0.3,0.6,0.4l1.1,0.4c0.6,0.2,1,0.4,1.2,0.7c0.2,0.3,0.4,0.7,0.4,1.3
			c0,0.4-0.1,0.7-0.2,1c-0.1,0.3-0.3,0.5-0.5,0.7c-0.2,0.2-0.5,0.3-0.8,0.4c-0.3,0.1-0.7,0.1-1,0.1c-0.5,0-0.9-0.1-1.3-0.2
			c-0.3-0.1-0.6-0.3-0.8-0.4c-0.2-0.2-0.3-0.4-0.4-0.7c-0.1-0.3-0.1-0.6-0.1-0.9v-0.2H112.1z"/>
		<path class="st0" d="M118.1,110.5v0.6c0,0.2,0,0.4,0,0.6c0,0.2,0.1,0.4,0.2,0.5c0.1,0.2,0.2,0.3,0.3,0.4c0.1,0.1,0.3,0.1,0.4,0.1
			c0.3,0,0.5-0.1,0.7-0.3c0.1-0.2,0.2-0.5,0.3-1h1.6c0,0.8-0.3,1.4-0.7,1.9c-0.4,0.4-1,0.7-1.9,0.7c-0.7,0-1.2-0.1-1.5-0.3
			c-0.4-0.2-0.6-0.5-0.8-0.9c-0.2-0.4-0.3-0.8-0.3-1.2c0-0.4-0.1-0.9-0.1-1.3c0-0.5,0-0.9,0.1-1.4c0.1-0.4,0.2-0.8,0.4-1.2
			c0.2-0.3,0.5-0.6,0.8-0.8c0.4-0.2,0.9-0.3,1.5-0.3c0.5,0,1,0.1,1.3,0.3c0.3,0.2,0.6,0.4,0.8,0.7c0.2,0.3,0.3,0.7,0.4,1.1
			c0.1,0.4,0.1,0.9,0.1,1.5v0.4H118.1z M120,109.5c0-0.3,0-0.5-0.1-0.7c0-0.2-0.1-0.4-0.1-0.5c-0.1-0.1-0.2-0.3-0.3-0.3
			c-0.1-0.1-0.3-0.1-0.4-0.1c-0.2,0-0.3,0-0.4,0.1c-0.1,0.1-0.2,0.2-0.3,0.3c-0.1,0.1-0.1,0.3-0.2,0.5c0,0.2,0,0.3,0,0.5v0.3H120z"
			/>
		<path class="st0" d="M129.3,113L129.3,113c-0.2,0.3-0.4,0.6-0.7,0.7c-0.2,0.1-0.6,0.2-0.9,0.2c-0.7,0-1.3-0.3-1.6-0.9
			c-0.3-0.6-0.5-1.5-0.5-2.8c0-1.3,0.2-2.2,0.5-2.8c0.3-0.6,0.9-0.9,1.6-0.9c0.3,0,0.6,0.1,0.9,0.2c0.2,0.1,0.5,0.3,0.6,0.6h0v-2.9
			h1.8v9.3h-1.7V113z M127.4,110.3c0,0.8,0.1,1.3,0.2,1.7c0.1,0.4,0.4,0.6,0.8,0.6c0.4,0,0.7-0.2,0.8-0.6c0.1-0.4,0.2-1,0.2-1.7
			c0-0.8-0.1-1.3-0.2-1.7c-0.1-0.4-0.4-0.6-0.8-0.6c-0.4,0-0.6,0.2-0.8,0.6C127.4,108.9,127.4,109.5,127.4,110.3z"/>
		<path class="st0" d="M132.2,108.9v-0.2c0-0.4,0.1-0.7,0.2-1c0.1-0.3,0.3-0.5,0.5-0.7c0.2-0.2,0.5-0.3,0.8-0.4
			c0.3-0.1,0.6-0.1,1-0.1c0.5,0,1,0.1,1.3,0.2c0.3,0.1,0.6,0.3,0.8,0.4c0.2,0.2,0.3,0.4,0.4,0.7c0.1,0.3,0.1,0.6,0.1,0.9v3.7
			c0,0.3,0,0.6,0,0.8c0,0.2,0.1,0.4,0.2,0.6h-1.7c-0.1-0.1-0.1-0.2-0.1-0.4c0-0.1-0.1-0.2-0.1-0.4h0c-0.2,0.4-0.5,0.6-0.7,0.7
			c-0.3,0.1-0.6,0.2-1.1,0.2c-0.3,0-0.6-0.1-0.8-0.2c-0.2-0.1-0.4-0.3-0.5-0.5c-0.1-0.2-0.2-0.4-0.3-0.6c-0.1-0.2-0.1-0.5-0.1-0.7
			c0-0.3,0-0.6,0.1-0.9c0.1-0.2,0.2-0.4,0.3-0.6c0.1-0.2,0.3-0.3,0.5-0.4c0.2-0.1,0.5-0.2,0.8-0.3l1-0.3c0.3-0.1,0.5-0.2,0.6-0.3
			c0.1-0.1,0.2-0.3,0.2-0.5c0-0.3-0.1-0.5-0.2-0.6c-0.1-0.2-0.3-0.2-0.6-0.2c-0.3,0-0.5,0.1-0.6,0.2c-0.1,0.2-0.2,0.4-0.2,0.7v0.2
			H132.2z M135.5,110.3c-0.1,0.1-0.3,0.2-0.4,0.2c-0.1,0.1-0.3,0.1-0.4,0.1c-0.4,0.1-0.6,0.2-0.8,0.4c-0.2,0.2-0.2,0.4-0.2,0.7
			c0,0.3,0.1,0.5,0.2,0.7c0.1,0.2,0.3,0.3,0.5,0.3c0.1,0,0.2,0,0.4-0.1c0.1,0,0.2-0.1,0.4-0.2c0.1-0.1,0.2-0.2,0.3-0.3
			c0.1-0.1,0.1-0.3,0.1-0.5V110.3z"/>
		<path class="st0" d="M139.8,111.5v0.2c0,0.3,0.1,0.5,0.2,0.7c0.2,0.2,0.4,0.3,0.7,0.3c0.3,0,0.5-0.1,0.7-0.2
			c0.2-0.1,0.2-0.3,0.2-0.6c0-0.2-0.1-0.4-0.2-0.5c-0.1-0.1-0.3-0.2-0.5-0.3l-1.3-0.5c-0.5-0.2-0.9-0.4-1.1-0.7s-0.4-0.7-0.4-1.2
			c0-0.3,0-0.6,0.1-0.8c0.1-0.3,0.2-0.5,0.5-0.7c0.2-0.2,0.5-0.3,0.8-0.5c0.3-0.1,0.7-0.2,1.2-0.2c0.8,0,1.4,0.2,1.8,0.5
			c0.4,0.3,0.6,0.8,0.6,1.5v0.3h-1.6c0-0.4-0.1-0.6-0.2-0.8c-0.1-0.2-0.3-0.3-0.6-0.3c-0.2,0-0.4,0.1-0.6,0.2
			c-0.2,0.1-0.3,0.3-0.3,0.6c0,0.2,0.1,0.3,0.2,0.5c0.1,0.1,0.3,0.3,0.6,0.4l1.1,0.4c0.6,0.2,1,0.4,1.2,0.7c0.2,0.3,0.4,0.7,0.4,1.3
			c0,0.4-0.1,0.7-0.2,1c-0.1,0.3-0.3,0.5-0.5,0.7c-0.2,0.2-0.5,0.3-0.8,0.4c-0.3,0.1-0.7,0.1-1,0.1c-0.5,0-0.9-0.1-1.3-0.2
			c-0.3-0.1-0.6-0.3-0.8-0.4c-0.2-0.2-0.3-0.4-0.4-0.7c-0.1-0.3-0.1-0.6-0.1-0.9v-0.2H139.8z"/>
		<path class="st0" d="M147.4,108.9v-0.2c0-0.4,0.1-0.7,0.2-1c0.1-0.3,0.3-0.5,0.5-0.7c0.2-0.2,0.5-0.3,0.8-0.4
			c0.3-0.1,0.6-0.1,1-0.1c0.5,0,1,0.1,1.3,0.2c0.3,0.1,0.6,0.3,0.8,0.4c0.2,0.2,0.3,0.4,0.4,0.7c0.1,0.3,0.1,0.6,0.1,0.9v3.7
			c0,0.3,0,0.6,0,0.8c0,0.2,0.1,0.4,0.2,0.6h-1.7c-0.1-0.1-0.1-0.2-0.1-0.4c0-0.1-0.1-0.2-0.1-0.4h0c-0.2,0.4-0.5,0.6-0.7,0.7
			c-0.3,0.1-0.6,0.2-1.1,0.2c-0.3,0-0.6-0.1-0.8-0.2c-0.2-0.1-0.4-0.3-0.5-0.5c-0.1-0.2-0.2-0.4-0.3-0.6c-0.1-0.2-0.1-0.5-0.1-0.7
			c0-0.3,0-0.6,0.1-0.9c0.1-0.2,0.2-0.4,0.3-0.6c0.1-0.2,0.3-0.3,0.5-0.4c0.2-0.1,0.5-0.2,0.8-0.3l1-0.3c0.3-0.1,0.5-0.2,0.6-0.3
			c0.1-0.1,0.2-0.3,0.2-0.5c0-0.3-0.1-0.5-0.2-0.6c-0.1-0.2-0.3-0.2-0.6-0.2c-0.3,0-0.5,0.1-0.6,0.2c-0.1,0.2-0.2,0.4-0.2,0.7v0.2
			H147.4z M150.7,110.3c-0.1,0.1-0.3,0.2-0.4,0.2c-0.1,0.1-0.3,0.1-0.4,0.1c-0.4,0.1-0.6,0.2-0.8,0.4s-0.2,0.4-0.2,0.7
			c0,0.3,0.1,0.5,0.2,0.7c0.1,0.2,0.3,0.3,0.5,0.3c0.1,0,0.2,0,0.4-0.1c0.1,0,0.2-0.1,0.4-0.2c0.1-0.1,0.2-0.2,0.3-0.3
			c0.1-0.1,0.1-0.3,0.1-0.5V110.3z"/>
		<path class="st0" d="M159,106.7v6.7c0,0.9-0.2,1.6-0.7,2.1c-0.4,0.4-1.2,0.7-2.2,0.7c-0.8,0-1.4-0.2-1.8-0.5
			c-0.4-0.3-0.6-0.8-0.6-1.4h1.7c0,0.2,0.1,0.4,0.3,0.5c0.1,0.1,0.2,0.1,0.3,0.1c0.1,0,0.2,0.1,0.3,0.1c0.4,0,0.6-0.1,0.8-0.4
			c0.1-0.2,0.2-0.5,0.2-0.9v-0.9h0c-0.2,0.3-0.4,0.5-0.7,0.6c-0.3,0.2-0.5,0.2-0.8,0.2c-0.7,0-1.2-0.3-1.6-0.8
			c-0.4-0.5-0.5-1.5-0.5-2.7c0-0.4,0-0.8,0.1-1.3c0-0.4,0.1-0.8,0.3-1.2c0.2-0.3,0.4-0.6,0.7-0.8c0.3-0.2,0.7-0.3,1.2-0.3
			c0.3,0,0.5,0.1,0.8,0.2c0.3,0.1,0.5,0.4,0.7,0.8h0v-0.8H159z M155.4,110.5c0,0.2,0,0.5,0,0.7c0,0.2,0.1,0.4,0.1,0.6
			c0.1,0.2,0.2,0.3,0.3,0.4c0.1,0.1,0.3,0.2,0.5,0.2c0.2,0,0.3-0.1,0.5-0.2c0.1-0.1,0.2-0.2,0.3-0.4c0.1-0.2,0.1-0.4,0.2-0.6
			c0-0.2,0-0.5,0-0.8c0-0.9-0.1-1.5-0.2-1.8c-0.1-0.4-0.4-0.5-0.7-0.5c-0.2,0-0.4,0-0.5,0.1c-0.1,0.1-0.2,0.2-0.3,0.4
			c-0.1,0.2-0.1,0.5-0.1,0.8C155.4,109.6,155.4,110,155.4,110.5z"/>
		<path class="st0" d="M161.8,110.5v0.6c0,0.2,0,0.4,0,0.6s0.1,0.4,0.2,0.5c0.1,0.2,0.2,0.3,0.3,0.4c0.1,0.1,0.3,0.1,0.4,0.1
			c0.3,0,0.5-0.1,0.7-0.3c0.1-0.2,0.2-0.5,0.3-1h1.6c0,0.8-0.3,1.4-0.7,1.9c-0.4,0.4-1,0.7-1.9,0.7c-0.7,0-1.2-0.1-1.5-0.3
			c-0.4-0.2-0.6-0.5-0.8-0.9c-0.2-0.4-0.3-0.8-0.3-1.2c0-0.4-0.1-0.9-0.1-1.3c0-0.5,0-0.9,0.1-1.4c0.1-0.4,0.2-0.8,0.4-1.2
			c0.2-0.3,0.5-0.6,0.8-0.8c0.4-0.2,0.9-0.3,1.5-0.3c0.5,0,0.9,0.1,1.3,0.3c0.3,0.2,0.6,0.4,0.8,0.7c0.2,0.3,0.3,0.7,0.4,1.1
			c0.1,0.4,0.1,0.9,0.1,1.5v0.4H161.8z M161.8,104h1.9l1,1.9h-1.4l-0.6-1.1l-0.6,1.1h-1.3L161.8,104z M163.6,109.5
			c0-0.3,0-0.5-0.1-0.7c0-0.2-0.1-0.4-0.1-0.5c-0.1-0.1-0.2-0.3-0.3-0.3c-0.1-0.1-0.3-0.1-0.4-0.1s-0.3,0-0.5,0.1
			c-0.1,0.1-0.2,0.2-0.3,0.3c-0.1,0.1-0.1,0.3-0.2,0.5c0,0.2,0,0.3,0,0.5v0.3H163.6z"/>
		<path class="st0" d="M166.3,106.7h1.7v0.8h0c0.2-0.3,0.4-0.6,0.7-0.8c0.3-0.2,0.7-0.2,1-0.2c0.6,0,1,0.2,1.3,0.5
			c0.3,0.3,0.5,0.8,0.5,1.5v5.2h-1.8v-4.8c0-0.4-0.1-0.6-0.2-0.8c-0.1-0.1-0.3-0.2-0.6-0.2c-0.6,0-1,0.4-1,1.2v4.7h-1.8V106.7z"/>
		<path class="st0" d="M176.2,109.3c0-0.2,0-0.3,0-0.5c0-0.2-0.1-0.3-0.1-0.5c-0.1-0.1-0.1-0.2-0.2-0.3c-0.1-0.1-0.2-0.1-0.4-0.1
			c-0.2,0-0.4,0.1-0.5,0.1c-0.1,0.1-0.2,0.2-0.3,0.4c-0.1,0.2-0.1,0.4-0.1,0.7c0,0.3,0,0.7,0,1.1c0,0.4,0,0.8,0,1.1
			c0,0.3,0.1,0.6,0.1,0.8c0.1,0.2,0.2,0.3,0.3,0.4c0.1,0.1,0.3,0.1,0.5,0.1c0.3,0,0.5-0.1,0.7-0.4c0.1-0.3,0.2-0.7,0.2-1.3h1.7
			c0,0.9-0.2,1.6-0.6,2.1c-0.4,0.5-1.1,0.7-2.1,0.7c-0.5,0-0.8-0.1-1.2-0.2c-0.3-0.1-0.6-0.3-0.8-0.6c-0.2-0.3-0.4-0.7-0.5-1.1
			c-0.1-0.5-0.2-1.1-0.2-1.8c0-0.7,0.1-1.3,0.2-1.8c0.1-0.5,0.3-0.9,0.6-1.1c0.3-0.3,0.6-0.5,0.9-0.6c0.3-0.1,0.7-0.2,1.1-0.2
			c0.8,0,1.5,0.2,1.9,0.7c0.4,0.5,0.6,1.1,0.6,2H176.2z"/>
		<path class="st0" d="M178.9,104.3h1.8v1.5h-1.8V104.3z M178.9,106.7h1.8v7h-1.8V106.7z"/>
		<path class="st0" d="M181.9,108.9v-0.2c0-0.4,0.1-0.7,0.2-1c0.1-0.3,0.3-0.5,0.5-0.7c0.2-0.2,0.5-0.3,0.8-0.4
			c0.3-0.1,0.6-0.1,1-0.1c0.5,0,1,0.1,1.3,0.2c0.3,0.1,0.6,0.3,0.8,0.4c0.2,0.2,0.3,0.4,0.4,0.7c0.1,0.3,0.1,0.6,0.1,0.9v3.7
			c0,0.3,0,0.6,0,0.8c0,0.2,0.1,0.4,0.2,0.6h-1.7c-0.1-0.1-0.1-0.2-0.1-0.4c0-0.1-0.1-0.2-0.1-0.4h0c-0.2,0.4-0.5,0.6-0.7,0.7
			c-0.3,0.1-0.6,0.2-1.1,0.2c-0.3,0-0.6-0.1-0.8-0.2c-0.2-0.1-0.4-0.3-0.5-0.5c-0.1-0.2-0.2-0.4-0.3-0.6c-0.1-0.2-0.1-0.5-0.1-0.7
			c0-0.3,0-0.6,0.1-0.9c0.1-0.2,0.2-0.4,0.3-0.6c0.1-0.2,0.3-0.3,0.5-0.4c0.2-0.1,0.5-0.2,0.8-0.3l1-0.3c0.3-0.1,0.5-0.2,0.6-0.3
			c0.1-0.1,0.2-0.3,0.2-0.5c0-0.3-0.1-0.5-0.2-0.6c-0.1-0.2-0.3-0.2-0.6-0.2c-0.3,0-0.5,0.1-0.6,0.2c-0.1,0.2-0.2,0.4-0.2,0.7v0.2
			H181.9z M185.2,110.3c-0.1,0.1-0.3,0.2-0.4,0.2c-0.1,0.1-0.3,0.1-0.4,0.1c-0.4,0.1-0.6,0.2-0.8,0.4s-0.2,0.4-0.2,0.7
			c0,0.3,0.1,0.5,0.2,0.7c0.1,0.2,0.3,0.3,0.5,0.3c0.1,0,0.2,0,0.4-0.1c0.1,0,0.2-0.1,0.4-0.2c0.1-0.1,0.2-0.2,0.3-0.3
			c0.1-0.1,0.1-0.3,0.1-0.5V110.3z"/>
		<path class="st0" d="M189.5,111.5v0.2c0,0.3,0.1,0.5,0.2,0.7c0.2,0.2,0.4,0.3,0.7,0.3c0.3,0,0.5-0.1,0.7-0.2
			c0.2-0.1,0.2-0.3,0.2-0.6c0-0.2-0.1-0.4-0.2-0.5c-0.1-0.1-0.3-0.2-0.5-0.3l-1.3-0.5c-0.5-0.2-0.9-0.4-1.1-0.7
			c-0.3-0.3-0.4-0.7-0.4-1.2c0-0.3,0-0.6,0.1-0.8c0.1-0.3,0.2-0.5,0.5-0.7c0.2-0.2,0.5-0.3,0.8-0.5c0.3-0.1,0.7-0.2,1.2-0.2
			c0.8,0,1.4,0.2,1.8,0.5c0.4,0.3,0.6,0.8,0.6,1.5v0.3h-1.6c0-0.4-0.1-0.6-0.2-0.8s-0.3-0.3-0.6-0.3c-0.2,0-0.4,0.1-0.6,0.2
			c-0.2,0.1-0.3,0.3-0.3,0.6c0,0.2,0.1,0.3,0.2,0.5c0.1,0.1,0.3,0.3,0.6,0.4l1.1,0.4c0.6,0.2,1,0.4,1.2,0.7c0.2,0.3,0.4,0.7,0.4,1.3
			c0,0.4-0.1,0.7-0.2,1c-0.1,0.3-0.3,0.5-0.5,0.7c-0.2,0.2-0.5,0.3-0.8,0.4c-0.3,0.1-0.7,0.1-1,0.1c-0.5,0-0.9-0.1-1.3-0.2
			c-0.3-0.1-0.6-0.3-0.8-0.4c-0.2-0.2-0.3-0.4-0.4-0.7c-0.1-0.3-0.1-0.6-0.1-0.9v-0.2H189.5z"/>
		<path class="st0" d="M200.7,113L200.7,113c-0.2,0.3-0.4,0.6-0.7,0.7c-0.2,0.1-0.6,0.2-0.9,0.2c-0.7,0-1.3-0.3-1.6-0.9
			c-0.3-0.6-0.5-1.5-0.5-2.8c0-1.3,0.2-2.2,0.5-2.8c0.3-0.6,0.9-0.9,1.6-0.9c0.3,0,0.6,0.1,0.9,0.2c0.2,0.1,0.5,0.3,0.6,0.6h0v-2.9
			h1.8v9.3h-1.7V113z M198.8,110.3c0,0.8,0.1,1.3,0.2,1.7c0.1,0.4,0.4,0.6,0.8,0.6c0.4,0,0.7-0.2,0.8-0.6c0.1-0.4,0.2-1,0.2-1.7
			c0-0.8-0.1-1.3-0.2-1.7c-0.1-0.4-0.4-0.6-0.8-0.6c-0.4,0-0.6,0.2-0.8,0.6C198.8,108.9,198.8,109.5,198.8,110.3z"/>
		<path class="st0" d="M203.7,104.3h1.8v1.5h-1.8V104.3z M203.7,106.7h1.8v7h-1.8V106.7z"/>
		<path class="st0" d="M212,106.7v6.7c0,0.9-0.2,1.6-0.7,2.1c-0.4,0.4-1.2,0.7-2.2,0.7c-0.8,0-1.4-0.2-1.8-0.5
			c-0.4-0.3-0.6-0.8-0.6-1.4h1.7c0,0.2,0.1,0.4,0.3,0.5c0.1,0.1,0.2,0.1,0.3,0.1c0.1,0,0.2,0.1,0.3,0.1c0.4,0,0.6-0.1,0.8-0.4
			c0.1-0.2,0.2-0.5,0.2-0.9v-0.9h0c-0.2,0.3-0.4,0.5-0.7,0.6c-0.3,0.2-0.5,0.2-0.8,0.2c-0.7,0-1.2-0.3-1.6-0.8
			c-0.4-0.5-0.5-1.5-0.5-2.7c0-0.4,0-0.8,0.1-1.3c0-0.4,0.1-0.8,0.3-1.2c0.2-0.3,0.4-0.6,0.7-0.8c0.3-0.2,0.7-0.3,1.2-0.3
			c0.3,0,0.5,0.1,0.8,0.2c0.3,0.1,0.5,0.4,0.7,0.8h0v-0.8H212z M208.4,110.5c0,0.2,0,0.5,0,0.7c0,0.2,0.1,0.4,0.1,0.6
			c0.1,0.2,0.2,0.3,0.3,0.4c0.1,0.1,0.3,0.2,0.5,0.2c0.2,0,0.3-0.1,0.5-0.2c0.1-0.1,0.2-0.2,0.3-0.4c0.1-0.2,0.1-0.4,0.2-0.6
			c0-0.2,0-0.5,0-0.8c0-0.9-0.1-1.5-0.2-1.8c-0.1-0.4-0.4-0.5-0.7-0.5c-0.2,0-0.4,0-0.5,0.1c-0.1,0.1-0.2,0.2-0.3,0.4
			c-0.1,0.2-0.1,0.5-0.1,0.8C208.4,109.6,208.4,110,208.4,110.5z"/>
		<path class="st0" d="M213.4,104.3h1.8v1.5h-1.8V104.3z M213.4,106.7h1.8v7h-1.8V106.7z"/>
		<path class="st0" d="M216.8,104.7h1.8v2h1v1.2h-1v3.8c0,0.3,0,0.5,0.1,0.6c0.1,0.1,0.3,0.2,0.5,0.2c0.1,0,0.1,0,0.2,0
			c0.1,0,0.1,0,0.2,0v1.3c-0.2,0-0.4,0-0.6,0.1c-0.2,0-0.4,0-0.6,0c-0.4,0-0.6,0-0.9-0.1c-0.2-0.1-0.4-0.2-0.5-0.3
			c-0.1-0.1-0.2-0.3-0.2-0.6c0-0.2-0.1-0.5-0.1-0.9v-4h-0.9v-1.2h0.9V104.7z"/>
		<path class="st0" d="M220.3,108.9v-0.2c0-0.4,0.1-0.7,0.2-1c0.1-0.3,0.3-0.5,0.5-0.7c0.2-0.2,0.5-0.3,0.8-0.4
			c0.3-0.1,0.6-0.1,1-0.1c0.5,0,1,0.1,1.3,0.2c0.3,0.1,0.6,0.3,0.8,0.4c0.2,0.2,0.3,0.4,0.4,0.7c0.1,0.3,0.1,0.6,0.1,0.9v3.7
			c0,0.3,0,0.6,0,0.8c0,0.2,0.1,0.4,0.2,0.6h-1.7c-0.1-0.1-0.1-0.2-0.1-0.4c0-0.1-0.1-0.2-0.1-0.4h0c-0.2,0.4-0.4,0.6-0.7,0.7
			c-0.3,0.1-0.6,0.2-1.1,0.2c-0.3,0-0.6-0.1-0.8-0.2c-0.2-0.1-0.4-0.3-0.5-0.5c-0.1-0.2-0.2-0.4-0.3-0.6c-0.1-0.2-0.1-0.5-0.1-0.7
			c0-0.3,0-0.6,0.1-0.9c0.1-0.2,0.2-0.4,0.3-0.6c0.1-0.2,0.3-0.3,0.5-0.4c0.2-0.1,0.5-0.2,0.8-0.3l1-0.3c0.3-0.1,0.5-0.2,0.6-0.3
			c0.1-0.1,0.2-0.3,0.2-0.5c0-0.3-0.1-0.5-0.2-0.6c-0.1-0.2-0.3-0.2-0.6-0.2c-0.3,0-0.5,0.1-0.6,0.2c-0.1,0.2-0.2,0.4-0.2,0.7v0.2
			H220.3z M223.5,110.3c-0.1,0.1-0.3,0.2-0.4,0.2c-0.1,0.1-0.3,0.1-0.4,0.1c-0.4,0.1-0.6,0.2-0.8,0.4c-0.2,0.2-0.2,0.4-0.2,0.7
			c0,0.3,0.1,0.5,0.2,0.7c0.1,0.2,0.3,0.3,0.5,0.3c0.1,0,0.2,0,0.4-0.1c0.1,0,0.2-0.1,0.4-0.2c0.1-0.1,0.2-0.2,0.3-0.3
			c0.1-0.1,0.1-0.3,0.1-0.5V110.3z"/>
		<path class="st0" d="M226.6,104.3h1.8v1.5h-1.8V104.3z M226.6,106.7h1.8v7h-1.8V106.7z"/>
		<path class="st0" d="M231,111.5v0.2c0,0.3,0.1,0.5,0.2,0.7c0.2,0.2,0.4,0.3,0.7,0.3c0.3,0,0.5-0.1,0.7-0.2
			c0.2-0.1,0.2-0.3,0.2-0.6c0-0.2-0.1-0.4-0.2-0.5c-0.1-0.1-0.3-0.2-0.5-0.3l-1.3-0.5c-0.5-0.2-0.9-0.4-1.1-0.7
			c-0.3-0.3-0.4-0.7-0.4-1.2c0-0.3,0-0.6,0.1-0.8c0.1-0.3,0.2-0.5,0.5-0.7c0.2-0.2,0.5-0.3,0.8-0.5c0.3-0.1,0.7-0.2,1.2-0.2
			c0.8,0,1.4,0.2,1.8,0.5c0.4,0.3,0.6,0.8,0.6,1.5v0.3h-1.6c0-0.4-0.1-0.6-0.2-0.8c-0.1-0.2-0.3-0.3-0.6-0.3c-0.2,0-0.4,0.1-0.6,0.2
			c-0.2,0.1-0.3,0.3-0.3,0.6c0,0.2,0.1,0.3,0.2,0.5c0.1,0.1,0.3,0.3,0.6,0.4l1.1,0.4c0.6,0.2,1,0.4,1.2,0.7c0.2,0.3,0.4,0.7,0.4,1.3
			c0,0.4-0.1,0.7-0.2,1c-0.1,0.3-0.3,0.5-0.5,0.7c-0.2,0.2-0.5,0.3-0.8,0.4c-0.3,0.1-0.7,0.1-1,0.1c-0.5,0-0.9-0.1-1.3-0.2
			c-0.3-0.1-0.6-0.3-0.8-0.4c-0.2-0.2-0.3-0.4-0.4-0.7c-0.1-0.3-0.1-0.6-0.1-0.9v-0.2H231z"/>
	</g>
</g>
</svg>
